<?xml version="1.0" encoding="UTF-8"?>
<svg version="1.1" xmlns="http://www.w3.org/2000/svg" width="1668" height="717">
<path d="M0 0 C1.71961441 0.00323273 1.71961441 0.00323273 3.47396851 0.00653076 C20.65674913 0.05831994 37.51557668 0.4770923 54.5 3.3125 C55.7173584 3.51117676 56.9347168 3.70985352 58.18896484 3.91455078 C104.71489236 11.72052203 150.66881982 27.65592227 190.5 53.3125 C191.11858887 53.70566406 191.73717773 54.09882812 192.37451172 54.50390625 C209.32734434 65.32726975 225.33428987 77.66519576 240.1875 91.21875 C242.15655591 93.00154386 244.15890202 94.72368447 246.1875 96.4375 C255.57562085 104.61857674 264.59835155 113.68655114 272.5 123.3125 C272.93957031 123.83827637 273.37914062 124.36405273 273.83203125 124.90576172 C336.23015205 199.57793147 366.73568142 294.4691123 358.3125 391.5 C351.45618941 466.62702752 320.90825504 539.00709709 270.5 595.3125 C269.65566406 596.26769531 268.81132813 597.22289062 267.94140625 598.20703125 C257.11851174 610.24894279 245.83268281 622.34741417 233.046875 632.32421875 C230.24740504 634.50969453 227.57011628 636.81229886 224.875 639.125 C166.2438412 687.94656982 88.43380968 715.38606085 12.5 717.3125 C11.6656543 717.33441406 10.83130859 717.35632813 9.97167969 717.37890625 C-80.91311839 719.37564293 -169.66651862 687.43896277 -251.53515625 614.18359375 C-261.19897425 604.84119401 -270.22548674 594.90554298 -278.5 584.3125 C-278.97759766 583.70744629 -279.45519531 583.10239258 -279.94726562 582.47900391 C-292.46002006 566.59653198 -303.62736533 549.95892318 -313.5 532.3125 C-313.93135254 531.54695801 -314.36270508 530.78141602 -314.80712891 529.99267578 C-334.6155028 494.5198485 -347.16813254 455.50614463 -353.75 415.5 C-353.90122314 414.58387939 -354.05244629 413.66775879 -354.20825195 412.72387695 C-356.97444356 394.77252734 -357.87684915 376.89338658 -357.8125 358.75 C-357.81100952 357.70345245 -357.80951904 356.65690491 -357.8079834 355.5786438 C-357.76562217 338.97667958 -357.04110368 322.74424726 -354.5 306.3125 C-354.35546387 305.32717285 -354.21092773 304.3418457 -354.06201172 303.32666016 C-349.06326587 269.73043807 -338.96391043 237.02606458 -324.5 206.3125 C-323.98638916 205.22074463 -323.98638916 205.22074463 -323.46240234 204.10693359 C-321.24752245 199.45139042 -318.9009536 194.87431184 -316.5 190.3125 C-315.91943848 189.19125732 -315.91943848 189.19125732 -315.32714844 188.04736328 C-298.44984696 155.58743923 -275.40743458 127.05041397 -249.625 101.25 C-248.70847656 100.32123047 -247.79195313 99.39246094 -246.84765625 98.43554688 C-240.71127588 92.28622055 -234.30475132 86.70655872 -227.5 81.3125 C-226.23370586 80.27584072 -224.96912752 79.23707847 -223.70703125 78.1953125 C-160.80806755 26.87273387 -80.89531577 -0.27411954 0 0 Z " fill="#00643C" transform="translate(357.5,-0.3125)"/>
<path d="M0 0 C0.84243256 -0.01257339 1.68486511 -0.02514679 2.55282593 -0.0381012 C37.70050089 -0.4616914 37.70050089 -0.4616914 52.98828125 5.2734375 C54.08100342 5.6748999 54.08100342 5.6748999 55.19580078 6.08447266 C81.99427922 16.22524027 101.53370304 35.5532279 113.56152344 61.42895508 C120.22883121 76.49531408 125.20812922 98.17305243 119.84765625 114.3359375 C115.80158166 123.29229679 109.81329456 128.57561228 101.98828125 134.2734375 C99.94432596 135.8538153 97.90270637 137.43721796 95.86328125 139.0234375 C94.77815953 139.85263116 93.69219007 140.68071635 92.60546875 141.5078125 C88.37611286 144.73266668 84.18329584 148.00411636 79.98828125 151.2734375 C73.80703052 156.08722319 67.60906026 160.87768796 61.39453125 165.6484375 C57.24586736 168.83971741 53.11797878 172.05767886 48.98828125 175.2734375 C40.66275965 181.75570549 32.30491547 188.19417851 23.93359375 194.6171875 C16.8151867 200.08469216 9.72379312 205.58593664 2.6418457 211.10058594 C-2.76059751 215.30559511 -8.18108003 219.48583173 -13.61328125 223.65234375 C-16.18052448 225.62673111 -18.73463461 227.61734323 -21.28515625 229.61328125 C-25.84774365 233.18351322 -30.42314607 236.73666363 -35.01171875 240.2734375 C-35.71748047 240.81806641 -36.42324219 241.36269531 -37.15039062 241.92382812 C-39.13709864 243.44816133 -41.13447947 244.95708669 -43.13671875 246.4609375 C-43.71534668 246.90622803 -44.29397461 247.35151855 -44.89013672 247.81030273 C-53.65865061 254.32026002 -62.19179241 255.3111244 -73.01171875 254.2734375 C-76.38477066 253.40566106 -79.07575567 252.12864252 -82.01171875 250.2734375 C-83.05585938 249.63728516 -83.05585938 249.63728516 -84.12109375 248.98828125 C-91.32586049 244.12641798 -95.59464521 237.55970394 -98.01171875 229.2734375 C-98.26619434 226.41182232 -98.26619434 226.41182232 -98.27241516 223.389328 C-98.27949997 222.23608032 -98.28658478 221.08283264 -98.29388428 219.89463806 C-98.29140686 218.64316483 -98.28892944 217.39169159 -98.28637695 216.10229492 C-98.29072856 214.75954913 -98.2959132 213.41680582 -98.30186462 212.07406616 C-98.3152301 208.43493823 -98.31583513 204.79591434 -98.31330132 201.15676665 C-98.31222813 198.10607652 -98.31712482 195.05540713 -98.32190675 192.00472146 C-98.33299738 184.79227564 -98.33344441 177.57988187 -98.32739258 170.36743164 C-98.32137751 162.967181 -98.33360167 155.56712168 -98.35496265 148.16690367 C-98.37269295 141.78609049 -98.37856145 135.40533752 -98.3753249 129.02450067 C-98.37352709 125.22617765 -98.37599396 121.42799054 -98.39003944 117.62969017 C-98.49431218 86.7632898 -95.02748589 59.34057369 -74.01171875 35.2734375 C-73.49480469 34.6134375 -72.97789062 33.9534375 -72.4453125 33.2734375 C-60.13472613 17.97005194 -41.69000751 8.24572678 -23.01171875 3.2734375 C-22.06683594 2.93183594 -21.12195313 2.59023437 -20.1484375 2.23828125 C-13.5916901 0.22144861 -6.810423 0.09289035 0 0 Z " fill="#FEFEFE" transform="translate(233.01171875,143.7265625)"/>
<path d="M0 0 C8.08685865 5.00847741 12.64111472 11.61297513 15.5859375 20.6015625 C16.24661722 25.19543167 16.25101183 29.70515944 16.20117188 34.34033203 C16.20468199 35.68381957 16.21035055 37.0273029 16.21798706 38.37077332 C16.23212558 41.98919789 16.21527739 45.60685231 16.19170189 49.22520304 C16.17142406 53.03822276 16.1774816 56.85121568 16.17980957 60.66427612 C16.17975614 67.0712331 16.16009425 73.47789383 16.12792969 79.88476562 C16.09113779 87.2482265 16.08224281 94.61129852 16.0892272 101.97483933 C16.0955793 109.10450333 16.08468563 116.23403663 16.06526184 123.36367416 C16.05717506 126.37518073 16.05436198 129.38661967 16.05595398 132.39813614 C16.05882219 170.648119 16.05882219 170.648119 8.9609375 186.2890625 C8.44261353 187.46940063 8.44261353 187.46940063 7.91381836 188.67358398 C2.58744004 200.42789724 -4.4125763 210.33237411 -13.4140625 219.6015625 C-14.23777344 220.51808594 -14.23777344 220.51808594 -15.078125 221.453125 C-29.91591373 237.46039462 -54.72412686 248.33581172 -76.4140625 249.6015625 C-81.38790117 249.74182886 -86.35689131 249.78738865 -91.33251953 249.78686523 C-93.64504617 249.78904458 -95.95708902 249.80723356 -98.26953125 249.82617188 C-128.35975752 249.94304825 -154.01205841 239.78726152 -175.6015625 218.9140625 C-186.22116409 208.19553669 -192.98010725 195.55073812 -198.4140625 181.6015625 C-198.75179687 180.73660156 -199.08953125 179.87164062 -199.4375 178.98046875 C-200.19808652 176.86814679 -200.83923906 174.7713186 -201.4140625 172.6015625 C-201.71957031 171.47234375 -201.71957031 171.47234375 -202.03125 170.3203125 C-203.43880699 164.07307326 -203.64980554 157.85442128 -203.7265625 151.4765625 C-203.74420654 150.6414917 -203.76185059 149.8064209 -203.7800293 148.94604492 C-203.76851168 138.32156978 -200.20990057 130.49611314 -192.80859375 122.96875 C-187.75597915 118.35112871 -182.16473294 114.36145623 -176.67773438 110.28173828 C-172.2495095 106.98908625 -167.86847526 103.64804241 -163.5390625 100.2265625 C-162.70169556 99.56491089 -162.70169556 99.56491089 -161.84741211 98.88989258 C-161.27514893 98.43767334 -160.70288574 97.9854541 -160.11328125 97.51953125 C-149.75261699 89.33231418 -139.29468527 81.26749513 -128.8203125 73.2265625 C-124.67164882 70.03528275 -120.54373769 66.8173495 -116.4140625 63.6015625 C-110.23260127 58.78804527 -104.03484368 53.99731371 -97.8203125 49.2265625 C-93.67164882 46.03528275 -89.54373769 42.8173495 -85.4140625 39.6015625 C-79.23177907 34.78740502 -73.03468069 29.99416762 -66.81640625 25.2265625 C-64.2345496 23.24111551 -61.66811167 21.23674246 -59.10546875 19.2265625 C-52.0119895 13.66642119 -44.90953053 8.12850022 -37.6015625 2.8515625 C-37.0454126 2.44550781 -36.4892627 2.03945313 -35.91625977 1.62109375 C-25.4879911 -5.80999183 -11.3529096 -5.56759129 0 0 Z " fill="#FEFEFE" transform="translate(338.4140625,322.3984375)"/>
<path d="M0 0 C1.85263628 -0.00015539 3.70527287 -0.00165091 5.5579071 -0.00440979 C9.42506432 -0.00578718 13.29184771 0.00664931 17.15893555 0.02954102 C22.07402362 0.05786332 26.98848892 0.05519556 31.90362263 0.0424509 C35.72591814 0.03543679 39.54807412 0.04334877 43.37035179 0.05570793 C45.18052825 0.06017124 46.99071997 0.06060496 48.8008976 0.05664253 C64.87636222 0.03792542 78.85196055 1.98647383 93.76171875 8.49609375 C94.63441406 8.86476563 95.50710938 9.2334375 96.40625 9.61328125 C115.37617505 18.27671159 128.74048174 35.76660484 136.76171875 54.49609375 C138.38550846 59.08180702 139.63787706 63.76508277 140.76171875 68.49609375 C140.93805344 69.21422745 141.11438812 69.93236115 141.29606628 70.67225647 C141.90464361 74.36282714 141.9255981 78.00660979 141.9387207 81.73608398 C141.9452919 82.55313309 141.9518631 83.37018219 141.95863342 84.21199036 C141.97830084 86.90955717 141.9900184 89.60706829 142 92.3046875 C142.00407553 93.23142839 142.00815105 94.15816929 142.01235008 95.11299324 C142.0331894 100.0244639 142.04749672 104.93590685 142.05688477 109.84741211 C142.06790576 114.88724014 142.10226175 119.92662139 142.14205647 124.96629238 C142.16837987 128.86915326 142.17659077 132.77191056 142.18016624 136.67485237 C142.18499677 138.53054868 142.19650805 140.38624149 142.21520424 142.2418499 C142.35927486 157.49697861 140.93509126 170.68103065 131.76171875 183.49609375 C131.31054688 184.1303125 130.859375 184.76453125 130.39453125 185.41796875 C122.8287791 195.07819467 110.75571958 201.45073756 98.76171875 203.49609375 C97.09903754 203.58824384 95.43340021 203.63487968 93.76818848 203.64326477 C92.78723206 203.65042007 91.80627563 203.65757538 90.79559326 203.66494751 C89.19811249 203.66898087 89.19811249 203.66898087 87.56835938 203.6730957 C86.43758972 203.6796669 85.30682007 203.6862381 84.14178467 203.69300842 C80.40051198 203.712713 76.65927944 203.72439953 72.91796875 203.734375 C71.63693771 203.73845053 70.35590668 203.74252605 69.03605652 203.74672508 C62.95077943 203.7654285 56.86552232 203.77999453 50.78022242 203.78833705 C43.78693645 203.79808574 36.79396899 203.82434794 29.80079508 203.86483794 C23.71981824 203.89882101 17.63897357 203.91049725 11.5579071 203.91454124 C8.9840835 203.91939371 6.41026297 203.93096911 3.83650208 203.94957924 C-16.62941531 204.08833111 -32.39620749 202.97552941 -47.98828125 188.37109375 C-58.84450038 177.05486534 -62.70986726 163.17783511 -62.64233398 147.80517578 C-62.65262886 146.13696777 -62.65262886 146.13696777 -62.66313171 144.43505859 C-62.68129958 140.79120797 -62.67757618 137.14779206 -62.671875 133.50390625 C-62.67644173 130.95002097 -62.68174877 128.39613692 -62.6877594 125.84225464 C-62.69667102 120.5013877 -62.69452662 115.16067641 -62.68432617 109.81982422 C-62.67285509 103.6786379 -62.68691658 97.53788884 -62.71372265 91.39676011 C-62.73869487 85.44924256 -62.74103311 79.50185886 -62.73460579 73.55428696 C-62.73445322 71.0418818 -62.74044417 68.52946796 -62.75289726 66.01709366 C-62.83942198 45.70029964 -61.48659299 30.21935176 -46.98828125 14.68359375 C-33.54438866 1.94487996 -17.63124797 -0.12156684 0 0 Z " fill="#FEFEFE" transform="translate(440.23828125,360.50390625)"/>
<path d="M0 0 C1.11359894 -0.00511093 2.22719788 -0.01022186 3.37454224 -0.01548767 C7.02855923 -0.02930313 10.6823859 -0.02843296 14.33642578 -0.02612305 C16.89413522 -0.03001433 19.45184403 -0.03434989 22.009552 -0.03910828 C27.36055872 -0.04655317 32.71149658 -0.04643147 38.0625 -0.04101562 C44.21894666 -0.03497971 50.37516456 -0.04728685 56.53157222 -0.06858569 C62.48922109 -0.0884273 68.44680003 -0.09136349 74.4044838 -0.08785057 C76.92329572 -0.08836167 79.44211146 -0.09355942 81.96090317 -0.10366249 C85.49234054 -0.1160904 89.02325756 -0.10919687 92.5546875 -0.09765625 C94.09343536 -0.10912186 94.09343536 -0.10912186 95.66326904 -0.12081909 C110.54639563 -0.01408525 123.44422362 4.77956394 134.34033203 15.01293945 C143.10998204 24.61147887 148.54678991 36.6394008 148.56787109 49.61914062 C148.572836 50.35319626 148.5778009 51.08725189 148.58291626 51.84355164 C148.59751556 54.27241972 148.60434138 56.70122218 148.60986328 59.13012695 C148.61410435 60.38360648 148.61410435 60.38360648 148.61843109 61.66240883 C148.63342622 66.09753357 148.64264956 70.53262585 148.64697266 74.96777344 C148.65241231 79.50393705 148.67634254 84.03979362 148.70494461 88.57586193 C148.72378513 92.09968354 148.72878813 95.62343495 148.73030853 99.14730263 C148.73329512 100.81629398 148.74118447 102.48528534 148.75449371 104.1542263 C148.95009455 130.60214936 142.92390932 155.31346423 123.98876953 174.66137695 C122.71066406 175.95495117 122.71066406 175.95495117 121.40673828 177.2746582 C120.81248047 177.94110352 120.21822266 178.60754883 119.60595703 179.29418945 C111.87080422 187.79709936 100.8797565 192.93985446 90.40673828 197.2746582 C89.74544922 197.57114258 89.08416016 197.86762695 88.40283203 198.1730957 C76.51737918 203.1853326 63.16295853 202.5740982 50.51611328 202.5402832 C48.71779325 202.54163402 46.91947358 202.54357801 45.12115479 202.54608154 C41.37614419 202.54901018 37.63122978 202.54480659 33.88623047 202.53540039 C29.1063362 202.52397402 24.32666583 202.53059983 19.54677963 202.54254532 C15.84228855 202.54979709 12.13784996 202.54746135 8.43335724 202.54228973 C6.67124657 202.54096412 4.909131 202.5425624 3.14702606 202.54724884 C-14.24581052 202.58338869 -28.23379706 200.29661396 -41.33935547 187.7590332 C-52.14504986 175.84842379 -55.73730673 162.99599539 -55.75439453 147.3190918 C-55.75935944 146.22558411 -55.76432434 145.13207642 -55.7694397 144.00543213 C-55.78402087 140.39464686 -55.79085727 136.78390555 -55.79638672 133.1730957 C-55.8021423 130.65451049 -55.80789998 128.13592529 -55.81365967 125.61734009 C-55.82281838 121.01075894 -55.82912279 116.40419031 -55.83215642 111.7976011 C-55.83662827 105.04661246 -55.85414192 98.29582717 -55.88315701 91.5449003 C-55.90750701 85.67269415 -55.915107 79.80055494 -55.91683197 73.92830276 C-55.91984646 71.4429781 -55.92783399 68.95765404 -55.94101715 66.47236252 C-55.95819943 62.98361859 -55.95616736 59.49536164 -55.94970703 56.0065918 C-55.95892181 54.99317719 -55.9681366 53.97976257 -55.97763062 52.93563843 C-55.89205188 38.07557973 -51.04315645 25.23994853 -40.87060547 14.3449707 C-36.83783174 10.67881276 -32.31836425 7.95489411 -27.59326172 5.2746582 C-26.58263672 4.6765332 -25.57201172 4.0784082 -24.53076172 3.4621582 C-16.6174022 0.26314053 -8.43419166 -0.02028877 0 0 Z " fill="#FEFEFE" transform="translate(433.59326171875,143.725341796875)"/>
<path d="M0 0 C1.00525253 7.38210678 2.00115847 14.76543218 2.99072266 22.1496582 C3.32811303 24.6590598 3.6676045 27.16817986 4.00927734 29.67700195 C4.50136451 33.29305356 4.98576803 36.91006613 5.46875 40.52734375 C5.62186646 41.64020248 5.77498291 42.75306122 5.93273926 43.89964294 C6.73846033 49.99619428 7.15818553 55.85053746 7 62 C2.98055657 62.57497079 -1.03962508 63.14444235 -5.06054688 63.70898438 C-6.42631688 63.90151014 -7.79188169 64.09549771 -9.15722656 64.29101562 C-11.12769946 64.5729227 -13.09900124 64.84901642 -15.0703125 65.125 C-16.25383301 65.29257812 -17.43735352 65.46015625 -18.65673828 65.6328125 C-21.82686883 65.98098516 -24.81617049 66.19520614 -28 66 C-29.87109375 64.2421875 -29.87109375 64.2421875 -31.4375 61.875 C-37.53406768 53.39571263 -44.14040761 48.69836618 -54.4765625 46.46484375 C-64.60754916 45.06580274 -74.49843303 47.29843717 -83 53 C-90.25541728 59.2407708 -93.71820739 67.18036423 -94.9375 76.5625 C-95.60663575 89.56046198 -92.80869737 104.09961276 -84.1484375 114.1484375 C-77.43196208 120.49028879 -69.27914839 124.1068323 -60 124 C-49.32381154 123.2533023 -39.57418837 118.57418837 -32 111 C-28.04739752 105.92052165 -24.84477037 100.76945839 -22 95 C-16.45961818 96.49562605 -10.92404794 98.00753824 -5.39233398 99.53491211 C-3.50880947 100.05247104 -1.62403685 100.56550947 0.26196289 101.07397461 C2.96839671 101.80446279 5.66996603 102.55094451 8.37109375 103.30078125 C9.21900986 103.52590897 10.06692596 103.75103668 10.9405365 103.98298645 C12.98952341 104.56036707 15.00064102 105.26905582 17 106 C18.31599903 109.94799708 17.06930265 112.26452485 15.5625 115.9375 C15.15197388 116.93958496 15.15197388 116.93958496 14.7331543 117.96191406 C6.89089597 136.35912024 -6.47687131 148.58166128 -24.46484375 156.53125 C-32.92386334 159.92670244 -40.8482076 162.38943797 -50 162 C-50 162.66 -50 163.32 -50 164 C-48.7625 164.20625 -47.525 164.4125 -46.25 164.625 C-25.91900373 169.29477571 -11.02337686 186.27890012 -0.27197266 203.18139648 C0.48140381 204.39098022 0.48140381 204.39098022 1.25 205.625 C1.74064941 206.4075415 2.23129883 207.19008301 2.73681641 207.99633789 C3.17944824 208.73231201 3.62208008 209.46828613 4.078125 210.2265625 C4.67222168 211.21003662 4.67222168 211.21003662 5.27832031 212.21337891 C6 214 6 214 5 217 C2.61767578 218.46704102 2.61767578 218.46704102 -0.5546875 220.00390625 C-1.71621338 220.57399414 -2.87773926 221.14408203 -4.07446289 221.73144531 C-4.69370636 222.02974243 -5.31294983 222.32803955 -5.95095825 222.63537598 C-8.55071154 223.88810021 -11.13944729 225.16282295 -13.72883606 226.4367981 C-15.0271334 227.07545111 -16.32595249 227.71304457 -17.62528992 228.34957886 C-22.48439487 230.73267116 -27.28916082 233.20036708 -32.0625 235.75 C-38.11854423 238.9761558 -44.20415649 242.1398851 -50.3125 245.265625 C-51.06145538 245.64894989 -51.81041077 246.03227478 -52.58206177 246.42721558 C-54.12878406 247.21879092 -55.67550647 248.01036603 -57.222229 248.80194092 C-69.94247617 255.31383961 -82.60498635 261.88136301 -95 269 C-89.09736075 277.13824376 -82.83814562 283.91950871 -73 287 C-60.68891016 288.41923669 -49.52686733 287.15659946 -39.25 279.875 C-32.81547063 274.4480126 -28.7722068 268.33761718 -26.08396912 260.38136292 C-23.09769071 252.2689412 -23.09769071 252.2689412 -19.28161621 249.96051025 C-14.34556738 248.07639985 -9.15752745 247.60385637 -3.9375 247.0625 C-2.38129813 246.84796889 -0.82592838 246.62730841 0.72851562 246.40039062 C6.82713733 245.5470914 12.82647669 244.87949129 19 245 C18.52383113 265.43197317 8.96641761 282.59975086 -5 297 C-24.25811541 315.04117289 -53.41011204 327.69862048 -79.98120117 326.9765625 C-100.05324451 325.9667705 -117.5250166 318.0720557 -131.40234375 303.47265625 C-147.80111101 284.38280924 -155.3173835 261.53849759 -154.19970703 236.53808594 C-152.54549273 215.5145996 -142.32306948 196.20615147 -126.58349609 182.31738281 C-116.00118347 173.51347302 -99.24547341 162.16203098 -85 163 C-85 162.34 -85 161.68 -85 161 C-86.0725 160.938125 -87.145 160.87625 -88.25 160.8125 C-102.52791322 158.99622835 -115.03083133 149.7836173 -125 140 C-125.62777344 139.39671875 -126.25554687 138.7934375 -126.90234375 138.171875 C-141.1329778 123.32812974 -145.72715686 101.80839466 -146.25 81.875 C-145.63755716 60.33142242 -137.88110175 42.4340947 -122.52539062 27.40039062 C-109.27032962 15.2315318 -91.91253405 8.02623893 -74 7 C-72.7934375 6.92072266 -72.7934375 6.92072266 -71.5625 6.83984375 C-59.42758212 6.42451174 -47.87185164 9.13583848 -36.8671875 14.109375 C-32.40767811 15.4946177 -29.15224519 14.53081479 -24.96386719 12.60131836 C-23.91875977 12.02003174 -22.87365234 11.43874512 -21.796875 10.83984375 C-20.07984375 9.8972168 -20.07984375 9.8972168 -18.328125 8.93554688 C-17.13509183 8.27011331 -15.94238692 7.60409089 -14.75 6.9375 C-12.39351841 5.62872984 -10.03342472 4.32699753 -7.671875 3.02734375 C-6.11098145 2.15710571 -6.11098145 2.15710571 -4.51855469 1.26928711 C-2 0 -2 0 0 0 Z M-104 208 C-109.97083724 216.23923392 -111.81596569 222.88202548 -111 233 C-110.23182741 236.10841931 -109.22613778 239.04413213 -108 242 C-102.97801013 240.51142266 -98.64186829 238.35329364 -94.0625 235.875 C-92.40179227 234.98817628 -90.74026889 234.10287904 -89.078125 233.21875 C-88.14033203 232.71988281 -87.20253906 232.22101563 -86.23632812 231.70703125 C-79.61914923 228.21673894 -72.96304206 224.80116055 -66.3125 221.375 C-64.89524739 220.64440008 -63.47801074 219.91376919 -62.06079102 219.18310547 C-58.70760851 217.45459809 -55.35394825 215.72702104 -52 214 C-56.78579967 206.59031832 -63.35255132 201.17814616 -71.8828125 198.4375 C-83.43940185 196.0494225 -95.71147718 199.45811622 -104 208 Z " fill="#CC9752" transform="translate(1260,221)"/>
<path d="M0 0 C16.08294859 -0.04537684 32.16584141 -0.08212179 48.24883652 -0.10362434 C55.71864892 -0.11387954 63.18841834 -0.1278278 70.65820312 -0.15087891 C77.17882834 -0.17099117 83.69942238 -0.18375809 90.22007775 -0.18817699 C93.66366203 -0.19075463 97.10715724 -0.1966884 100.55071259 -0.21146011 C157.73309297 -0.42928259 157.73309297 -0.42928259 176.71484375 17.58984375 C189.72006157 31.3064581 192.52156098 46.10308927 192.26953125 64.30078125 C191.8879479 75.85918532 187.67017861 84.40831584 180 93 C175.11881144 97.51216399 169.76689498 100.76354863 164 104 C164.94359375 104.44988281 165.8871875 104.89976562 166.859375 105.36328125 C181.50383114 112.59638915 193.17432626 121.84609482 198.8125 137.75 C203.74777953 153.42325137 202.17321147 172.14187667 194.875 186.6875 C186.07635313 202.01119382 172.94275631 212.15512408 156.125 217.1875 C141.94170105 220.99839723 127.82618064 222.15975556 113.18481445 222.11352539 C111.33898018 222.11374443 111.33898018 222.11374443 109.45585632 222.1139679 C106.11774626 222.11339512 102.77969986 222.10841802 99.44160104 222.10139394 C95.93960019 222.09509588 92.43759829 222.09455154 88.93559265 222.09336853 C82.32024827 222.09027409 75.70492062 222.08208642 69.08958358 222.07201904 C61.55138476 222.06079894 54.0131851 222.05533266 46.47498 222.05032361 C30.98331034 222.03990201 15.49165734 222.02233952 0 222 C4.36720251 214.2998224 4.36720251 214.2998224 6.6640625 211.30859375 C7.14746094 210.67244141 7.63085938 210.03628906 8.12890625 209.38085938 C8.62261719 208.73955078 9.11632812 208.09824219 9.625 207.4375 C11.12502706 205.4792455 12.60960904 203.52208681 14.04119873 201.51295471 C16 199 16 199 18.48345947 196.66477966 C29.46234005 184.85884661 27.38341429 168.99206847 27.21586847 153.89690828 C27.18119475 149.81428021 27.20363545 145.73194835 27.21969604 141.64926147 C27.2415124 133.93926607 27.2128879 126.23033939 27.165573 118.52049196 C27.11415089 109.73429248 27.11982272 100.94840947 27.12999368 92.16209912 C27.14962979 74.10753437 27.09099918 56.05436949 27 38 C18.09 38 9.18 38 0 38 C0 25.46 0 12.92 0 0 Z M86 38 C86 54.17 86 70.34 86 87 C107.62285373 88.66755266 107.62285373 88.66755266 127.25 81.19921875 C132.73942737 75.4995109 134.05896238 69.83440306 134.3125 62.0625 C134.17568676 55.97431088 133.55984372 51.04545093 129.55859375 46.28515625 C118.07133144 35.38425072 100.3954719 38 86 38 Z M86 126 C86 145.14 86 164.28 86 184 C110.86049533 185.50412189 110.86049533 185.50412189 133.78125 176.53515625 C139.40613573 170.67590028 141.10561341 163.44690439 141.375 155.5 C141.13097587 147.65795171 139.19251225 140.03454127 134 134 C120.80861614 122.82086114 101.72103864 126 86 126 Z " fill="#CC9752" transform="translate(774,382)"/>
<path d="M0 0 C24.75 0 49.5 0 75 0 C74.90404541 8.28508667 74.90404541 8.28508667 74.80615234 16.73754883 C74.6071302 35.07364483 74.50777301 53.40930833 74.45853233 71.74638844 C74.42630955 82.85462695 74.36106317 93.9607438 74.21484375 105.06811523 C74.08731103 114.76260913 74.02502705 124.45508843 74.03737414 134.15044802 C74.04171737 139.27336988 74.01593266 144.3916931 73.91166306 149.51365089 C73.42210625 174.77982638 75.1669215 192.08178362 92.01427078 211.68306541 C98 218.66717126 98 218.66717126 98 222 C73.58 222 49.16 222 24 222 C23.505 214.575 23.505 214.575 23 207 C20.958125 208.7634375 20.958125 208.7634375 18.875 210.5625 C5.88795857 220.94844364 -8.79951088 225.79734498 -25.4921875 224.7890625 C-42.4601616 222.78616133 -57.05109458 215.24709151 -68 202 C-83.97036227 179.72767353 -89.59059146 154.99591881 -86.3125 127.8125 C-82.80141613 106.69723173 -72.31335435 86.97788505 -55 74 C-39.9608398 64.22341169 -23.65684402 61.0249938 -6.109375 64.25390625 C5.21982441 66.9723448 14.7866872 72.7866872 23 81 C23.33 66.15 23.66 51.3 24 36 C16.08 36 8.16 36 0 36 C0 24.12 0 12.24 0 0 Z M-26.46875 112.94921875 C-35.95459824 125.65347979 -36.87079004 141.8744891 -34.6953125 157.13769531 C-32.62038514 167.2741389 -27.57260851 175.97801391 -19.00390625 181.84765625 C-13.01369236 185.29232116 -6.37258239 186.01878195 0.296875 184.46484375 C8.74103397 181.87209024 14.99209899 177.29305973 20 170 C26.79509416 155.75486284 27.14107384 137.85633504 22 123 C18.0725838 113.77122002 11.7146033 108.34706921 2.5 104.5625 C-8.64789992 102.77087323 -18.56583208 104.24482567 -26.46875 112.94921875 Z " fill="#CC9752" transform="translate(1570,382)"/>
<path d="M0 0 C9.35601458 7.71202916 9.35601458 7.71202916 11 11 C15.60789542 9.58862017 19.83289133 7.70993663 24.11328125 5.5234375 C24.76830124 5.19332672 25.42332123 4.86321594 26.09819031 4.52310181 C28.17158633 3.47755966 30.24219998 2.42665747 32.3125 1.375 C34.4010125 0.31694195 36.490101 -0.7399374 38.58036804 -1.79452515 C39.87689697 -2.44892923 41.17235075 -3.10546854 42.46662903 -3.76431274 C46.88831564 -6 46.88831564 -6 48 -6 C48 16.11 48 38.22 48 61 C35.79 61 23.58 61 11 61 C9.68 56.71 8.36 52.42 7 48 C2.21219245 38.81258552 -3.4692773 33.91429527 -13.3671875 30.69140625 C-20.11445785 28.91949697 -25.75472818 30.24645614 -32 33 C-35.5088189 35.31432736 -37.41069368 37.14124753 -39 41 C-39.80190497 46.56671241 -39.57758935 51.69765126 -36.359375 56.42578125 C-31.8070071 61.69763258 -25.91829715 64.64772315 -19.75 67.69140625 C-19.05130798 68.03852661 -18.35261597 68.38564697 -17.63275146 68.74328613 C-12.65627434 71.20633349 -7.65414515 73.61344218 -2.640625 76 C-1.94990906 76.3296022 -1.25919312 76.65920441 -0.54754639 76.99879456 C3.65997511 79.00679022 3.65997511 79.00679022 7.87451172 81 C28.89224801 90.90663382 47.75249811 103.16076399 56 126 C61.4534494 143.60872819 60.75438691 164.64677516 53.2734375 181.60546875 C45.54057976 196.14608776 33.34620959 205.59933694 18 211 C0.30965421 216.10892823 -17.91231463 215.46599936 -34.3046875 206.6796875 C-39.91898319 203.18092352 -44.3506368 198.65056272 -49 194 C-50.52923096 194.7724707 -50.52923096 194.7724707 -52.08935547 195.56054688 C-55.86304828 197.46545826 -59.63936327 199.36511915 -63.41650391 201.26318359 C-65.05264441 202.08629062 -66.68806488 202.91083051 -68.32275391 203.73681641 C-70.66903023 204.92204878 -73.01782585 206.1021477 -75.3671875 207.28125 C-76.10057343 207.65310425 -76.83395935 208.0249585 -77.58956909 208.40808105 C-82.77225659 211 -82.77225659 211 -85 211 C-85 186.58 -85 162.16 -85 137 C-72.46 137 -59.92 137 -47 137 C-46.34 141.62 -45.68 146.24 -45 151 C-43.77360133 154.34087913 -42.71777036 156.98636779 -41 160 C-40.66355469 160.62390625 -40.32710937 161.2478125 -39.98046875 161.890625 C-35.96357932 168.41984457 -29.37068471 171.72146442 -22.375 174.375 C-14.32165822 175.86635959 -8.16220257 175.09610916 -1 171 C3.66634793 166.94815056 6.59854379 162.38436919 7.3359375 156.16796875 C7.43756525 148.41377143 6.59725823 143.30279782 1.5859375 137.30859375 C-7.73924084 128.13244794 -21.40313774 122.75097352 -33 117.0625 C-54.4966632 106.47580529 -76.23187048 94.53108242 -85 71 C-89.56681364 55.79185507 -87.95113021 37.06891514 -81.4375 22.75 C-73.43875189 8.11189693 -60.56446 -0.76412384 -45 -6 C-30.2626101 -9.92451992 -12.64653975 -9.30294021 0 0 Z " fill="#CC9752" transform="translate(861,119)"/>
<path d="M0 0 C11.86167853 8.68987438 16.64471519 22.17283391 18.86344147 36.20071793 C19.56890823 41.89654459 19.36556943 47.63634533 19.23003769 53.36203575 C19.17803489 55.77593057 19.15521576 58.18858259 19.14065552 60.60298157 C19.09909932 67.45543268 19.04638405 74.30622553 18.88183594 81.15698242 C18.05171031 108.81306033 18.05171031 108.81306033 31.45433044 132.35215759 C34.28339904 135.6717507 36.57383024 139.34277638 38.9375 143 C39.75564657 144.21282277 40.574572 145.42512076 41.39453125 146.63671875 C43.125 149.3125 43.125 149.3125 43.125 150.3125 C18.705 150.3125 -5.715 150.3125 -30.875 150.3125 C-30.91238281 143.0421875 -30.94976563 135.771875 -30.98828125 128.28125 C-31.01856516 123.66924734 -31.04971587 119.05728307 -31.08398438 114.4453125 C-31.1382676 107.12860059 -31.18937953 99.81196464 -31.22143555 92.49511719 C-31.24748734 86.59463429 -31.28790365 80.69440706 -31.33818626 74.79408264 C-31.35484217 72.54552903 -31.36636437 70.2969312 -31.37261391 68.04832458 C-31.38226861 64.89327332 -31.41034534 61.73887427 -31.44262695 58.58398438 C-31.44119186 57.65897125 -31.43975677 56.73395813 -31.4382782 55.78091431 C-31.52212298 49.9681477 -32.44006525 45.6138569 -34.875 40.3125 C-37.809309 37.46988816 -40.45914104 36.3410209 -44.58984375 36.2578125 C-52.86051029 36.71896482 -59.49508416 38.55742518 -66.875 42.3125 C-67.74118454 42.69771317 -68.60736908 43.08292633 -69.49980164 43.47981262 C-72.17233892 45.13394602 -72.17233892 45.13394602 -72.51423645 48.29277039 C-72.52089828 49.51188614 -72.52756012 50.73100189 -72.53442383 51.98706055 C-72.54490753 52.660495 -72.55539124 53.33392944 -72.56619263 54.027771 C-72.59497748 56.25205365 -72.58864817 58.47478298 -72.58203125 60.69921875 C-72.59514442 62.24194798 -72.61044749 63.78466003 -72.62785339 65.3273468 C-72.66776187 69.38641383 -72.6778975 73.44503237 -72.68188477 77.50427246 C-72.69120535 81.64686744 -72.72861199 85.78919767 -72.76367188 89.93164062 C-72.82830741 98.05864353 -72.8589027 106.18525584 -72.875 114.3125 C-64.955 114.3125 -57.035 114.3125 -48.875 114.3125 C-48.875 126.1925 -48.875 138.0725 -48.875 150.3125 C-80.885 150.3125 -112.895 150.3125 -145.875 150.3125 C-145.875 138.4325 -145.875 126.5525 -145.875 114.3125 C-138.285 114.3125 -130.695 114.3125 -122.875 114.3125 C-122.875 87.2525 -122.875 60.1925 -122.875 32.3125 C-130.465 32.3125 -138.055 32.3125 -145.875 32.3125 C-145.875 20.1025 -145.875 7.8925 -145.875 -4.6875 C-121.785 -4.6875 -97.695 -4.6875 -72.875 -4.6875 C-72.38 1.7475 -72.38 1.7475 -71.875 8.3125 C-70.34875 7.28125 -68.8225 6.25 -67.25 5.1875 C-47.33906132 -7.46210408 -21.26708613 -12.78875029 0 0 Z " fill="#CC9752" transform="translate(1439.875,453.6875)"/>
<path d="M0 0 C9.61030464 9.21383993 15.19031238 19.92740761 15.5138855 33.40037537 C15.48743454 35.33772301 15.48743454 35.33772301 15.46044922 37.31420898 C15.444353 38.80178936 15.42865486 40.28937408 15.41329956 41.77696228 C15.40376125 42.55852125 15.39422295 43.34008022 15.3843956 44.1453228 C15.33231486 49.20923582 15.33861708 54.27350767 15.33303642 59.33764553 C15.32484751 63.76646493 15.29730604 68.19351817 15.22753906 72.62182617 C15.16084869 76.92839809 15.14923423 81.23218406 15.17279434 85.53917122 C15.17219068 87.16526748 15.15253899 88.79149021 15.11202621 90.41708183 C14.81636306 102.92575789 17.93526727 109.97029197 26.1426487 119.38603592 C27.85849118 121.39711777 29.35578637 123.53314481 30.83984375 125.71875 C31.29166016 126.37423828 31.74347656 127.02972656 32.20898438 127.70507812 C32.63244141 128.32447266 33.05589844 128.94386719 33.4921875 129.58203125 C33.95044922 130.24396484 34.40871094 130.90589844 34.88085938 131.58789062 C35.32107422 132.22919922 35.76128906 132.87050781 36.21484375 133.53125 C36.59519775 134.08514404 36.97555176 134.63903809 37.36743164 135.2097168 C38.51536585 137.0304233 39.46711541 138.96938707 40.4296875 140.89453125 C16.3396875 140.89453125 -7.7503125 140.89453125 -32.5703125 140.89453125 C-32.9003125 137.59453125 -33.2303125 134.29453125 -33.5703125 130.89453125 C-34.29734375 131.3534375 -35.024375 131.81234375 -35.7734375 132.28515625 C-52.12533244 142.26400496 -69.95938784 145.59961118 -88.9296875 142.24609375 C-102.8131989 138.87602978 -115.37230791 131.53425134 -123.23046875 119.3125 C-129.51413822 107.38635182 -130.59402528 93.90996164 -126.9453125 80.95703125 C-122.27935153 67.77203352 -112.92392309 58.09949437 -100.765625 51.3984375 C-80.71972082 41.9636293 -58.38537452 42.86365332 -37.8125 49.828125 C-36.04759811 50.47074607 -34.30408602 51.17212562 -32.5703125 51.89453125 C-33.53078328 37.07329187 -33.53078328 37.07329187 -41.4453125 25.08203125 C-50.09234227 19.02911041 -58.81371235 17.53047936 -69.19140625 19.35546875 C-76.23724972 21.22410118 -82.40367471 24.72789346 -87.5703125 29.89453125 C-90.01953125 29.79296875 -90.01953125 29.79296875 -93.2578125 29.26953125 C-94.4953125 29.07230469 -95.7328125 28.87507813 -97.0078125 28.671875 C-98.52883434 28.41386925 -100.04964699 28.15462893 -101.5703125 27.89453125 C-102.51519531 27.7361377 -103.46007813 27.57774414 -104.43359375 27.41455078 C-109.53782762 26.55762969 -114.63995207 25.68827828 -119.73828125 24.796875 C-120.59703857 24.64726318 -121.4557959 24.49765137 -122.34057617 24.34350586 C-124.5703125 23.89453125 -124.5703125 23.89453125 -127.5703125 22.89453125 C-126.14052452 17.17537932 -123.29731757 13.32348346 -119.5703125 8.89453125 C-118.73886719 7.90066406 -118.73886719 7.90066406 -117.890625 6.88671875 C-92.7753708 -20.59993285 -28.30789327 -23.18838066 0 0 Z M-79.4765625 84.2109375 C-82.02741687 88.13743119 -82.22397209 92.37971967 -81.5703125 96.89453125 C-79.48214719 103.31515169 -76.65017797 107.87241057 -70.60546875 111.05859375 C-64.38362452 113.61420731 -58.75480386 113.14430752 -52.5703125 110.89453125 C-48.37015472 108.8387812 -44.46797979 106.47363721 -40.5703125 103.89453125 C-39.73113281 103.35699219 -38.89195313 102.81945312 -38.02734375 102.265625 C-34.78370097 99.88312632 -32.93911997 98.12688792 -31.76953125 94.21875 C-31.48570644 91.08820473 -31.60976286 88.88945253 -32.5703125 85.89453125 C-35.09800738 82.91009942 -38.04301626 81.4947431 -41.5703125 79.89453125 C-42.59511719 79.40984375 -43.61992188 78.92515625 -44.67578125 78.42578125 C-57.60159161 72.86629292 -70.14070428 72.56704767 -79.4765625 84.2109375 Z " fill="#CC9752" transform="translate(1522.5703125,189.10546875)"/>
<path d="M0 0 C16.07812758 14.76603618 25.00430939 32.03814803 26.2512207 54.08032227 C27.20649046 76.54826684 22.98036188 97.62498932 7.88012695 115.06469727 C-7.75780581 131.6621715 -27.47119721 139.90431774 -50.08154297 140.91650391 C-72.65250385 141.45719832 -92.72947433 134.96258429 -109.86987305 119.93969727 C-110.56983398 119.33512695 -111.26979492 118.73055664 -111.9909668 118.10766602 C-125.28881658 105.79484214 -132.05338392 87.48591359 -132.9909668 69.6340332 C-133.84562348 47.3531335 -130.63404804 25.03333634 -115.1394043 7.83422852 C-86.46085383 -22.65147642 -32.48516368 -28.58951477 0 0 Z M-73.86987305 27.93969727 C-83.44568203 41.98613997 -84.80724784 59.81499911 -81.74487305 76.18969727 C-79.4696258 85.54466733 -75.96856442 93.25614105 -67.8972168 98.81860352 C-61.03820675 102.61154356 -54.5910174 102.74047097 -46.86987305 101.93969727 C-39.45376788 99.78501806 -34.08790755 95.33986163 -29.86987305 88.93969727 C-22.5760796 75.38101541 -21.87313515 57.61965873 -25.86987305 42.93969727 C-29.93904415 32.72374201 -35.11652072 26.07619634 -44.86987305 20.93969727 C-47.33035761 20.03081664 -47.33035761 20.03081664 -49.86987305 19.93969727 C-51.66424805 19.78500977 -51.66424805 19.78500977 -53.49487305 19.62719727 C-60.65038153 19.72224197 -68.99765488 22.63757749 -73.86987305 27.93969727 Z " fill="#CC9752" transform="translate(1071.869873046875,193.060302734375)"/>
<path d="M0 0 C24.75 0 49.5 0 75 0 C74.95174072 5.53910156 74.90348145 11.07820313 74.85375977 16.78515625 C74.70476302 35.15731457 74.63847556 53.52909928 74.61396885 71.90182495 C74.59712847 83.03334533 74.55272554 94.16342613 74.44116211 105.29443359 C74.34388269 115.00750901 74.30063337 124.71914532 74.31963962 134.43271351 C74.3278674 139.56666754 74.31083112 144.69746935 74.22885323 149.83084106 C73.8798346 172.87580003 73.82986274 190.18230973 89.12576103 208.62561035 C97 218.60113205 97 218.60113205 97 222 C64.99 222 32.98 222 0 222 C0 210.12 0 198.24 0 186 C8.25 186 16.5 186 25 186 C25 136.5 25 87 25 36 C16.75 36 8.5 36 0 36 C0 24.12 0 12.24 0 0 Z " fill="#CC9752" transform="translate(996,382)"/>
<path d="M0 0 C24.09 0 48.18 0 73 0 C72.95117676 8.16617065 72.95117676 8.16617065 72.90136719 16.49731445 C72.80235984 34.53032199 72.76914865 52.56301392 72.76940536 70.5962801 C72.76796866 81.52477801 72.7444165 92.45236645 72.66748047 103.38061523 C72.60042367 112.91376061 72.57620687 122.44592525 72.60190511 131.9792878 C72.61403825 137.02039011 72.60575972 142.05946939 72.5460434 147.10027504 C71.44897586 175.76021625 71.44897586 175.76021625 84.51294708 200.28160667 C86.97706666 203.12906865 88.83011067 206.33512714 90.75 209.5625 C91.38421875 210.57441406 92.0184375 211.58632813 92.671875 212.62890625 C94 215 94 215 94 217 C62.98 217 31.96 217 0 217 C0 205.45 0 193.9 0 182 C7.92 182 15.84 182 24 182 C24 133.82 24 85.64 24 36 C16.08 36 8.16 36 0 36 C0 24.12 0 12.24 0 0 Z " fill="#CC9752" transform="translate(1574,113)"/>
<path d="M0 0 C23.43 0 46.86 0 71 0 C70.94457031 8.17652344 70.88914062 16.35304687 70.83203125 24.77734375 C70.82006712 30.6500101 70.81506958 36.52236254 70.82004642 42.39500523 C70.8255584 49.98282167 70.81520166 57.56946513 70.74291992 65.15698242 C70.67953653 71.81660359 70.67472856 78.47401046 70.70416832 85.13397408 C70.70605809 87.66266299 70.68898091 90.19144612 70.65177345 92.71986198 C70.43703323 108.31722658 71.55455721 119.15893082 81.70783234 131.40928841 C83.48945725 133.60254203 84.98387634 135.95017737 86.48046875 138.34375 C87.86079062 140.46346107 89.24166261 142.58275047 90.62695312 144.69921875 C94 149.88777282 94 149.88777282 94 151 C62.98 151 31.96 151 0 151 C0 139.45 0 127.9 0 116 C7.26 116 14.52 116 22 116 C22 89.6 22 63.2 22 36 C14.74 36 7.48 36 0 36 C0 24.12 0 12.24 0 0 Z " fill="#CC9752" transform="translate(1293,179)"/>
<path d="M0 0 C32.67 0 65.34 0 99 0 C99 11.55 99 23.1 99 35 C66.33 35 33.66 35 0 35 C0 23.45 0 11.9 0 0 Z " fill="#CC9752" transform="translate(1144,569)"/>
<path d="M0 0 C6.9361785 4.65635887 10.94548084 10.15917338 12.9609375 18.31640625 C14.13356804 26.77868852 12.57199007 34.43306572 7.453125 41.35546875 C2.53462109 46.73150791 -2.93173378 49.82209994 -10.1875 50.6953125 C-18.83061003 51.0075927 -24.60188916 49.14006201 -31.7890625 44.56640625 C-38.37395998 37.98150877 -40.37871162 31.41978889 -40.42407227 22.22485352 C-40.26420337 15.02729654 -38.17290073 9.8149905 -33.39453125 4.48046875 C-24.34517311 -3.8947837 -11.10254053 -5.92273073 0 0 Z " fill="#CC9752" transform="translate(1354.0390625,112.68359375)"/>
</svg>
