<?xml version="1.0" encoding="UTF-8"?>
<svg version="1.1" xmlns="http://www.w3.org/2000/svg" width="320" height="320">
<path d="M0 0 C105.6 0 211.2 0 320 0 C320 105.6 320 211.2 320 320 C214.4 320 108.8 320 0 320 C0 214.4 0 108.8 0 0 Z " fill="#FCFCFC" transform="translate(0,0)"/>
<path d="M0 0 C0.93054199 0.22598877 0.93054199 0.22598877 1.87988281 0.45654297 C35.38368315 8.82847195 62.66520577 28.43490888 82 57 C82.64839844 57.95261719 83.29679688 58.90523437 83.96484375 59.88671875 C92.4650549 73.39839225 97.69476485 89.26343609 100 105 C100.18175781 106.03511719 100.36351562 107.07023437 100.55078125 108.13671875 C102.3164574 123.32153366 101.86379135 139.19918634 98 154 C97.83371094 154.67256836 97.66742188 155.34513672 97.49609375 156.03808594 C91.99152891 178.06653895 81.09908835 196.18587044 66 213 C65.27039063 213.8146875 64.54078125 214.629375 63.7890625 215.46875 C46.44629138 233.77859015 22.3769364 244.91842844 -2 250 C-2.82677246 250.17732666 -3.65354492 250.35465332 -4.50537109 250.53735352 C-35.9270479 256.82676325 -69.17176183 249.1727234 -95.80078125 231.89453125 C-101.97045433 227.73332836 -107.54471207 223.04927868 -113 218 C-114.32064453 216.80117188 -114.32064453 216.80117188 -115.66796875 215.578125 C-138.23775636 194.16307071 -152.06254329 162.43767473 -153.33984375 131.49609375 C-153.62544186 119.03732804 -152.94355478 107.11531776 -150 95 C-149.70996094 93.79472656 -149.41992188 92.58945313 -149.12109375 91.34765625 C-140.90669495 60.24292439 -120.37527078 34.85257507 -94 17 C-93.04738281 16.35160156 -92.09476563 15.70320313 -91.11328125 15.03515625 C-65.346344 -1.17485705 -29.62168619 -7.27216203 0 0 Z " fill="#FCFBFB" transform="translate(186,35)"/>
<path d="M0 0 C0.93054199 0.22598877 0.93054199 0.22598877 1.87988281 0.45654297 C35.38368315 8.82847195 62.66520577 28.43490888 82 57 C82.64839844 57.95261719 83.29679688 58.90523437 83.96484375 59.88671875 C92.4650549 73.39839225 97.69476485 89.26343609 100 105 C100.18175781 106.03511719 100.36351562 107.07023437 100.55078125 108.13671875 C102.3164574 123.32153366 101.86379135 139.19918634 98 154 C97.83371094 154.67256836 97.66742188 155.34513672 97.49609375 156.03808594 C91.99152891 178.06653895 81.09908835 196.18587044 66 213 C65.27039063 213.8146875 64.54078125 214.629375 63.7890625 215.46875 C46.44629138 233.77859015 22.3769364 244.91842844 -2 250 C-2.82677246 250.17732666 -3.65354492 250.35465332 -4.50537109 250.53735352 C-35.9270479 256.82676325 -69.17176183 249.1727234 -95.80078125 231.89453125 C-101.97045433 227.73332836 -107.54471207 223.04927868 -113 218 C-114.32064453 216.80117188 -114.32064453 216.80117188 -115.66796875 215.578125 C-138.23775636 194.16307071 -152.06254329 162.43767473 -153.33984375 131.49609375 C-153.62544186 119.03732804 -152.94355478 107.11531776 -150 95 C-149.70996094 93.79472656 -149.41992188 92.58945313 -149.12109375 91.34765625 C-140.90669495 60.24292439 -120.37527078 34.85257507 -94 17 C-93.04738281 16.35160156 -92.09476563 15.70320313 -91.11328125 15.03515625 C-65.346344 -1.17485705 -29.62168619 -7.27216203 0 0 Z M-106 30 C-106.89332031 30.74121094 -107.78664062 31.48242188 -108.70703125 32.24609375 C-114.90565175 37.58776211 -120.04489461 43.50165354 -125 50 C-125.59425781 50.76699219 -126.18851563 51.53398438 -126.80078125 52.32421875 C-145.44882703 77.57410143 -153.35236053 109.68461412 -149.66748047 140.80859375 C-148.77762509 146.29414487 -147.45973968 151.64197337 -146 157 C-145.71125 158.15371094 -145.4225 159.30742187 -145.125 160.49609375 C-140.54844301 177.18826811 -131.10437296 192.88426892 -120 206 C-119.33742188 206.78632813 -118.67484375 207.57265625 -117.9921875 208.3828125 C-97.34496931 232.26881002 -67.23982014 246.41629865 -36 249 C-2.25262148 251.41869249 29.24769817 240.90273093 55 219 C55.70898438 218.41347656 56.41796875 217.82695312 57.1484375 217.22265625 C75.3428207 201.85153941 88.12113054 179.9200814 94 157 C94.29197266 155.93821533 94.29197266 155.93821533 94.58984375 154.85498047 C103.18683786 123.17112391 97.33043369 90.12435111 81.31640625 61.8359375 C73.05917547 47.85789764 61.99940141 35.68219664 49 26 C48.1946582 25.39889404 48.1946582 25.39889404 47.37304688 24.78564453 C32.54995924 13.88956892 16.05666991 6.51658657 -2 3 C-3.23036987 2.7383606 -3.23036987 2.7383606 -4.4855957 2.47143555 C-40.52300354 -4.79544657 -78.22444382 6.60029913 -106 30 Z " fill="#C84D52" transform="translate(186,35)"/>
<path d="M0 0 C3.5 1.5 3.5 1.5 6 4 C6.91463297 8.22138296 6.98943827 10.35093622 4.76953125 14.05078125 C-1.73668791 22.00969543 -10.49183379 27.35857464 -20 31 C-21.010625 31.391875 -22.02125 31.78375 -23.0625 32.1875 C-26.69778362 33.19300398 -30.25101274 33.71866239 -34 34 C-34.79019531 34.06574219 -35.58039063 34.13148438 -36.39453125 34.19921875 C-46.66990064 34.64597394 -59.34431256 32.69974925 -67.31640625 25.79296875 C-70.49560979 22.40722763 -73.3104366 18.78219853 -76 15 C-75.67 14.34 -75.34 13.68 -75 13 C-74.53851563 13.44730469 -74.07703125 13.89460937 -73.6015625 14.35546875 C-66.44873918 20.98525953 -60.03383667 25.23557093 -50.0625 25.5625 C-35.03392918 24.95874634 -25.98590395 17.39305454 -16 7 C-11.01030286 1.86810942 -7.52784882 -1.1057857 0 0 Z " fill="#DD2129" transform="translate(205,116)"/>
<path d="M0 0 C8.25 0 16.5 0 25 0 C26.27491216 2.54982433 26.02596616 4.16465424 25.87890625 7.0078125 C25.83056641 7.99394531 25.78222656 8.98007812 25.73242188 9.99609375 C25.67634766 11.02863281 25.62027344 12.06117187 25.5625 13.125 C25.51029297 14.16527344 25.45808594 15.20554687 25.40429688 16.27734375 C25.27439054 18.85185116 25.13941748 21.42599296 25 24 C20.69784837 25.43405054 16.44615973 25.41015146 11.9375 25.625 C11.01388672 25.6765625 10.09027344 25.728125 9.13867188 25.78125 C8.25630859 25.82507813 7.37394531 25.86890625 6.46484375 25.9140625 C5.656521 25.9548291 4.84819824 25.9955957 4.01538086 26.03759766 C2 26 2 26 0 25 C0 16.75 0 8.5 0 0 Z " fill="#CAEFDF" transform="translate(148,54)"/>
<path d="M0 0 C1.41377341 2.63904371 2.37240135 5.07120629 3 8 C3.66 8 4.32 8 5 8 C6.62950412 12.12168689 7.26264601 14.70700357 6 19 C6.66 19.33 7.32 19.66 8 20 C8 20.66 8 21.32 8 22 C8.99 22.33 9.98 22.66 11 23 C4.75795346 30.23343041 -3.33010818 36.36718525 -13 38 C-15.35203736 38.11801354 -17.70753638 38.17511849 -20.0625 38.1875 C-21.90521484 38.20876953 -21.90521484 38.20876953 -23.78515625 38.23046875 C-27 38 -27 38 -30 36 C-26.04 36 -22.08 36 -18 36 C-18.66 34.35 -19.32 32.7 -20 31 C-20.125 28.4375 -20.125 28.4375 -20 26 C-20 24.68 -20 23.36 -20 22 C-19.625 18.8125 -19.625 18.8125 -19 16 C-18.34 15.67 -17.68 15.34 -17 15 C-16.34786708 12.97536745 -16.34786708 12.97536745 -16 11 C-15.34 11 -14.68 11 -14 11 C-13.67 14.3 -13.34 17.6 -13 21 C-8.29455294 20.13419443 -8.29455294 20.13419443 -4.75 17.375 C-3.71056985 14.08347118 -4.49983688 11.37610108 -5 8 C-4.34 7.34 -3.68 6.68 -3 6 C-2.67 6.99 -2.34 7.98 -2 9 C-1.7834375 7.88625 -1.7834375 7.88625 -1.5625 6.75 C-1.09812508 4.47972261 -0.58136431 2.24240521 0 0 Z M6 22 C6.66 22.66 7.32 23.32 8 24 C8 23.34 8 22.68 8 22 C7.34 22 6.68 22 6 22 Z " fill="#F4F0EF" transform="translate(175,104)"/>
<path d="M0 0 C1.65 0 3.3 0 5 0 C4.38516675 2.733765 3.57072617 5.14174118 2.37109375 7.671875 C2.05849609 8.33574219 1.74589844 8.99960938 1.42382812 9.68359375 C1.09833984 10.36550781 0.77285156 11.04742187 0.4375 11.75 C0.10814453 12.44738281 -0.22121094 13.14476562 -0.56054688 13.86328125 C-1.37047712 15.5770467 -2.18480638 17.28873194 -3 19 C-2.63648438 18.50628906 -2.27296875 18.01257813 -1.8984375 17.50390625 C2.25900515 12.2058319 2.25900515 12.2058319 6.375 11.0625 C7.24125 11.041875 8.1075 11.02125 9 11 C8.62902713 15.35893123 7.81743475 18.65920124 5.9375 22.625 C4.38271686 25.90856727 3.52235874 28.29828022 4 32 C5.98 32.33 7.96 32.66 10 33 C9.67 33.66 9.34 34.32 9 35 C7.54257537 35.08096803 6.08387193 35.13917774 4.625 35.1875 C3.81289062 35.22230469 3.00078125 35.25710937 2.1640625 35.29296875 C1.44992188 35.19628906 0.73578125 35.09960938 0 35 C-2.12405051 31.81392423 -2.25298796 30.77521737 -1.625 27.1171875 C-0.35650728 22.8201684 1.86290041 18.91933024 4 15 C3.34 15 2.68 15 2 15 C1.7525 15.556875 1.505 16.11375 1.25 16.6875 C-0.22043954 19.40781314 -2.05477236 21.59707174 -4 24 C-4.639375 25.093125 -5.27875 26.18625 -5.9375 27.3125 C-8 30 -8 30 -10.75 30.375 C-11.4925 30.25125 -12.235 30.1275 -13 30 C-11.30127772 24.40529509 -8.9190103 19.18445711 -6.5 13.875 C-6.09652344 12.98167969 -5.69304687 12.08835938 -5.27734375 11.16796875 C-3.5765937 7.41284734 -1.86344984 3.67769622 0 0 Z " fill="#3E3D3E" transform="translate(214,146)"/>
<path d="M0 0 C0.33 1.65 0.66 3.3 1 5 C-2.75 8 -2.75 8 -5 8 C-4.67 6.02 -4.34 4.04 -4 2 C-5.65 2.66 -7.3 3.32 -9 4 C-9.24902921 6.9375282 -9.3321904 8.50893593 -7.65234375 10.9921875 C-6.80349609 11.92417969 -6.80349609 11.92417969 -5.9375 12.875 C-3.59623661 15.8406003 -3.02439931 16.71696804 -2.6875 20.625 C-4.463173 25.19101628 -6.55931694 27.8298575 -11 30 C-14.73915875 30.58118974 -18.26634414 30.64394728 -22 30 C-24 28 -24 28 -24.4375 24.625 C-24 21 -24 21 -21.75 18.5 C-19 17 -19 17 -16.6875 17.25 C-16.130625 17.4975 -15.57375 17.745 -15 18 C-15.495 18.556875 -15.99 19.11375 -16.5 19.6875 C-18.24754367 22.38162983 -18.26218749 23.85375007 -18 27 C-15.08365871 27.2502157 -15.08365871 27.2502157 -12 27 C-9.61686362 23.42529543 -9.35162082 22.21446465 -10 18 C-11.34068901 16.21337148 -11.34068901 16.21337148 -13 14.5 C-15.23531354 12.0837325 -15.95768344 11.17631901 -16.75 7.875 C-15.90521413 4.63665417 -14.68484788 2.92243362 -12 0.90234375 C-8.16590651 -0.8274914 -4.10715009 -0.36526038 0 0 Z " fill="#3E3E3E" transform="translate(77,146)"/>
<path d="M0 0 C2.43119623 1.87015094 3.64069173 3.28138345 5 6 C5.48153012 10.2535161 5.44716755 12.3220363 3.0625 15.9375 C-0.52477326 18.35341873 -2.65705773 18.74567801 -6.90625 18.4765625 C-9 18 -9 18 -11.5625 16 C-13.40472331 12.15536004 -13.95271277 9.18181888 -13 5 C-9.34058275 -0.48912588 -6.15377764 -0.87911109 0 0 Z " fill="#D54049" transform="translate(141,248)"/>
<path d="M0 0 C4.62604653 0.89274582 6.53338372 2.06733665 9.5625 5.6875 C10.49505974 10.39981513 10.23652716 13.67645926 7.5625 17.6875 C3.50679087 19.03940304 -0.20820926 19.48908037 -4.4375 18.6875 C-7.31132195 15.74358484 -8.2466864 13.70517255 -9 9.6875 C-7.97995185 4.24724322 -5.47575649 1.0951513 0 0 Z " fill="#D53C44" transform="translate(182.4375,247.3125)"/>
<path d="M0 0 C2.75329021 1.79562405 4.52627461 3.05254922 6 6 C6.68825162 13.1119334 6.68825162 13.1119334 4.0625 16.5 C-0.0578126 18.5181123 -3.49675248 18.94937868 -8 18 C-10.71195062 15.88335562 -11.70009046 14.43033781 -12.40625 11.0625 C-12.70728149 7.08888431 -12.24292204 5.35334115 -9.9375 2 C-6.23727467 -0.51930235 -4.3968344 -0.7066341 0 0 Z " fill="#D6404D" transform="translate(163,248)"/>
<path d="M0 0 C1.65 0 3.3 0 5 0 C3.33333333 5 1.66666667 10 0 15 C4.31630774 11.19149317 6.79179388 7.09867367 9.47265625 2.01171875 C9.97667969 1.34785156 10.48070312 0.68398437 11 0 C12.32 0 13.64 0 15 0 C14.03029439 5.8286606 11.52371138 10.70156293 9 16 C8.28070313 17.58748047 8.28070313 17.58748047 7.546875 19.20703125 C2.5774146 29.81290594 2.5774146 29.81290594 -3 33 C-6.875 33.3125 -6.875 33.3125 -10 33 C-10.33 32.34 -10.66 31.68 -11 31 C-9.96875 30.855625 -8.9375 30.71125 -7.875 30.5625 C-3.32484973 29.2888271 -1.65753694 26.25284727 0.73828125 22.38671875 C2.01291249 19.9755742 3.03849153 17.55048021 4 15 C3.278125 15.66 2.55625 16.32 1.8125 17 C-1.21597933 19.1535853 -2.39703406 19.41176754 -6 19 C-5.52877252 12.0886636 -2.79363994 6.27795839 0 0 Z " fill="#373737" transform="translate(252,157)"/>
<path d="M0 0 C1.65 0 3.3 0 5 0 C4.37321829 3.66172475 3.35548154 6.8818995 1.9375 10.3125 C1.57527344 11.19550781 1.21304688 12.07851562 0.83984375 12.98828125 C0.56269531 13.65214844 0.28554687 14.31601563 0 15 C4.31630774 11.19149317 6.79179388 7.09867367 9.47265625 2.01171875 C9.97667969 1.34785156 10.48070312 0.68398437 11 0 C12.32 0 13.64 0 15 0 C13.02739148 6.19057451 10.81492864 12.21793394 8.25 18.1875 C7.940625 18.95513672 7.63125 19.72277344 7.3125 20.51367188 C4.99541974 25.87881604 2.12544668 29.9842396 -3 33 C-6.9375 33.375 -6.9375 33.375 -10 33 C-10.33 32.34 -10.66 31.68 -11 31 C-9.9275 30.773125 -8.855 30.54625 -7.75 30.3125 C-2.72763299 28.55467155 -1.15582163 26.38363216 1.12890625 21.671875 C2.12598506 19.46232057 3.08126092 17.24309169 4 15 C3.278125 15.66 2.55625 16.32 1.8125 17 C-1.21597933 19.1535853 -2.39703406 19.41176754 -6 19 C-5.57751401 13.93016815 -4.4024799 10.34418247 -1.9375 5.89453125 C-0.97255973 3.94454778 -0.45174771 2.1222731 0 0 Z " fill="#363636" transform="translate(160,157)"/>
<path d="M0 0 C9.24 0 18.48 0 28 0 C28 2.97 28 5.94 28 9 C27.01 9 26.02 9 25 9 C25 7.02 25 5.04 25 3 C24.01 3 23.02 3 22 3 C22 4.98 22 6.96 22 9 C18.33012779 10.22329074 15.66032178 9.88021006 11.8125 9.5625 C10.54019531 9.46066406 9.26789063 9.35882813 7.95703125 9.25390625 C6.98121094 9.17011719 6.00539063 9.08632812 5 9 C4.67 6.69 4.34 4.38 4 2 C3.67 4.31 3.34 6.62 3 9 C1.35 9 -0.3 9 -2 9 C-2.33 8.34 -2.66 7.68 -3 7 C-3.33 7.66 -3.66 8.32 -4 9 C-4.66 9 -5.32 9 -6 9 C-6 6.36 -6 3.72 -6 1 C-5.01 1 -4.02 1 -3 1 C-2.34 1.66 -1.68 2.32 -1 3 C-0.67 2.01 -0.34 1.02 0 0 Z " fill="#D49B9D" transform="translate(84,199)"/>
<path d="M0 0 C1.65 0 3.3 0 5 0 C3.64474464 4.21775732 2.09799886 8.29421322 0.375 12.375 C-0.07101563 13.43460938 -0.51703125 14.49421875 -0.9765625 15.5859375 C-1.31429687 16.38257813 -1.65203125 17.17921875 -2 18 C-1.55269531 17.50628906 -1.10539063 17.01257813 -0.64453125 16.50390625 C5.3602812 10.14059754 5.3602812 10.14059754 10 10 C10 10.99 10 11.98 10 13 C8.02 13.66 6.04 14.32 4 15 C3.97292861 17.24993359 3.95357171 19.49996095 3.9375 21.75 C3.92589844 23.00296875 3.91429687 24.2559375 3.90234375 25.546875 C3.97978973 28.28536501 4.17219185 30.41880293 5 33 C5.66 33 6.32 33 7 33 C7 33.66 7 34.32 7 35 C4.125 34.6875 4.125 34.6875 1 34 C-0.90318884 31.14521674 -1.4619099 29.58058692 -2.125 26.3125 C-2.29257813 25.50425781 -2.46015625 24.69601563 -2.6328125 23.86328125 C-2.75398437 23.24839844 -2.87515625 22.63351563 -3 22 C-3.31453125 22.5775 -3.6290625 23.155 -3.953125 23.75 C-4.38109375 24.4925 -4.8090625 25.235 -5.25 26 C-5.87648438 27.11375 -5.87648438 27.11375 -6.515625 28.25 C-7.25039062 29.11625 -7.25039062 29.11625 -8 30 C-9.32 30 -10.64 30 -12 30 C-11.40464149 26.49834682 -10.48793339 23.53560583 -9.00390625 20.3125 C-8.61009766 19.44882813 -8.21628906 18.58515625 -7.81054688 17.6953125 C-7.39869141 16.80585938 -6.98683594 15.91640625 -6.5625 15 C-5.75041332 13.22957407 -4.93918823 11.45875262 -4.12890625 9.6875 C-3.76869385 8.90761719 -3.40848145 8.12773437 -3.03735352 7.32421875 C-1.95832273 4.90662093 -0.96786819 2.46396183 0 0 Z " fill="#4C4A4B" transform="translate(133,146)"/>
<path d="M0 0 C1.50433594 0.01353516 1.50433594 0.01353516 3.0390625 0.02734375 C3.80992187 0.03894531 4.58078125 0.05054688 5.375 0.0625 C5.57586443 3.77849191 5.5269437 4.83458445 3.375 8.0625 C2.715 8.0625 2.055 8.0625 1.375 8.0625 C1.045 6.4125 0.715 4.7625 0.375 3.0625 C-3.30309371 3.31327912 -5.12570028 3.57746598 -7.8125 6.1875 C-12.18608717 13.12491413 -13.06620828 17.9409995 -12.625 26.0625 C-9.25153665 26.20206727 -9.25153665 26.20206727 -5.625 25.0625 C-3.80218921 22.57780402 -2.68260182 19.94627142 -1.625 17.0625 C-0.965 17.0625 -0.305 17.0625 0.375 17.0625 C-0.01375039 22.50500545 -1.79052996 25.22802996 -5.625 29.0625 C-9.27060797 31.1189968 -12.46964883 31.60450233 -16.625 31.0625 C-19.26529991 28.28455412 -20.07542206 26.24260658 -20.125 22.4375 C-19.89708071 15.71883562 -17.42786738 10.02776528 -12.8046875 5.13671875 C-8.43352056 1.30508915 -5.89620125 -0.06856048 0 0 Z " fill="#3D3B3D" transform="translate(202.625,145.9375)"/>
<path d="M0 0 C-0.33 2.31 -0.66 4.62 -1 7 C-0.32904297 6.24203125 -0.32904297 6.24203125 0.35546875 5.46875 C5.35506003 0.09605489 5.35506003 0.09605489 8.9375 -0.4375 C9.9584375 -0.2209375 9.9584375 -0.2209375 11 0 C10.22461334 4.9196947 8.25438948 8.85233624 6.05859375 13.28125 C4.96788615 16.0824769 4.78989883 18.02626033 5 21 C6.98 21.33 8.96 21.66 11 22 C10.67 22.66 10.34 23.32 10 24 C3.9453125 24.1953125 3.9453125 24.1953125 2 24 C0 22 0 22 -0.375 19 C-0.26847607 13.96141801 1.96045973 9.52522998 4 5 C-0.98310218 10.45273043 -0.98310218 10.45273043 -5.1875 16.5 C-5.785625 17.325 -6.38375 18.15 -7 19 C-8.32 19 -9.64 19 -11 19 C-10.45660208 14.43545749 -9.20536179 11.0271824 -7 7 C-7.33 6.67 -7.66 6.34 -8 6 C-8.99 6.66 -9.98 7.32 -11 8 C-8.90751135 2.67366525 -5.73537573 0 0 0 Z " fill="#3F3F3F" transform="translate(95,157)"/>
<path d="M0 0 C8.25 0 16.5 0 25 0 C26.27491216 2.54982433 26.02596616 4.16465424 25.87890625 7.0078125 C25.83056641 7.99394531 25.78222656 8.98007812 25.73242188 9.99609375 C25.67634766 11.02863281 25.62027344 12.06117187 25.5625 13.125 C25.51029297 14.16527344 25.45808594 15.20554687 25.40429688 16.27734375 C25.27439054 18.85185116 25.13941748 21.42599296 25 24 C20.69784837 25.43405054 16.44615973 25.41015146 11.9375 25.625 C11.01388672 25.6765625 10.09027344 25.728125 9.13867188 25.78125 C8.25630859 25.82507813 7.37394531 25.86890625 6.46484375 25.9140625 C5.656521 25.9548291 4.84819824 25.9955957 4.01538086 26.03759766 C2 26 2 26 0 25 C0 16.75 0 8.5 0 0 Z M2 2 C2 8.27 2 14.54 2 21 C8.6 21 15.2 21 22 21 C22 14.73 22 8.46 22 2 C15.4 2 8.8 2 2 2 Z " fill="#8EC5B1" transform="translate(148,54)"/>
<path d="M0 0 C1.93719378 -0.05406122 3.87481921 -0.09282025 5.8125 -0.125 C6.89144531 -0.14820313 7.97039062 -0.17140625 9.08203125 -0.1953125 C12 0 12 0 15 2 C15 2.66 15 3.32 15 4 C15.99 3.01 16.98 2.02 18 1 C18.99 1.33 19.98 1.66 21 2 C22.1875 5.5625 22.1875 5.5625 23 9 C19.72687955 9.98503862 16.78437676 10.10385363 13.375 10.0625 C12.41335937 10.05347656 11.45171875 10.04445312 10.4609375 10.03515625 C9.24277344 10.01775391 9.24277344 10.01775391 8 10 C7.34 10 6.68 10 6 10 C3 10 0 10 -3 10 C-3 9.34 -3 8.68 -3 8 C-4.65 8.33 -6.3 8.66 -8 9 C-7.125 3.25 -7.125 3.25 -6 1 C-5.01 1 -4.02 1 -3 1 C-2.67 1.99 -2.34 2.98 -2 4 C-1.34 2.68 -0.68 1.36 0 0 Z " fill="#DFACAF" transform="translate(203,199)"/>
<path d="M0 0 C0.9075 0.86625 1.815 1.7325 2.75 2.625 C12.22527927 10.60018496 20.75108168 12.99164561 33 12 C34.64935547 11.87818359 34.64935547 11.87818359 36.33203125 11.75390625 C38.89403932 11.54013151 41.44589922 11.29189723 44 11 C44 11.66 44 12.32 44 13 C43.34 13.33 42.68 13.66 42 14 C41.67 14.845625 41.34 15.69125 41 16.5625 C39 19 39 19 36.96875 19.36328125 C34.29067915 19.37599361 31.66944177 19.21414609 29 19 C27.58654297 18.94972656 27.58654297 18.94972656 26.14453125 18.8984375 C17.1875996 18.42897074 12.104013 15.73006561 6 9 C5.45859375 8.40445313 4.9171875 7.80890625 4.359375 7.1953125 C0 2.2859229 0 2.2859229 0 0 Z " fill="#E01D26" transform="translate(129,129)"/>
<path d="M0 0 C0.66 0.33 1.32 0.66 2 1 C2.3125 3.25 2.3125 3.25 2 6 C-2.4078065 10.17581668 -5.02156209 11.12996604 -11 11 C-11 13.31 -11 15.62 -11 18 C-7.34683329 16.75023244 -6.21934164 16.32901247 -4 13 C-3.34 13 -2.68 13 -2 13 C-3.29310171 15.88461151 -4.41557624 18.12852073 -7 20 C-10.5625 20.8125 -10.5625 20.8125 -14 21 C-16 19 -16 19 -16.4375 15.375 C-16.30864573 10.32207182 -14.19164907 6.814196 -11 3 C-7.34885661 0.00419004 -4.67034784 -0.41514203 0 0 Z " fill="#504F4E" transform="translate(155,156)"/>
<path d="M0 0 C0 2.64 0 5.28 0 8 C-3.3653636 9.12178787 -6.0203755 9.16771159 -9.5625 9.1875 C-10.71878906 9.20167969 -11.87507812 9.21585938 -13.06640625 9.23046875 C-16 9 -16 9 -18 7 C-20.10820797 7.3185177 -20.10820797 7.3185177 -22 8 C-22 5.36 -22 2.72 -22 0 C-21.443125 0.185625 -20.88625 0.37125 -20.3125 0.5625 C-13.25255853 1.8981646 -7.40695852 -2.46898617 0 0 Z " fill="#EBB8BA" transform="translate(154,200)"/>
<path d="M0 0 C0 0.66 0 1.32 0 2 C-1.11375 2.309375 -1.11375 2.309375 -2.25 2.625 C-5.95039191 4.47519595 -7.10270401 6.34092917 -9 10 C-9.58314214 12.70189194 -9.8088789 15.22874406 -10 18 C-8.35 17.34 -6.7 16.68 -5 16 C-4.93941406 15.38511719 -4.87882812 14.77023438 -4.81640625 14.13671875 C-4.73261719 13.32847656 -4.64882812 12.52023438 -4.5625 11.6875 C-4.48128906 10.88699219 -4.40007812 10.08648437 -4.31640625 9.26171875 C-4 7 -4 7 -3 4 C0.465 3.505 0.465 3.505 4 3 C4 3.66 4 4.32 4 5 C3.34 5 2.68 5 2 5 C1.76216797 5.99580078 1.76216797 5.99580078 1.51953125 7.01171875 C0.06809675 12.5047167 -1.05669927 16.70446618 -6 20 C-8.85480878 20.45331557 -11.07455285 20.29254472 -14 20 C-15.54076187 18.45923813 -15.24356699 17.0155515 -15.3125 14.875 C-15.24666812 8.96893964 -13.23900397 5.39341803 -9.1875 1.0625 C-6.0865624 -0.44366969 -3.39251283 -0.19572189 0 0 Z " fill="#434343" transform="translate(121,156)"/>
<path d="M0 0 C1.32 0.33 2.64 0.66 4 1 C4 1.66 4 2.32 4 3 C4.99 2.67 5.98 2.34 7 2 C5.8905928 5.48670834 4.73662334 8.77484237 3 12 C1.02 12 -0.96 12 -3 12 C-3 12.66 -3 13.32 -3 14 C-8.94 14.495 -8.94 14.495 -15 15 C-14.01 13.02 -13.02 11.04 -12 9 C-11.34 9 -10.68 9 -10 9 C-10 8.34 -10 7.68 -10 7 C-9.236875 6.731875 -8.47375 6.46375 -7.6875 6.1875 C-5.09503074 5.04199033 -3.91184456 4.00288478 -2 2 C-1.34 2 -0.68 2 0 2 C0 1.34 0 0.68 0 0 Z " fill="#E21B23" transform="translate(183,133)"/>
<path d="M0 0 C6.6 0 13.2 0 20 0 C19.01 0.495 19.01 0.495 18 1 C18 3.31 18 5.62 18 8 C17.01 8 16.02 8 15 8 C14.67 7.01 14.34 6.02 14 5 C13.67 6.32 13.34 7.64 13 9 C8.48382401 9.07654536 4.40914783 9.10228696 0 8 C0 5.36 0 2.72 0 0 Z " fill="#D49799" transform="translate(174,200)"/>
<path d="M0 0 C1.65 0 3.3 0 5 0 C4.40023455 3.65685795 3.38333864 6.62077969 1.75 9.94140625 C1.08484375 11.31135742 1.08484375 11.31135742 0.40625 12.70898438 C-0.0578125 13.65064453 -0.521875 14.59230469 -1 15.5625 C-1.92006721 17.43713693 -2.8368684 19.31338123 -3.75 21.19140625 C-4.15734375 22.01842041 -4.5646875 22.84543457 -4.984375 23.69750977 C-5.91184733 25.80015195 -6.5257376 27.75724148 -7 30 C-8.65 30 -10.3 30 -12 30 C-11.35990983 26.03526237 -10.1301723 22.7055586 -8.49609375 19.04296875 C-8.00302734 17.93115234 -7.50996094 16.81933594 -7.00195312 15.67382812 C-6.48568359 14.52333984 -5.96941406 13.37285156 -5.4375 12.1875 C-4.91736328 11.01767578 -4.39722656 9.84785156 -3.86132812 8.64257812 C-2.57872888 5.75967157 -1.29147717 2.87893769 0 0 Z " fill="#3B3B3B" transform="translate(240,146)"/>
<path d="M0 0 C1.65 0 3.3 0 5 0 C4.46105395 5.81494426 2.1103618 10.40696743 -0.4375 15.5625 C-1.24999096 17.22983927 -2.06122726 18.89779063 -2.87109375 20.56640625 C-3.2460498 21.33742676 -3.62100586 22.10844727 -4.00732422 22.90283203 C-5.10952982 25.23139723 -6.09703252 27.58715248 -7 30 C-8.65 30 -10.3 30 -12 30 C-10.02229111 23.45086566 -7.04701444 17.36605948 -4.18945312 11.16796875 C-3.79564453 10.30558594 -3.40183594 9.44320312 -2.99609375 8.5546875 C-2.63700928 7.77593262 -2.2779248 6.99717773 -1.90795898 6.19482422 C-1.05756211 4.13914583 -0.47464626 2.16972323 0 0 Z " fill="#3E3E3E" transform="translate(248,146)"/>
<path d="M0 0 C0.66 0 1.32 0 2 0 C2.33 3.3 2.66 6.6 3 10 C3.99 10 4.98 10 6 10 C7.05404945 13.98196457 6.84098656 16.98195309 6 21 C5.01 20.01 4.02 19.02 3 18 C2.01 18.33 1.02 18.66 0 19 C0.33 20.32 0.66 21.64 1 23 C-1.5 21.8125 -1.5 21.8125 -4 20 C-4.3125 17.5625 -4.3125 17.5625 -4 15 C-4 13.68 -4 12.36 -4 11 C-3.625 7.8125 -3.625 7.8125 -3 5 C-2.34 4.67 -1.68 4.34 -1 4 C-0.34786708 1.97536745 -0.34786708 1.97536745 0 0 Z " fill="#D5D4D5" transform="translate(159,115)"/>
<path d="M0 0 C2.3125 1.125 2.3125 1.125 4 3 C4.46376624 6.18011138 4.54663625 8.08893958 2.875 10.875 C0.11909116 12.52854531 -1.85075452 12.39365568 -5 12 C-6.875 10.875 -6.875 10.875 -8 9 C-8.39769128 5.81846974 -8.55198782 3.87155972 -6.8125 1.125 C-4.328806 -0.41660317 -2.87933136 -0.42136557 0 0 Z " fill="#08A260" transform="translate(162,59)"/>
<path d="M0 0 C1.0625 1.75 1.0625 1.75 2 4 C1.814375 4.680625 1.62875 5.36125 1.4375 6.0625 C1.2209375 7.0215625 1.2209375 7.0215625 1 8 C2.35444301 9.77190909 2.35444301 9.77190909 4 11 C4 9.35 4 7.7 4 6 C4.33 6 4.66 6 5 6 C5.33 7.98 5.66 9.96 6 12 C9.37346335 12.13956727 9.37346335 12.13956727 13 11 C14.82281079 8.51530402 15.94239818 5.88377142 17 3 C17.66 3 18.32 3 19 3 C18.61124961 8.44250545 16.83447004 11.16552996 13 15 C9.35439203 17.0564968 6.15535117 17.54200233 2 17 C-0.09172197 14.85426643 -0.93152913 13.51597694 -1.328125 10.52734375 C-1.30234375 9.67269531 -1.2765625 8.81804687 -1.25 7.9375 C-1.23453125 7.08027344 -1.2190625 6.22304687 -1.203125 5.33984375 C-1 3 -1 3 0 0 Z " fill="#4F4F4F" transform="translate(184,160)"/>
<path d="M0 0 C0.66 0.33 1.32 0.66 2 1 C1.401875 1.680625 0.80375 2.36125 0.1875 3.0625 C-2.23587643 6.31674834 -3.5252401 9.23936225 -5 13 C-5.66 13 -6.32 13 -7 13 C-7.1546875 14.2684375 -7.1546875 14.2684375 -7.3125 15.5625 C-8.0736376 19.36818801 -9.39083354 22.47221199 -11 26 C-11.56589756 27.31103869 -12.12851906 28.62349741 -12.6875 29.9375 C-13.120625 30.948125 -13.55375 31.95875 -14 33 C-14.99 32.67 -15.98 32.34 -17 32 C-16.38722388 29.03824877 -15.74627478 27.61941217 -14 25 C-13.9175 23.824375 -13.835 22.64875 -13.75 21.4375 C-12.94595258 13.65546959 -7.68909999 7.05697777 -2 2 C-1.34 1.34 -0.68 0.68 0 0 Z " fill="#EDEDED" transform="translate(45,82)"/>
<path d="M0 0 C2 1.5 2 1.5 3 3 C2.01 3.495 2.01 3.495 1 4 C0.34 3.67 -0.32 3.34 -1 3 C-1 3.66 -1 4.32 -1 5 C-1.66 5 -2.32 5 -3 5 C-3 5.66 -3 6.32 -3 7 C-2.34 7 -1.68 7 -1 7 C-1 7.99 -1 8.98 -1 10 C-1.66 10 -2.32 10 -3 10 C-3 11.65 -3 13.3 -3 15 C-3.66 15 -4.32 15 -5 15 C-5 13.35 -5 11.7 -5 10 C-5.99 10 -6.98 10 -8 10 C-8 8.02 -8 6.04 -8 4 C-8.99 4.495 -8.99 4.495 -10 5 C-10.38749213 7.32495277 -10.71758117 9.6599583 -11 12 C-11.33 12.99 -11.66 13.98 -12 15 C-13.61588379 11.76823243 -13.57451407 8.49384717 -13 5 C-9.33533477 -0.49699784 -6.15355558 -0.79400717 0 0 Z " fill="#CB4C51" transform="translate(141,248)"/>
<path d="M0 0 C7.75 -0.125 7.75 -0.125 10 1 C10 1.66 10 2.32 10 3 C9.34 3 8.68 3 8 3 C8 5.31 8 7.62 8 10 C5.03 9.67 2.06 9.34 -1 9 C-1.33 8.01 -1.66 7.02 -2 6 C-2.33 6.99 -2.66 7.98 -3 9 C-3.66 9 -4.32 9 -5 9 C-5 6.36 -5 3.72 -5 1 C-2 2 -2 2 -1 4 C-0.67 2.68 -0.34 1.36 0 0 Z " fill="#FADADD" transform="translate(232,199)"/>
<path d="M0 0 C1.98 0 3.96 0 6 0 C7.4606285 2.64738916 8 3.89448334 8 7 C5.29120665 8.35439668 2.99066732 8.06501451 0 8 C0 5.36 0 2.72 0 0 Z M9 0 C10.98 0 12.96 0 15 0 C15.82638376 2.89234315 16 4.88742431 16 8 C15.34 8 14.68 8 14 8 C14 7.34 14 6.68 14 6 C13.34 6 12.68 6 12 6 C12 6.66 12 7.32 12 8 C11.01 8 10.02 8 9 8 C8.20046862 4.71303767 7.90341064 3.28976808 9 0 Z " fill="#F5D1D2" transform="translate(156,200)"/>
<path d="M0 0 C0 2.31 0 4.62 0 7 C0.66 7 1.32 7 2 7 C2 5.02 2 3.04 2 1 C2.66 1 3.32 1 4 1 C4.125 6.75 4.125 6.75 3 9 C1.04196493 9.05389087 -0.91648909 9.09274217 -2.875 9.125 C-3.96554688 9.14820313 -5.05609375 9.17140625 -6.1796875 9.1953125 C-9 9 -9 9 -11 7 C-11.125 4.375 -11.125 4.375 -11 2 C-7.12315913 0.80712589 -4.08378077 0 0 0 Z " fill="#D99FA1" transform="translate(127,199)"/>
<path d="M0 0 C4.62 0 9.24 0 14 0 C14 2.97 14 5.94 14 9 C13.01 9 12.02 9 11 9 C11 7.02 11 5.04 11 3 C10.01 3 9.02 3 8 3 C8 4.98 8 6.96 8 9 C5.36 8.67 2.72 8.34 0 8 C0 5.36 0 2.72 0 0 Z " fill="#DDA7AA" transform="translate(98,199)"/>
<path d="M0 0 C4.85781991 4.12914692 4.85781991 4.12914692 5.5 8.0625 C4.94120588 11.34541543 4.52231206 12.81399622 2 15 C-1.125 15.3125 -1.125 15.3125 -4 15 C-4.33 14.67 -4.66 14.34 -5 14 C-4.4 7.4 -4.4 7.4 -2 5 C-2.33 4.34 -2.66 3.68 -3 3 C-2.01 2.01 -1.02 1.02 0 0 Z " fill="#F2F2F2" transform="translate(63,159)"/>
<path d="M0 0 C0.9075 0.86625 1.815 1.7325 2.75 2.625 C13.71512472 11.78077015 23.26940415 12.82383575 37 12 C34.14206684 14.85793316 31.85334416 14.40799941 27.875 14.625 C26.59367187 14.69976562 25.31234375 14.77453125 23.9921875 14.8515625 C22.51105469 14.92503906 22.51105469 14.92503906 21 15 C20.67 15.99 20.34 16.98 20 18 C10.79956194 15.53158979 5.10122569 9.89216983 0 2 C0 1.34 0 0.68 0 0 Z " fill="#C53B46" transform="translate(129,129)"/>
<path d="M0 0 C1.65 0 3.3 0 5 0 C4.835 0.763125 4.67 1.52625 4.5 2.3125 C3.90854604 5.03596236 3.90854604 5.03596236 4 8 C3.25 9.8125 3.25 9.8125 2 12 C1.401875 13.051875 0.80375 14.10375 0.1875 15.1875 C-2 18 -2 18 -4.75 18.875 C-5.4925 18.91625 -6.235 18.9575 -7 19 C-4.94235079 12.54646385 -2.57616518 6.2638737 0 0 Z " fill="#424242" transform="translate(80,157)"/>
<path d="M0 0 C0.66 0.66 1.32 1.32 2 2 C1.32566425 8.54437319 -2.06446759 15.6110956 -6.875 20.125 C-10.55284829 22.33170898 -12.78212806 22.42178719 -17 22 C-17.33 21.34 -17.66 20.68 -18 20 C-16.9275 19.773125 -15.855 19.54625 -14.75 19.3125 C-8.40182183 17.09063764 -6.26791468 11.93314526 -3.25 6.1875 C-2.63640625 5.02605469 -2.0228125 3.86460937 -1.390625 2.66796875 C-0.93171875 1.78753906 -0.4728125 0.90710938 0 0 Z " fill="#393939" transform="translate(167,168)"/>
<path d="M0 0 C0.66 0 1.32 0 2 0 C1 3 1 3 -0.6875 4.1875 C-3.54969093 5.19313465 -5.98827908 5.13689641 -9 5 C-9 7.31 -9 9.62 -9 12 C-5.34683329 10.75023244 -4.21934164 10.32901247 -2 7 C-1.34 7 -0.68 7 0 7 C-1.29310171 9.88461151 -2.41557624 12.12852073 -5 14 C-8.5625 14.8125 -8.5625 14.8125 -12 15 C-14.60704898 12.39295102 -14.23905333 10.52661759 -14.265625 6.97265625 C-14 5 -14 5 -12 2 C-10.68 2 -9.36 2 -8 2 C-8 2.66 -8 3.32 -8 4 C-3.70111387 2.48134786 -3.70111387 2.48134786 0 0 Z " fill="#383637" transform="translate(153,162)"/>
<path d="M0 0 C-2.65189497 9.11588896 -6.8805831 17.4774059 -11 26 C-11.99 25.34 -12.98 24.68 -14 24 C-12.30343406 18.2117162 -10.1088301 12.89232086 -7.4375 7.5 C-7.13255615 6.87657715 -6.8276123 6.2531543 -6.51342773 5.61083984 C-3.6801009 0 -3.6801009 0 0 0 Z " fill="#EBEBEB" transform="translate(248,148)"/>
<path d="M0 0 C0.87205078 -0.00080566 1.74410156 -0.00161133 2.64257812 -0.00244141 C6.77802647 0.03342891 10.65616011 0.14849487 14.6875 1.1875 C14.6875 1.5175 14.6875 1.8475 14.6875 2.1875 C13.66914063 2.22488281 12.65078125 2.26226562 11.6015625 2.30078125 C2.85042414 2.68616973 -5.63136605 3.55562149 -14.24560547 5.17114258 C-18.3291981 5.92500078 -22.15951348 6.33792313 -26.3125 6.1875 C-19.52692323 -0.59807677 -8.93850332 0.00805561 0 0 Z " fill="#C9454B" transform="translate(150.3125,33.8125)"/>
<path d="M0 0 C3.5625 0.125 3.5625 0.125 5.5625 1.125 C5.66015625 7.27734375 5.66015625 7.27734375 5.5625 9.125 C4.5625 10.125 4.5625 10.125 2.75 10.2578125 C2.028125 10.25523437 1.30625 10.25265625 0.5625 10.25 C-0.159375 10.25257813 -0.88125 10.25515625 -1.625 10.2578125 C-3.4375 10.125 -3.4375 10.125 -4.4375 9.125 C-4.5703125 7.3125 -4.5703125 7.3125 -4.5625 5.125 C-4.56507813 4.403125 -4.56765625 3.68125 -4.5703125 2.9375 C-4.32643083 -0.39076747 -3.43520936 0.1249167 0 0 Z " fill="#D76A6A" transform="translate(159.4375,251.875)"/>
<path d="M0 0 C3.0625 0.3125 3.0625 0.3125 5 1.4375 C6.60193488 4.26444391 5.85834319 6.26176777 5.0625 9.3125 C4.0625 10.3125 4.0625 10.3125 2.21484375 10.41015625 C0.1640625 10.37760417 -1.88671875 10.34505208 -3.9375 10.3125 C-5.31875018 7.54999964 -5.12829306 5.36518901 -4.9375 2.3125 C-2.9375 0.3125 -2.9375 0.3125 0 0 Z " fill="#FB8E8D" transform="translate(182.9375,251.6875)"/>
<path d="M0 0 C0.66 0.33 1.32 0.66 2 1 C1.29875 1.66 0.5975 2.32 -0.125 3 C-3.0038529 5.85424732 -5.31997445 9.03225966 -7.66796875 12.328125 C-9 14 -9 14 -11 15 C-11.33 15.99 -11.66 16.98 -12 18 C-15.77451913 22.17183694 -18.24255524 23.31167695 -23.875 23.8125 C-25.58239979 23.89673172 -27.29085111 23.96654691 -29 24 C-26 22 -26 22 -23.87109375 20.84375 C-16.74619905 16.90961873 -11.55298177 11.88896049 -6 6 C-4.33809521 4.32858502 -2.67241374 2.66089971 -1 1 C-0.67 0.67 -0.34 0.34 0 0 Z " fill="#C53841" transform="translate(195,117)"/>
<path d="M0 0 C1.65 0 3.3 0 5 0 C4.33392561 4.40958108 2.73375271 8.26572186 0.9375 12.3125 C0.65583984 12.95767578 0.37417969 13.60285156 0.08398438 14.26757812 C-0.6062743 15.84698358 -1.30253198 17.42376493 -2 19 C-3.65 19 -5.3 19 -7 19 C-5.58632741 14.65328707 -4.02739359 10.3864361 -2.375 6.125 C-1.92898437 4.97257813 -1.48296875 3.82015625 -1.0234375 2.6328125 C-0.68570313 1.76398438 -0.34796875 0.89515625 0 0 Z " fill="#414040" transform="translate(226,157)"/>
<path d="M0 0 C1.23593891 3.70781672 0.5678132 4.67510253 -0.9375 8.1875 C-1.31777344 9.08855469 -1.69804687 9.98960937 -2.08984375 10.91796875 C-2.39019531 11.60503906 -2.69054687 12.29210937 -3 13 C-4.32 12.34 -5.64 11.68 -7 11 C-6.01 9.68 -5.02 8.36 -4 7 C-4.66 7 -5.32 7 -6 7 C-6.226875 7.639375 -6.45375 8.27875 -6.6875 8.9375 C-8 11 -8 11 -10.625 11.75 C-11.40875 11.8325 -12.1925 11.915 -13 12 C-13 9.69 -13 7.38 -13 5 C-11.783125 4.731875 -10.56625 4.46375 -9.3125 4.1875 C-5.77878956 3.31505639 -3.0231718 2.07843061 0 0 Z " fill="#EAEAEA" transform="translate(157,162)"/>
<path d="M0 0 C0.33 0.66 0.66 1.32 1 2 C-0.98 2.99 -0.98 2.99 -3 4 C-2.938125 5.216875 -2.87625 6.43375 -2.8125 7.6875 C-2.8193872 11.56499458 -3.36931618 13.99350421 -6 17 C-7.32 17 -8.64 17 -10 17 C-10.4226988 10.87086741 -10.00963916 7.95308367 -6 3 C-3.8614515 0.8614515 -2.86724686 0.57344937 0 0 Z " fill="#F2F2F2" transform="translate(121,157)"/>
<path d="M0 0 C2.9375 2.5 2.9375 2.5 5 5 C4.34 7.31 3.68 9.62 3 12 C2.67 12 2.34 12 2 12 C2 9.69 2 7.38 2 5 C-0.97 5 -3.94 5 -7 5 C-7.33 7.64 -7.66 10.28 -8 13 C-8.66 12.01 -9.32 11.02 -10 10 C-10.66 10.99 -11.32 11.98 -12 13 C-12.60356653 5.87791495 -12.60356653 5.87791495 -9.9375 2 C-6.22192774 -0.52975133 -4.4117517 -0.7878128 0 0 Z " fill="#D5454B" transform="translate(163,248)"/>
<path d="M0 0 C0.66 0 1.32 0 2 0 C2.33911623 5.76497595 2.16793617 9.04149121 -1 14 C-0.72965366 16.43717258 -0.72965366 16.43717258 0 19 C0.03824623 21.33301986 0.04574284 23.66711508 0 26 C-2 24 -2 24 -3 21 C-4.66858106 17.84156338 -4.66858106 17.84156338 -7.41796875 17.1640625 C-9.94356169 16.67248023 -12.44260297 16.27829086 -15 16 C-14.67 15.34 -14.34 14.68 -14 14 C-13.31292969 14.05800781 -12.62585938 14.11601563 -11.91796875 14.17578125 C-9.21227062 14.3112597 -6.6896348 14.33349739 -4 14 C-1.56486451 11.70810777 -1.07395253 10.22946078 -0.875 6.921875 C-0.875 4.94747696 -0.93422326 2.97330206 -1 1 C-0.67 0.67 -0.34 0.34 0 0 Z " fill="#50A07A" transform="translate(214,98)"/>
<path d="M0 0 C0.33 0 0.66 0 1 0 C1.42064893 6.09940955 1.08964656 9.13663653 -3 14 C-6.09708705 17.1807921 -7.32051289 17.95544347 -11.8125 18.25 C-12.864375 18.1675 -13.91625 18.085 -15 18 C-15.33 17.34 -15.66 16.68 -16 16 C-14.96875 15.855625 -13.9375 15.71125 -12.875 15.5625 C-7.54713416 14.07414881 -5.58113427 9.5503279 -3 5 C-2.01005812 3.32733959 -1.01567807 1.65715896 0 0 Z " fill="#3A3A3A" transform="translate(257,172)"/>
<path d="M0 0 C0.99 0.40992188 1.98 0.81984375 3 1.2421875 C12.79309328 5.25680846 12.79309328 5.25680846 23 8 C22.67 9.32 22.34 10.64 22 12 C13.97928527 10.05797655 6.54549287 7.33160505 -1 4 C-0.67 2.68 -0.34 1.36 0 0 Z " fill="#CB5358" transform="translate(105,271)"/>
<path d="M0 0 C0.33 0 0.66 0 1 0 C2.125 7.625 2.125 7.625 1 11 C1.66 11 2.32 11 3 11 C3 10.34 3 9.68 3 9 C4.32 9.33 5.64 9.66 7 10 C7.2025236 13.64542483 6.84727108 15.84877287 5 19 C4.67 19.66 4.34 20.32 4 21 C1.525 20.01 1.525 20.01 -1 19 C-0.814375 17.989375 -0.62875 16.97875 -0.4375 15.9375 C-0.00016745 12.00150706 -0.4234396 8.89178268 -1 5 C-0.5625 2.0625 -0.5625 2.0625 0 0 Z " fill="#949494" transform="translate(145,105)"/>
<path d="M0 0 C2.96680942 2.96680942 3.53759451 6.47016225 4.6875 10.4375 C4.92533203 11.21416016 5.16316406 11.99082031 5.40820312 12.79101562 C5.62798828 13.53931641 5.84777344 14.28761719 6.07421875 15.05859375 C6.27619873 15.74236084 6.47817871 16.42612793 6.6862793 17.13061523 C7 19 7 19 6 22 C5.01 22 4.02 22 3 22 C1.33333333 15.33333333 -0.33333333 8.66666667 -2 2 C-1.34 2 -0.68 2 0 2 C0 1.34 0 0.68 0 0 Z " fill="#CA5558" transform="translate(278,114)"/>
<path d="M0 0 C3.3 0 6.6 0 10 0 C10 5.61 10 11.22 10 17 C7.69 17 5.38 17 3 17 C3.48082031 16.44828125 3.96164063 15.8965625 4.45703125 15.328125 C6.23954161 12.63856507 6.47751409 10.94178582 6.6875 7.75 C6.75324219 6.85796875 6.81898438 5.9659375 6.88671875 5.046875 C6.92410156 4.37140625 6.96148437 3.6959375 7 3 C4.69 2.34 2.38 1.68 0 1 C0 0.67 0 0.34 0 0 Z " fill="#EFFDF6" transform="translate(159,57)"/>
<path d="M0 0 C0.33 0 0.66 0 1 0 C2.40661256 5.28886321 1.48009972 8.03980056 -0.9375 12.875 C-1.50339844 14.02742187 -2.06929687 15.17984375 -2.65234375 16.3671875 C-3.09707031 17.23601562 -3.54179687 18.10484375 -4 19 C-2.35 19 -0.7 19 1 19 C1.33 17.35 1.66 15.7 2 14 C2.66 15.32 3.32 16.64 4 18 C2.875 20 2.875 20 1 22 C-2.125 22.3125 -2.125 22.3125 -5 22 C-5.33 21.67 -5.66 21.34 -6 21 C-5.70850434 15.46158246 -4.55968183 11.67756771 -1.921875 6.83203125 C-0.80075776 4.60404826 -0.30848863 2.46790907 0 0 Z " fill="#E0E0E0" transform="translate(223,157)"/>
<path d="M0 0 C4.29 0 8.58 0 13 0 C12.01 0.495 12.01 0.495 11 1 C11 3.31 11 5.62 11 8 C10.01 8 9.02 8 8 8 C7.67 7.01 7.34 6.02 7 5 C6.34 5 5.68 5 5 5 C5 5.99 5 6.98 5 8 C3.35 8 1.7 8 0 8 C0.33 7.34 0.66 6.68 1 6 C1.99 6.33 2.98 6.66 4 7 C4 6.34 4 5.68 4 5 C2.68 4.67 1.36 4.34 0 4 C0 2.68 0 1.36 0 0 Z " fill="#C87F82" transform="translate(181,200)"/>
<path d="M0 0 C1.41377341 2.63904371 2.37240135 5.07120629 3 8 C3.66 8 4.32 8 5 8 C7.1951074 13.55233049 6.84284324 16.47147029 5 22 C1.65804517 19.28799832 -0.28397756 17.33572008 -0.7421875 13.046875 C-0.81059722 11.61553317 -0.85438378 10.18282738 -0.875 8.75 C-0.90851563 8.0178125 -0.94203125 7.285625 -0.9765625 6.53125 C-1.04480336 4.68874673 -1.02946283 2.84353113 -1 1 C-0.67 0.67 -0.34 0.34 0 0 Z " fill="#8E8F8E" transform="translate(175,104)"/>
<path d="M0 0 C0.99 0.33 1.98 0.66 3 1 C2.50817739 7.06581221 0.07074564 12.79038239 -3 18 C-3.99 18.33 -4.98 18.66 -6 19 C-7.3058334 15.07871478 -6.38030356 13.02168909 -4.59960938 9.31640625 C-4.25736328 8.63449219 -3.91511719 7.95257813 -3.5625 7.25 C-3.05493164 6.20392578 -3.05493164 6.20392578 -2.53710938 5.13671875 C-1.70193542 3.41931879 -0.85234576 1.70894262 0 0 Z " fill="#F1F1F1" transform="translate(249,156)"/>
<path d="M0 0 C0.66 0.33 1.32 0.66 2 1 C1.34 1.66 0.68 2.32 0 3 C-0.24315656 5.66949409 -0.24315656 5.66949409 -0.125 8.625 C-0.09792969 10.12933594 -0.09792969 10.12933594 -0.0703125 11.6640625 C-0.04710937 12.43492187 -0.02390625 13.20578125 0 14 C1.98 14 3.96 14 6 14 C4.68 14.33 3.36 14.66 2 15 C2.33 15.99 2.66 16.98 3 18 C0.6875 17.8125 0.6875 17.8125 -2 17 C-4.1876622 14.35971803 -4.92554721 12.43741013 -5.5 9.0625 C-4.80385649 4.79862101 -2.95466281 3.10239595 0 0 Z " fill="#D14B4E" transform="translate(179,248)"/>
<path d="M0 0 C0.99 0.33 1.98 0.66 3 1 C4.1875 4.5625 4.1875 4.5625 5 8 C1.68929162 9.00109515 -1.30084769 9.10356134 -4.75 9.0625 C-5.73484375 9.05347656 -6.7196875 9.04445312 -7.734375 9.03515625 C-8.48203125 9.02355469 -9.2296875 9.01195312 -10 9 C-9.34 8.67 -8.68 8.34 -8 8 C-8 7.34 -8 6.68 -8 6 C-7.34 6 -6.68 6 -6 6 C-6 6.66 -6 7.32 -6 8 C-5.34 8 -4.68 8 -4 8 C-4.20625 7.401875 -4.4125 6.80375 -4.625 6.1875 C-5 4 -5 4 -3 1 C-3 1.66 -3 2.32 -3 3 C-2.01 2.01 -1.02 1.02 0 0 Z " fill="#F6D2D2" transform="translate(221,200)"/>
<path d="M0 0 C3.06348412 3.26817125 4.13987779 6.62119601 5 11 C4.125 13.4375 4.125 13.4375 3 15 C2.34 15 1.68 15 1 15 C1.05800781 14.31292969 1.11601562 13.62585938 1.17578125 12.91796875 C1.3112597 10.21227062 1.33349739 7.6896348 1 5 C-1.71235274 2.11812521 -4.20030429 1.83862426 -8 1.6875 C-11.34366155 1.80782115 -13.97989607 2.48994804 -17 4 C-16 1 -16 1 -14.125 -0.8125 C-9.3528291 -2.62592494 -4.74540774 -1.75565395 0 0 Z " fill="#EEDED3" transform="translate(209,115)"/>
<path d="M0 0 C0.78375 0.04125 1.5675 0.0825 2.375 0.125 C1.9728125 1.23875 1.9728125 1.23875 1.5625 2.375 C-0.08087873 7.56461704 -1.34141776 12.83664116 -2.625 18.125 C-4.625 16.125 -4.625 16.125 -4.890625 12.9375 C-4.88546875 11.679375 -4.8803125 10.42125 -4.875 9.125 C-4.88015625 7.866875 -4.8853125 6.60875 -4.890625 5.3125 C-4.56188319 1.36759824 -4.06244889 0.19344995 0 0 Z " fill="#F2F0F1" transform="translate(140.625,158.875)"/>
<path d="M0 0 C0.8353125 0.37125 0.8353125 0.37125 1.6875 0.75 C0.9759375 1.5234375 0.9759375 1.5234375 0.25 2.3125 C-1.74059407 5.41782675 -1.96310818 8.11632504 -2.3125 11.75 C-0.9925 12.08 0.3275 12.41 1.6875 12.75 C-1.6875 12.875 -1.6875 12.875 -5.3125 12.75 C-7.3125 10.75 -7.3125 10.75 -7.75 7.375 C-7.3125 3.75 -7.3125 3.75 -5.0625 1.25 C-2.3125 -0.25 -2.3125 -0.25 0 0 Z " fill="#363636" transform="translate(60.3125,163.25)"/>
<path d="M0 0 C7.63054095 0.61044328 14.70189474 2.79621821 22 5 C21.01 5.33 20.02 5.66 19 6 C19 6.66 19 7.32 19 8 C12.73 6.68 6.46 5.36 0 4 C0.66 3.34 1.32 2.68 2 2 C1.34 1.34 0.68 0.68 0 0 Z " fill="#C9565A" transform="translate(178,34)"/>
<path d="M0 0 C0.66 0 1.32 0 2 0 C3.18594057 4.23325806 2.71869389 7.10395424 1.5625 11.3125 C1.27503906 12.38113281 0.98757812 13.44976562 0.69140625 14.55078125 C0.46324219 15.35902344 0.23507813 16.16726562 0 17 C-0.99 16.67 -1.98 16.34 -3 16 C-4.2719539 13.4560922 -4.00107536 11.94541318 -3.75 9.125 C-3.68296875 8.26132813 -3.6159375 7.39765625 -3.546875 6.5078125 C-2.9220493 3.64254034 -1.99848365 2.12709893 0 0 Z " fill="#383837" transform="translate(188,154)"/>
<path d="M0 0 C0.66 0.33 1.32 0.66 2 1 C1.67 2.32 1.34 3.64 1 5 C0.34 5 -0.32 5 -1 5 C-1.33 6.32 -1.66 7.64 -2 9 C-2.66 9 -3.32 9 -4 9 C-4 9.66 -4 10.32 -4 11 C-4.66 11 -5.32 11 -6 11 C-6.28875 11.61875 -6.5775 12.2375 -6.875 12.875 C-8 15 -8 15 -10 17 C-9.24767717 11.60835302 -8.0266908 7.5400362 -5 3 C-4.01 3 -3.02 3 -2 3 C-1.67 2.34 -1.34 1.68 -1 1 C-0.67 0.67 -0.34 0.34 0 0 Z " fill="#EDEEEC" transform="translate(58,63)"/>
<path d="M0 0 C0.556875 0.185625 1.11375 0.37125 1.6875 0.5625 C4.399133 1.07551165 6.34371039 0.6640724 9 0 C9.33 0.66 9.66 1.32 10 2 C8.68 1.67 7.36 1.34 6 1 C6 1.66 6 2.32 6 3 C7.32 3.33 8.64 3.66 10 4 C10 5.32 10 6.64 10 8 C6.66666667 8 3.33333333 8 0 8 C0 5.36 0 2.72 0 0 Z " fill="#C1757B" transform="translate(132,200)"/>
<path d="M0 0 C1.32 0.66 2.64 1.32 4 2 C4 4.31 4 6.62 4 9 C6.97 9.495 6.97 9.495 10 10 C9.67 10.66 9.34 11.32 9 12 C7.54257537 12.08096803 6.08387193 12.13917774 4.625 12.1875 C3.81289062 12.22230469 3.00078125 12.25710937 2.1640625 12.29296875 C1.44992188 12.19628906 0.73578125 12.09960938 0 12 C-2 9 -2 9 -1.6875 5.4375 C-1 2 -1 2 0 0 Z " fill="#4B494A" transform="translate(214,169)"/>
<path d="M0 0 C8.58 0 17.16 0 26 0 C25.01 0.33 24.02 0.66 23 1 C22.19787372 2.87387216 22.19787372 2.87387216 21.8125 5.0625 C21.57466797 6.16271484 21.57466797 6.16271484 21.33203125 7.28515625 C21.16767578 8.13400391 21.16767578 8.13400391 21 9 C21.66 9.33 22.32 9.66 23 10 C20.525 9.505 20.525 9.505 18 9 C18 6.69 18 4.38 18 2 C17.20335937 2.01160156 16.40671875 2.02320313 15.5859375 2.03515625 C5.06151142 2.12478032 5.06151142 2.12478032 0 1 C0 0.67 0 0.34 0 0 Z " fill="#FADDDE" transform="translate(174,199)"/>
<path d="M0 0 C0.66 0.33 1.32 0.66 2 1 C0.625 3.5 0.625 3.5 -1 6 C-1.66 6 -2.32 6 -3 6 C-3.33 6.99 -3.66 7.98 -4 9 C-4.804375 9.474375 -5.60875 9.94875 -6.4375 10.4375 C-9.09448722 11.74661128 -9.09448722 11.74661128 -10 14 C-11.39121745 16.7824349 -13.30164212 17.55210065 -16 19 C-16.99 19.66 -17.98 20.32 -19 21 C-15.27555181 12.47297388 -7.05431383 5.8049122 0 0 Z " fill="#FBE5E6" transform="translate(82,63)"/>
<path d="M0 0 C-0.51035831 4.3890815 -1.52214277 7.33708062 -4 11 C-4.66 10.67 -5.32 10.34 -6 10 C-6.625 7.4375 -6.625 7.4375 -7 5 C-8.32 5.99 -9.64 6.98 -11 8 C-8.90751135 2.67366525 -5.73537573 0 0 0 Z " fill="#3C3C3C" transform="translate(95,157)"/>
<path d="M0 0 C1.33804688 0.04060547 1.33804688 0.04060547 2.703125 0.08203125 C3.37859375 0.11683594 4.0540625 0.15164062 4.75 0.1875 C5.08 1.8375 5.41 3.4875 5.75 5.1875 C2 8.1875 2 8.1875 -0.25 8.1875 C0.08 6.2075 0.41 4.2275 0.75 2.1875 C-0.1575 2.538125 -1.065 2.88875 -2 3.25 C-5.12758436 4.15218779 -6.30208081 4.32131507 -9.25 3.1875 C-6.10408067 0.38704377 -4.182936 -0.16511589 0 0 Z " fill="#3E3E3E" transform="translate(72.25,145.8125)"/>
<path d="M0 0 C0.99 0 1.98 0 3 0 C3.66 0.66 4.32 1.32 5 2 C5.33 1.34 5.66 0.68 6 0 C6.99 0 7.98 0 9 0 C9 2.64 9 5.28 9 8 C7.35 8 5.7 8 4 8 C3.67 7.34 3.34 6.68 3 6 C2.67 6.66 2.34 7.32 2 8 C1.34 8 0.68 8 0 8 C0 5.36 0 2.72 0 0 Z " fill="#B95C62" transform="translate(78,200)"/>
<path d="M0 0 C1.0625 1.75 1.0625 1.75 2 4 C1.814375 4.680625 1.62875 5.36125 1.4375 6.0625 C1.2209375 7.0215625 1.2209375 7.0215625 1 8 C2.35444301 9.77190909 2.35444301 9.77190909 4 11 C4 9.35 4 7.7 4 6 C4.33 6 4.66 6 5 6 C5.66 8.64 6.32 11.28 7 14 C5.02 14.66 3.04 15.32 1 16 C-1.17330391 12.74004414 -1.24921459 11.77020034 -1.1875 8 C-1.18105469 7.13375 -1.17460937 6.2675 -1.16796875 5.375 C-1 3 -1 3 0 0 Z " fill="#404040" transform="translate(184,160)"/>
<path d="M0 0 C0.66 0.33 1.32 0.66 2 1 C2 2.65 2 4.3 2 6 C2.99 6 3.98 6 5 6 C6.05404945 9.98196457 5.84098656 12.98195309 5 17 C3.5 15.625 3.5 15.625 2 14 C2 13.34 2 12.68 2 12 C1.34 12 0.68 12 0 12 C-0.33 12.66 -0.66 13.32 -1 14 C-0.814375 12.906875 -0.62875 11.81375 -0.4375 10.6875 C0.2578068 7.06375867 0.2578068 7.06375867 -1 4 C-0.5625 1.8125 -0.5625 1.8125 0 0 Z " fill="#807F80" transform="translate(160,119)"/>
<path d="M0 0 C2 0 2 0 4 1 C5.3125 3.9375 5.3125 3.9375 6 7 C5.67 7.66 5.34 8.32 5 9 C2.4375 9.625 2.4375 9.625 0 10 C0 9.34 0 8.68 0 8 C-1.32 7.67 -2.64 7.34 -4 7 C-3.01 6.67 -2.02 6.34 -1 6 C-1.309375 5.071875 -1.309375 5.071875 -1.625 4.125 C-1.810625 3.073125 -1.810625 3.073125 -2 2 C-1.34 1.34 -0.68 0.68 0 0 Z " fill="#E2E2E2" transform="translate(231,149)"/>
<path d="M0 0 C0.99 0.33 1.98 0.66 3 1 C1.36041242 6.23272633 -0.38952035 11.15196636 -3 16 C-3.99 15.34 -4.98 14.68 -6 14 C-4.45941767 8.98491285 -2.97068161 4.3852919 0 0 Z " fill="#ECECEC" transform="translate(232,157)"/>
<path d="M0 0 C0.33 0.66 0.66 1.32 1 2 C1.66 2 2.32 2 3 2 C3.33 4.64 3.66 7.28 4 10 C3.01 9.34 2.02 8.68 1 8 C0.34 9.65 -0.32 11.3 -1 13 C-2.32 12.67 -3.64 12.34 -5 12 C-4.34 11.34 -3.68 10.68 -3 10 C-2.54188325 8.02764667 -2.54188325 8.02764667 -2.375 5.875 C-2.25125 4.59625 -2.1275 3.3175 -2 2 C-1.34 2 -0.68 2 0 2 C0 1.34 0 0.68 0 0 Z " fill="#FDF3F1" transform="translate(171,252)"/>
<path d="M0 0 C-2.9615696 1.4807848 -5.83506295 1.35314037 -9.125 1.5625 C-10.40632812 1.64628906 -11.68765625 1.73007813 -13.0078125 1.81640625 C-13.99523437 1.87699219 -14.98265625 1.93757812 -16 2 C-16.33 2.99 -16.66 3.98 -17 5 C-22.75 3.125 -22.75 3.125 -25 2 C-25 1.34 -25 0.68 -25 0 C-21.58382503 -0.1972935 -18.16705407 -0.38112295 -14.75 -0.5625 C-13.29787109 -0.64661133 -13.29787109 -0.64661133 -11.81640625 -0.73242188 C-10.88183594 -0.78076172 -9.94726562 -0.82910156 -8.984375 -0.87890625 C-8.12553711 -0.9260376 -7.26669922 -0.97316895 -6.38183594 -1.02172852 C-4.07335735 -1.00066921 -2.20243733 -0.66206871 0 0 Z " fill="#CE4145" transform="translate(166,142)"/>
<path d="M0 0 C0.66 0 1.32 0 2 0 C2 1.98 2 3.96 2 6 C2.66 6 3.32 6 4 6 C4 7.65 4 9.3 4 11 C3.01 11.33 2.02 11.66 1 12 C0.34 11.67 -0.32 11.34 -1 11 C-2.36817102 4.95724466 -2.36817102 4.95724466 -1.0625 1.5625 C-0.711875 1.046875 -0.36125 0.53125 0 0 Z " fill="#E3353B" transform="translate(131,252)"/>
<path d="M0 0 C2.3125 1.125 2.3125 1.125 4 3 C4.25 6.1875 4.25 6.1875 4 9 C3.34 8.01 2.68 7.02 2 6 C-0.56282742 5.27034634 -0.56282742 5.27034634 -3 5 C-3 4.34 -3 3.68 -3 3 C-4.32 3.33 -5.64 3.66 -7 4 C-7 5.65 -7 7.3 -7 9 C-7.33 9 -7.66 9 -8 9 C-8.36190476 3.57142857 -8.36190476 3.57142857 -6.8125 1.125 C-4.328806 -0.41660317 -2.87933136 -0.42136557 0 0 Z " fill="#34A977" transform="translate(162,59)"/>
<path d="M0 0 C0.33 0 0.66 0 1 0 C1.226875 0.845625 1.45375 1.69125 1.6875 2.5625 C2.83853534 5.57711636 3.72281948 7.02530892 5.6875 9.4375 C7.97650326 12.43596041 8.00712917 12.85028737 7.8125 16.9375 C7.544375 17.948125 7.27625 18.95875 7 20 C6.34 19.67 5.68 19.34 5 19 C4.40644386 16.35139573 4.25790731 13.70802678 4 11 C3.34 11 2.68 11 2 11 C-0.67927341 6.98108988 -0.15601248 4.75838077 0 0 Z " fill="#4B4B4B" transform="translate(66,150)"/>
<path d="M0 0 C-3.81480829 2.65657734 -6.32816115 3.36418214 -10.95703125 3.29296875 C-12.06884766 3.28330078 -13.18066406 3.27363281 -14.32617188 3.26367188 C-15.47666016 3.23853516 -16.62714844 3.21339844 -17.8125 3.1875 C-19.56723633 3.16719727 -19.56723633 3.16719727 -21.35742188 3.14648438 C-24.238752 3.11120278 -27.11913904 3.0619028 -30 3 C-30.33 2.34 -30.66 1.68 -31 1 C-29.88882813 1.02320313 -28.77765625 1.04640625 -27.6328125 1.0703125 C-16.70941959 1.23619756 -16.70941959 1.23619756 -5.98046875 -0.66015625 C-3.69932034 -1.05159592 -2.18510013 -0.70217824 0 0 Z " fill="#FEE7E9" transform="translate(185,148)"/>
<path d="M0 0 C0.99 0.33 1.98 0.66 3 1 C3.33 1.99 3.66 2.98 4 4 C2.85546875 6.04296875 2.85546875 6.04296875 1.1875 8.1875 C0.37345703 9.26064453 0.37345703 9.26064453 -0.45703125 10.35546875 C-0.96621094 10.89816406 -1.47539062 11.44085938 -2 12 C-2.66 12 -3.32 12 -4 12 C-3.45660208 7.43545749 -2.20536179 4.0271824 0 0 Z " fill="#E6E6E6" transform="translate(164,160)"/>
<path d="M0 0 C1.98 0 3.96 0 6 0 C6 2.64 6 5.28 6 8 C5.34 8 4.68 8 4 8 C4 7.34 4 6.68 4 6 C3.34 6 2.68 6 2 6 C2 6.66 2 7.32 2 8 C1.34 8 0.68 8 0 8 C0 5.36 0 2.72 0 0 Z " fill="#BD6467" transform="translate(211,200)"/>
<path d="M0 0 C1.21386936 3.64160808 0.6674695 4.33165469 -0.9375 7.6875 C-1.31777344 8.49574219 -1.69804688 9.30398437 -2.08984375 10.13671875 C-2.39019531 10.75160156 -2.69054687 11.36648437 -3 12 C-3.99 11.67 -4.98 11.34 -6 11 C-6.66 11.99 -7.32 12.98 -8 14 C-8.33 13.34 -8.66 12.68 -9 12 C-8.06692579 10.55962331 -7.12834923 9.12281015 -6.1875 7.6875 C-5.66542969 6.88699219 -5.14335938 6.08648437 -4.60546875 5.26171875 C-3.19610151 3.2762598 -1.77903343 1.6508148 0 0 Z " fill="#EAEAEA" transform="translate(88,161)"/>
<path d="M0 0 C3 1 3 1 4 3 C4.33 2.01 4.66 1.02 5 0 C5.66 0 6.32 0 7 0 C7 2.64 7 5.28 7 8 C6.01 8 5.02 8 4 8 C3.67 7.01 3.34 6.02 3 5 C2.67 5.99 2.34 6.98 2 8 C1.34 8 0.68 8 0 8 C0 5.36 0 2.72 0 0 Z " fill="#B7565B" transform="translate(227,200)"/>
<path d="M0 0 C1.65 0 3.3 0 5 0 C4.44271087 3.34373475 3.64826111 6.03312999 2 9 C1.01 9 0.02 9 -1 9 C-2.0326802 6.21176345 -2.04509293 5.1322726 -1.0625 2.25 C-0.711875 1.5075 -0.36125 0.765 0 0 Z " fill="#494949" transform="translate(240,146)"/>
<path d="M0 0 C0.33 0.66 0.66 1.32 1 2 C-3.65109657 6.90250719 -7.10959038 7.62673979 -13.8046875 7.95703125 C-14.89136719 7.97830078 -14.89136719 7.97830078 -16 8 C-13.55405675 6.36937117 -11.11885106 4.88164436 -8.5625 3.4375 C-7.41974609 2.78587891 -7.41974609 2.78587891 -6.25390625 2.12109375 C-4.15357885 1.07639017 -2.28995149 0.46424985 0 0 Z " fill="#CF303A" transform="translate(182,133)"/>
<path d="M0 0 C2.625 0.375 2.625 0.375 5 1 C5.33 2.65 5.66 4.3 6 6 C3.525 5.01 3.525 5.01 1 4 C1 4.66 1 5.32 1 6 C1.99 6.66 2.98 7.32 4 8 C2.35 8 0.7 8 -1 8 C-1.625 5.125 -1.625 5.125 -2 2 C-1.34 1.34 -0.68 0.68 0 0 Z " fill="#C34C50" transform="translate(181,253)"/>
<path d="M0 0 C1.65 0 3.3 0 5 0 C5.82638376 2.89234315 6 4.88742431 6 8 C5.34 8 4.68 8 4 8 C4 7.34 4 6.68 4 6 C3.34 6 2.68 6 2 6 C2 6.66 2 7.32 2 8 C1.34 8 0.68 8 0 8 C0 5.36 0 2.72 0 0 Z " fill="#C46068" transform="translate(166,200)"/>
<path d="M0 0 C1.23593891 3.70781672 0.5678132 4.67510253 -0.9375 8.1875 C-1.31777344 9.08855469 -1.69804687 9.98960937 -2.08984375 10.91796875 C-2.39019531 11.60503906 -2.69054687 12.29210937 -3 13 C-4.32 12.34 -5.64 11.68 -7 11 C-6.01 9.35 -5.02 7.7 -4 6 C-4.66 5.67 -5.32 5.34 -6 5 C-2.25 1.125 -2.25 1.125 0 0 Z " fill="#F0F0F0" transform="translate(157,162)"/>
<path d="M0 0 C1.32 0 2.64 0 4 0 C4 0.66 4 1.32 4 2 C3.34 2 2.68 2 2 2 C2 2.66 2 3.32 2 4 C2.66 4 3.32 4 4 4 C4 4.99 4 5.98 4 7 C3.34 7 2.68 7 2 7 C2 8.65 2 10.3 2 12 C1.34 12 0.68 12 0 12 C-0.66 9.36 -1.32 6.72 -2 4 C-1.34 4 -0.68 4 0 4 C0 2.68 0 1.36 0 0 Z " fill="#F6C0C0" transform="translate(136,251)"/>
<path d="M0 0 C0.33 0.66 0.66 1.32 1 2 C0.22265625 4.1640625 0.22265625 4.1640625 -0.9375 6.625 C-1.31777344 7.44226563 -1.69804688 8.25953125 -2.08984375 9.1015625 C-2.54037109 10.04128906 -2.54037109 10.04128906 -3 11 C-3.99 10.67 -4.98 10.34 -6 10 C-6.99 11.485 -6.99 11.485 -8 13 C-8.66 12.67 -9.32 12.34 -10 12 C-8.89847594 10.56047403 -7.7936696 9.12345929 -6.6875 7.6875 C-6.07261719 6.88699219 -5.45773438 6.08648437 -4.82421875 5.26171875 C-3.30083693 3.37298626 -1.75565593 1.66922364 0 0 Z " fill="#EBEBEB" transform="translate(99,161)"/>
<path d="M0 0 C1.32 0 2.64 0 4 0 C3.52269162 1.4589426 3.04308958 2.91713496 2.5625 4.375 C2.29566406 5.18710938 2.02882812 5.99921875 1.75390625 6.8359375 C1 9 1 9 0 11 C-0.66 11 -1.32 11 -2 11 C-2.25 3.375 -2.25 3.375 0 0 Z " fill="#3B3B3C" transform="translate(171,157)"/>
<path d="M0 0 C1.65 0 3.3 0 5 0 C4.25 4.75 4.25 4.75 2 7 C1.01 7.495 1.01 7.495 0 8 C0 8.66 0 9.32 0 10 C-0.99 10 -1.98 10 -3 10 C-2.01 6.7 -1.02 3.4 0 0 Z " fill="#3A3B3C" transform="translate(160,157)"/>
<path d="M0 0 C0.33 0 0.66 0 1 0 C1.02696365 1.79158489 1.04637917 3.58328473 1.0625 5.375 C1.07410156 6.37273437 1.08570313 7.37046875 1.09765625 8.3984375 C1 11 1 11 0 13 C-0.2275015 14.87056791 -0.40962811 16.74685958 -0.5625 18.625 C-0.68818359 20.12933594 -0.68818359 20.12933594 -0.81640625 21.6640625 C-0.87699219 22.43492188 -0.93757812 23.20578125 -1 24 C-1.33 24 -1.66 24 -2 24 C-4.4523041 13.92614648 -4.4523041 13.92614648 -2.6875 10.3125 C-2.130625 9.549375 -1.57375 8.78625 -1 8 C-0.44493558 5.32559871 -0.23131331 2.72949705 0 0 Z " fill="#E0F7ED" transform="translate(216,99)"/>
<path d="M0 0 C1.32 0 2.64 0 4 0 C3.67 1.98 3.34 3.96 3 6 C3.66 6.33 4.32 6.66 5 7 C1.98968256 7.93423645 1.13349732 8.04449911 -2 7 C-2.125 4.625 -2.125 4.625 -2 2 C-1.34 1.34 -0.68 0.68 0 0 Z " fill="#F2F2F2" transform="translate(69,148)"/>
<path d="M0 0 C0.66 0.33 1.32 0.66 2 1 C2.72029201 7.8427741 2.72029201 7.8427741 0.69921875 11.08984375 C-0.79691242 12.83592524 -2.27924104 14.4746735 -4 16 C-4.33 16 -4.66 16 -5 16 C-5 14.35 -5 12.7 -5 11 C-3.35 10.67 -1.7 10.34 0 10 C0 6.7 0 3.4 0 0 Z " fill="#C53339" transform="translate(209,119)"/>
<path d="M0 0 C0.33 0 0.66 0 1 0 C1 1.65 1 3.3 1 5 C4.65316671 3.75023244 5.78065836 3.32901247 8 0 C8.66 0 9.32 0 10 0 C8.70689829 2.88461151 7.58442376 5.12852073 5 7 C1.3125 7.6875 1.3125 7.6875 -2 8 C-2.33 7.01 -2.66 6.02 -3 5 C-2.34 4.67 -1.68 4.34 -1 4 C-0.34786708 1.97536745 -0.34786708 1.97536745 0 0 Z " fill="#504F4F" transform="translate(143,169)"/>
<path d="M0 0 C1.65 0 3.3 0 5 0 C4.67 0.99 4.34 1.98 4 3 C3.34 3 2.68 3 2 3 C2.33 3.99 2.66 4.98 3 6 C2.91478259 7.89952346 2.76270916 9.79663573 2.5625 11.6875 C2.40974609 13.17830078 2.40974609 13.17830078 2.25390625 14.69921875 C2.12822266 15.83810547 2.12822266 15.83810547 2 17 C1.34 17 0.68 17 0 17 C0 11.39 0 5.78 0 0 Z " fill="#F2FEF9" transform="translate(151,57)"/>
<path d="M0 0 C-0.99 0.33 -1.98 0.66 -3 1 C-2.34 1.66 -1.68 2.32 -1 3 C-6.445 4.485 -6.445 4.485 -12 6 C-11.67 5.01 -11.34 4.02 -11 3 C-11.66 2.67 -12.32 2.34 -13 2 C-11.5882217 1.46605821 -10.17029756 0.94834896 -8.75 0.4375 C-7.96109375 0.14746094 -7.1721875 -0.14257812 -6.359375 -0.44140625 C-3.80896548 -1.04522837 -2.44677771 -0.8473932 0 0 Z " fill="#D16467" transform="translate(129,38)"/>
<path d="M0 0 C0.33 0 0.66 0 1 0 C1 1.65 1 3.3 1 5 C1.928125 5 2.85625 5 3.8125 5 C5.875 5 7.9375 5 10 5 C7.31273081 7.80410698 5.12347685 8.2663485 1.375 8.375 C-0.9765625 8.3984375 -0.9765625 8.3984375 -3 8 C-3.66 7.01 -4.32 6.02 -5 5 C-3.68 5 -2.36 5 -1 5 C-0.67 3.35 -0.34 1.7 0 0 Z " fill="#D3545C" transform="translate(135,258)"/>
<path d="M0 0 C0.99 0 1.98 0 3 0 C3.66 2.64 4.32 5.28 5 8 C2.69 8 0.38 8 -2 8 C-1.125 2.25 -1.125 2.25 0 0 Z " fill="#C06266" transform="translate(197,200)"/>
<path d="M0 0 C0 0.99 0 1.98 0 3 C-1.98 3.66 -3.96 4.32 -6 5 C-6.66 8.3 -7.32 11.6 -8 15 C-11 11 -11 11 -11.125 8.625 C-9.14014474 3.99367106 -5.16303019 0 0 0 Z " fill="#2D2B2C" transform="translate(143,156)"/>
<path d="M0 0 C0.99 0 1.98 0 3 0 C2.33501617 4.38889325 0.81242323 7.9811485 -1 12 C-2.32 11.67 -3.64 11.34 -5 11 C-4.35474023 9.5414128 -3.7087728 8.08313863 -3.0625 6.625 C-2.70285156 5.81289062 -2.34320313 5.00078125 -1.97265625 4.1640625 C-1.3430097 2.76316215 -0.68687358 1.37374716 0 0 Z " fill="#E3E3E3" transform="translate(123,161)"/>
<path d="M0 0 C2.7500904 5.13350208 3.18149786 8.22378823 2 14 C2.66 14.33 3.32 14.66 4 15 C3.67 15.66 3.34 16.32 3 17 C1 15.8125 1 15.8125 -1 14 C-1.25 11.5625 -1.25 11.5625 -1 9 C-1 7.68 -1 6.36 -1 5 C-0.69595322 3.32774271 -0.36871088 1.65919896 0 0 Z " fill="#585758" transform="translate(156,121)"/>
<path d="M0 0 C0.33 0 0.66 0 1 0 C1 2.64 1 5.28 1 8 C2.65 8 4.3 8 6 8 C6 8.33 6 8.66 6 9 C1.71 9 -2.58 9 -7 9 C-6.34 8.67 -5.68 8.34 -5 8 C-5 7.34 -5 6.68 -5 6 C-4.34 6 -3.68 6 -3 6 C-2.67 6.33 -2.34 6.66 -2 7 C-1.855625 6.030625 -1.71125 5.06125 -1.5625 4.0625 C-1 1 -1 1 0 0 Z " fill="#F0CACB" transform="translate(173,200)"/>
<path d="M0 0 C0.99 0 1.98 0 3 0 C5.21854707 4.62197306 6.38281159 7.76824163 6 13 C3.12744934 10.57804552 2.29161081 8.40257297 1.3125 4.8125 C1.06113281 3.91144531 0.80976562 3.01039063 0.55078125 2.08203125 C0.36902344 1.39496094 0.18726563 0.70789063 0 0 Z " fill="#C7464D" transform="translate(39,198)"/>
<path d="M0 0 C0.33 0 0.66 0 1 0 C1.33 2.97 1.66 5.94 2 9 C1.2575 8.7525 0.515 8.505 -0.25 8.25 C-1.1575 8.1675 -2.065 8.085 -3 8 C-5.33454661 9.83358335 -5.33454661 9.83358335 -7 12 C-7.66 11.67 -8.32 11.34 -9 11 C-8.67 10.01 -8.34 9.02 -8 8 C-8 8.66 -8 9.32 -8 10 C-4.69848622 6.87694642 -2.25094813 3.93915922 0 0 Z " fill="#4F4F4F" transform="translate(168,162)"/>
<path d="M0 0 C0 0.66 0 1.32 0 2 C-0.66 2 -1.32 2 -2 2 C-2.33 3.65 -2.66 5.3 -3 7 C-3.66 6.67 -4.32 6.34 -5 6 C-5.66 7.32 -6.32 8.64 -7 10 C-7.33 7.36 -7.66 4.72 -8 2 C-4.77208445 -0.1519437 -3.71599191 -0.20086443 0 0 Z " fill="#454545" transform="translate(125,159)"/>
<path d="M0 0 C0 0.66 0 1.32 0 2 C-0.763125 2.28875 -1.52625 2.5775 -2.3125 2.875 C-5.15029308 3.96269013 -5.15029308 3.96269013 -8 6 C-9.32 6 -10.64 6 -12 6 C-9.92191188 -0.23426437 -6.0915195 -0.35143382 0 0 Z " fill="#454545" transform="translate(121,156)"/>
<path d="M0 0 C1.5625 1.4375 1.5625 1.4375 3 4 C2.89814705 6.35110554 2.56172938 8.56661692 2.12890625 10.87890625 C1.76708996 13.30513307 1.76708996 13.30513307 4 16 C1.525 15.01 1.525 15.01 -1 14 C-1.06919031 11.50914896 -1.09591102 9.35167374 -0.4375 6.9375 C0.08039923 4.64394628 -0.38350583 3.23479137 -1 1 C-0.67 0.67 -0.34 0.34 0 0 Z " fill="#525252" transform="translate(141,112)"/>
<path d="M0 0 C1.5625 1 1.5625 1 3 3 C2.81941282 5.79910132 2.53544159 8.27507944 2 11 C1.814375 11.99 1.62875 12.98 1.4375 14 C1.2209375 14.99 1.2209375 14.99 1 16 C0.67 16 0.34 16 0 16 C-0.71033431 10.47032059 -1.30267176 5.50016964 0 0 Z " fill="#CC5459" transform="translate(282,178)"/>
<path d="M0 0 C1.65 1.32 3.3 2.64 5 4 C4.67 4.99 4.34 5.98 4 7 C2.15234375 7.73046875 2.15234375 7.73046875 -0.0625 8.1875 C-0.79597656 8.34605469 -1.52945313 8.50460938 -2.28515625 8.66796875 C-2.85105469 8.77753906 -3.41695312 8.88710937 -4 9 C-4 8.01 -4 7.02 -4 6 C-3.34 5.67 -2.68 5.34 -2 5 C-2 4.34 -2 3.68 -2 3 C-1.34 3 -0.68 3 0 3 C0 2.01 0 1.02 0 0 Z " fill="#EDECEE" transform="translate(161,131)"/>
<path d="M0 0 C1.32 0.66 2.64 1.32 4 2 C3.01 2.495 3.01 2.495 2 3 C2.061875 4.2375 2.12375 5.475 2.1875 6.75 C2.37525488 10.50509752 1.43717376 12.15982901 -1 15 C-1.02715383 13.25008666 -1.04646551 11.50005055 -1.0625 9.75 C-1.07410156 8.77546875 -1.08570313 7.8009375 -1.09765625 6.796875 C-1.01195577 4.34241322 -0.70706066 2.33831086 0 0 Z " fill="#D9F5E9" transform="translate(212,96)"/>
<path d="M0 0 C0.66 0.33 1.32 0.66 2 1 C2.29296875 7.0546875 2.29296875 7.0546875 2 9 C1.01 9.66 0.02 10.32 -1 11 C-1.99 10.34 -2.98 9.68 -4 9 C-3.34 8.34 -2.68 7.68 -2 7 C-1.28072705 4.68234271 -0.6090107 2.34904126 0 0 Z " fill="#CF3D46" transform="translate(167,253)"/>
<path d="M0 0 C0.66 0 1.32 0 2 0 C2.33 0.66 2.66 1.32 3 2 C3.33 1.34 3.66 0.68 4 0 C4.66 0 5.32 0 6 0 C6 2.64 6 5.28 6 8 C5.34 8 4.68 8 4 8 C3.67 6.68 3.34 5.36 3 4 C2.34 4 1.68 4 1 4 C0.67 5.32 0.34 6.64 0 8 C0 5.36 0 2.72 0 0 Z " fill="#BC4E55" transform="translate(148,200)"/>
<path d="M0 0 C0.99 0.33 1.98 0.66 3 1 C4.1875 4.5625 4.1875 4.5625 5 8 C2.69 8 0.38 8 -2 8 C-1.125 2.25 -1.125 2.25 0 0 Z " fill="#BB5B61" transform="translate(221,200)"/>
<path d="M0 0 C1.32 0.33 2.64 0.66 4 1 C3.67 2.98 3.34 4.96 3 7 C1.35 7.33 -0.3 7.66 -2 8 C-1.47731534 5.23723823 -0.89130413 2.6739124 0 0 Z " fill="#3D3D3D" transform="translate(123,168)"/>
<path d="M0 0 C0.66 0 1.32 0 2 0 C0.85781803 3.86584668 -0.1718855 7.06311187 -3 10 C-5.1875 10.75 -5.1875 10.75 -7 11 C-5.51131293 6.39860359 -3.25370145 3.49772906 0 0 Z " fill="#E5E3E4" transform="translate(216,161)"/>
<path d="M0 0 C1.2065625 0.0309375 1.2065625 0.0309375 2.4375 0.0625 C2.7675 1.0525 3.0975 2.0425 3.4375 3.0625 C1.7875 2.7325 0.1375 2.4025 -1.5625 2.0625 C-1.21463292 4.03786745 -1.21463292 4.03786745 -0.5625 6.0625 C0.0975 6.3925 0.7575 6.7225 1.4375 7.0625 C1.4375 6.4025 1.4375 5.7425 1.4375 5.0625 C2.0975 5.0625 2.7575 5.0625 3.4375 5.0625 C3.1075 6.0525 2.7775 7.0425 2.4375 8.0625 C-2.4375 7.1875 -2.4375 7.1875 -3.5625 6.0625 C-3.6875 3.5625 -3.6875 3.5625 -3.5625 1.0625 C-2.5625 0.0625 -2.5625 0.0625 0 0 Z " fill="#B6676A" transform="translate(119.5625,199.9375)"/>
<path d="M0 0 C2 1 2 1 3.25 3.25 C4.16384649 6.60077048 3.55829701 7.96997804 2 11 C1.67 11 1.34 11 1 11 C0.67 8.36 0.34 5.72 0 3 C-1.32 4.32 -2.64 5.64 -4 7 C-4.66 6.67 -5.32 6.34 -6 6 C-5.67 5.01 -5.34 4.02 -5 3 C-5 3.66 -5 4.32 -5 5 C-3.35 3.35 -1.7 1.7 0 0 Z " fill="#505050" transform="translate(257,167)"/>
<path d="M0 0 C-1.16757737 3.32310483 -2.14948857 5.83361132 -5 8 C-5.99 8 -6.98 8 -8 8 C-5.18918919 0 -5.18918919 0 0 0 Z " fill="#E1E1E1" transform="translate(153,158)"/>
<path d="M0 0 C1.32 0.33 2.64 0.66 4 1 C1.66153846 7.64615385 1.66153846 7.64615385 -1.6875 9.4375 C-2.450625 9.623125 -3.21375 9.80875 -4 10 C-2.8905928 6.51329166 -1.73662334 3.22515763 0 0 Z " fill="#EBEBEB" transform="translate(106,158)"/>
<path d="M0 0 C0.66 0.33 1.32 0.66 2 1 C1.07038578 2.15224028 0.1309875 3.29659176 -0.8125 4.4375 C-1.59560547 5.39462891 -1.59560547 5.39462891 -2.39453125 6.37109375 C-4 8 -4 8 -7 9 C-7.99 7.68 -8.98 6.36 -10 5 C-8.38007835 4.13624104 -6.75388139 3.28424146 -5.125 2.4375 C-4.22007812 1.96183594 -3.31515625 1.48617187 -2.3828125 0.99609375 C-1.20332031 0.50302734 -1.20332031 0.50302734 0 0 Z " fill="#FCEAE7" transform="translate(195,141)"/>
<path d="M0 0 C1.125 1.6875 1.125 1.6875 2 4 C1.125 6.75 1.125 6.75 0 9 C1.32 9 2.64 9 4 9 C3.34 10.65 2.68 12.3 2 14 C0 13 0 13 -2 10 C-1.6875 7.625 -1.6875 7.625 -1 5 C-0.814375 4.071875 -0.62875 3.14375 -0.4375 2.1875 C-0.293125 1.465625 -0.14875 0.74375 0 0 Z " fill="#E3E3E3" transform="translate(144,115)"/>
<path d="M0 0 C1.97349402 2.22018077 2.95033749 3.50337491 3.25 6.5 C3 9 3 9 2.375 11.125 C2.25125 11.74375 2.1275 12.3625 2 13 C2.99 14.485 2.99 14.485 4 16 C0.24495289 14.54643338 0.24495289 14.54643338 -0.8125 12.1875 C-1.03251916 9.62060984 -0.5156938 7.51400729 0 5 C-0.33 4.01 -0.66 3.02 -1 2 C-0.67 1.34 -0.34 0.68 0 0 Z " fill="#4F4F4F" transform="translate(171,110)"/>
<path d="M0 0 C0.33 0 0.66 0 1 0 C1.53132389 2.58157368 2.05034379 5.16461756 2.5625 7.75 C2.78969727 8.84441406 2.78969727 8.84441406 3.02148438 9.9609375 C3.74557178 13.66557073 4.09817231 16.39322322 3 20 C1 17 1 17 1.375 14.8125 C1.58125 14.214375 1.7875 13.61625 2 13 C1.34 13 0.68 13 0 13 C0 8.71 0 4.42 0 0 Z " fill="#FAD5D5" transform="translate(33,173)"/>
<path d="M0 0 C2.95183101 2.95183101 3.08663988 5.95511947 4 10 C3.01 9.67 2.02 9.34 1 9 C0.67 9.66 0.34 10.32 0 11 C-0.66 8.03 -1.32 5.06 -2 2 C-1.34 2 -0.68 2 0 2 C0 1.34 0 0.68 0 0 Z " fill="#D05C63" transform="translate(278,114)"/>
<path d="M0 0 C1.38087404 3.83576122 0.94284862 7.08355188 0 11 C-2.0625 12.4375 -2.0625 12.4375 -4 13 C-3.40895235 8.15340923 -2.02055843 4.39251833 0 0 Z " fill="#F0F1F1" transform="translate(287,210)"/>
<path d="M0 0 C1.98 0 3.96 0 6 0 C4.68 0.33 3.36 0.66 2 1 C2 1.66 2 2.32 2 3 C2.99 3 3.98 3 5 3 C5 3.66 5 4.32 5 5 C4.01 5 3.02 5 2 5 C2 5.66 2 6.32 2 7 C3.32 7.33 4.64 7.66 6 8 C4.02 8 2.04 8 0 8 C0 5.36 0 2.72 0 0 Z " fill="#B1575A" transform="translate(156,200)"/>
<path d="M0 0 C-0.33 2.31 -0.66 4.62 -1 7 C-2.65 7 -4.3 7 -6 7 C-5.6875 4.625 -5.6875 4.625 -5 2 C-2 0 -2 0 0 0 Z " fill="#3A3A3A" transform="translate(234,169)"/>
<path d="M0 0 C1.65 0 3.3 0 5 0 C4.50168276 3.68754757 3.89932357 5.60490662 1 8 C0 7 0 7 -0.0625 3.4375 C-0.041875 2.303125 -0.02125 1.16875 0 0 Z " fill="#393939" transform="translate(80,157)"/>
<path d="M0 0 C-2.35380297 3.92300495 -4.64464931 4.83857315 -9 6 C-9 4.68 -9 3.36 -9 2 C-5.86501708 0.14223235 -3.62528568 -0.20140476 0 0 Z " fill="#EDEDED" transform="translate(106,32)"/>
<path d="M0 0 C0.53625 0.37125 1.0725 0.7425 1.625 1.125 C1.295 1.785 0.965 2.445 0.625 3.125 C-2.02360427 3.71855614 -4.66697322 3.86709269 -7.375 4.125 C-7.705 3.135 -8.035 2.145 -8.375 1.125 C-2.95961538 -1.09038462 -2.95961538 -1.09038462 0 0 Z " fill="#CF4346" transform="translate(189.375,261.875)"/>
<path d="M0 0 C3.81684226 1.55500981 6.19195732 4.03595495 9 7 C4.96825194 6.72510809 3.43105369 6.46508424 0.625 3.4375 C-0.179375 2.2309375 -0.179375 2.2309375 -1 1 C-0.67 0.67 -0.34 0.34 0 0 Z " fill="#C3474C" transform="translate(79,255)"/>
<path d="M0 0 C1.65 0 3.3 0 5 0 C4.67 1.98 4.34 3.96 4 6 C2.35 6 0.7 6 -1 6 C-0.67 4.02 -0.34 2.04 0 0 Z " fill="#494949" transform="translate(248,146)"/>
<path d="M0 0 C4.95 0.99 4.95 0.99 10 2 C8.68 2.33 7.36 2.66 6 3 C6.33 3.99 6.66 4.98 7 6 C4.625 5.8125 4.625 5.8125 2 5 C0.6875 2.4375 0.6875 2.4375 0 0 Z " fill="#D54E58" transform="translate(175,260)"/>
<path d="M0 0 C1.32 0.33 2.64 0.66 4 1 C3.67 3.97 3.34 6.94 3 10 C2.01 9.67 1.02 9.34 0 9 C0 6.03 0 3.06 0 0 Z " fill="#E6353D" transform="translate(140,251)"/>
<path d="M0 0 C0.33 1.32 0.66 2.64 1 4 C1.66 4 2.32 4 3 4 C1.95125002 6.62187494 1.35068687 7.79371361 -1.125 9.25 C-1.74375 9.4975 -2.3625 9.745 -3 10 C-2.39009109 6.44219804 -1.4216319 3.3171411 0 0 Z " fill="#424242" transform="translate(98,165)"/>
<path d="M0 0 C0.86625 0.3403125 0.86625 0.3403125 1.75 0.6875 C1.0384375 1.5228125 1.0384375 1.5228125 0.3125 2.375 C-1.37395996 4.87096074 -1.83953107 6.7321237 -2.25 9.6875 C-4.25 5.9375 -4.25 5.9375 -4.25 3.6875 C-4.91 3.3575 -5.57 3.0275 -6.25 2.6875 C-2.80384615 -0.38942308 -2.80384615 -0.38942308 0 0 Z " fill="#474747" transform="translate(60.25,163.3125)"/>
<path d="M0 0 C-2.37050084 2.62002725 -4.87276017 4.35819909 -8 6 C-8.99 6 -9.98 6 -11 6 C-10.03628506 3.59071265 -9.34789837 2.23992991 -7.1875 0.75 C-4.67678635 -0.11081611 -2.63651351 -0.14647297 0 0 Z " fill="#C4454E" transform="translate(101,50)"/>
<path d="M0 0 C-1 3 -1 3 -3.3125 4.25 C-6.09873015 5.0275526 -7.33438378 4.98726527 -10 4 C-9 2 -9 2 -6.6875 0.875 C-4 0 -4 0 0 0 Z " fill="#C7474D" transform="translate(118,41)"/>
<path d="M0 0 C0.433125 0.66 0.86625 1.32 1.3125 2 C5.51781411 5.12953609 9.92749266 4.31484528 15 4 C14.67 4.66 14.34 5.32 14 6 C11.27734375 6.4140625 11.27734375 6.4140625 7.9375 6.625 C6.83277344 6.69976562 5.72804687 6.77453125 4.58984375 6.8515625 C3.73519531 6.90054687 2.88054687 6.94953125 2 7 C0.5393715 4.35261084 0 3.10551666 0 0 Z " fill="#FCDCD7" transform="translate(151,261)"/>
<path d="M0 0 C1.32 0 2.64 0 4 0 C3.67 0.66 3.34 1.32 3 2 C2.34 1.67 1.68 1.34 1 1 C1 3.64 1 6.28 1 9 C1.66 9.33 2.32 9.66 3 10 C1.35 10 -0.3 10 -2 10 C-1.67 9.34 -1.34 8.68 -1 8 C-1.28112064 5.99199544 -1.61067967 3.98985949 -2 2 C-1.34 2 -0.68 2 0 2 C0 1.34 0 0.68 0 0 Z " fill="#FBD8DA" transform="translate(226,199)"/>
<path d="M0 0 C0.05399736 1.45792884 0.09279177 2.91642712 0.125 4.375 C0.14820313 5.18710938 0.17140625 5.99921875 0.1953125 6.8359375 C0 9 0 9 -2 11 C-3.60725635 7.78548731 -3.05748185 4.56387464 -3 1 C-1 0 -1 0 0 0 Z " fill="#E3E1E2" transform="translate(139,166)"/>
<path d="M0 0 C3.3 0 6.6 0 10 0 C10 0.33 10 0.66 10 1 C8.35 1.33 6.7 1.66 5 2 C5.99 2.66 6.98 3.32 8 4 C5.03 4 2.06 4 -1 4 C-0.67 2.68 -0.34 1.36 0 0 Z " fill="#D22029" transform="translate(150,143)"/>
<path d="M0 0 C7.75 0.875 7.75 0.875 10 2 C10 2.66 10 3.32 10 4 C6.7 4 3.4 4 0 4 C0.66 3.34 1.32 2.68 2 2 C1.34 1.34 0.68 0.68 0 0 Z " fill="#D25962" transform="translate(178,34)"/>
<path d="M0 0 C1.31611677 0.95336021 2.62778961 1.91285774 3.9375 2.875 C4.66839844 3.40867188 5.39929688 3.94234375 6.15234375 4.4921875 C8 6 8 6 9 8 C8.01 8.33 7.02 8.66 6 9 C0.77678571 4.17857143 0.77678571 4.17857143 0 0 Z " fill="#FCE8E7" transform="translate(72,252)"/>
<path d="M0 0 C0 1.98 0 3.96 0 6 C-1.65 6.33 -3.3 6.66 -5 7 C-4.67 5.02 -4.34 3.04 -4 1 C-1 0 -1 0 0 0 Z " fill="#3A3A3A" transform="translate(89,169)"/>
<path d="M0 0 C0.66 0 1.32 0 2 0 C2.08131463 1.43655854 2.13933559 2.8744483 2.1875 4.3125 C2.23970703 5.51326172 2.23970703 5.51326172 2.29296875 6.73828125 C1.93801608 9.47851584 1.10633718 10.29171079 -1 12 C-1.02687279 10.18757948 -1.04633715 8.37504767 -1.0625 6.5625 C-1.07410156 5.55316406 -1.08570313 4.54382813 -1.09765625 3.50390625 C-1 1 -1 1 0 0 Z " fill="#2C9167" transform="translate(214,98)"/>
<path d="M0 0 C0.99 0 1.98 0 3 0 C3 0.66 3 1.32 3 2 C4.32 2.33 5.64 2.66 7 3 C7.33 4.32 7.66 5.64 8 7 C8.66 7 9.32 7 10 7 C9.67 7.99 9.34 8.98 9 10 C7.49702124 8.52386015 5.99768715 7.04400843 4.5 5.5625 C3.6646875 4.73878906 2.829375 3.91507812 1.96875 3.06640625 C0 1 0 1 0 0 Z " fill="#FEE4E5" transform="translate(245,65)"/>
<path d="M0 0 C0.33 0 0.66 0 1 0 C1.125 2.875 1.125 2.875 1 6 C-1 8 -1 8 -4.125 8.125 C-5.548125 8.063125 -5.548125 8.063125 -7 8 C-6.34 7.34 -5.68 6.68 -5 6 C-4.01 6 -3.02 6 -2 6 C-2.33 4.68 -2.66 3.36 -3 2 C-2.01 2 -1.02 2 0 2 C0 1.34 0 0.68 0 0 Z " fill="#179B61" transform="translate(164,63)"/>
<path d="M0 0 C1.485 0.99 1.485 0.99 3 2 C5.32387947 2.39387788 7.65793749 2.73486085 10 3 C8.71034824 4.37562854 7.37310707 5.70766393 6 7 C5.34 7 4.68 7 4 7 C4 6.34 4 5.68 4 5 C3.01 5 2.02 5 1 5 C1 4.01 1 3.02 1 2 C0.34 1.67 -0.32 1.34 -1 1 C-0.67 0.67 -0.34 0.34 0 0 Z " fill="#FBE4DD" transform="translate(129,263)"/>
<path d="M0 0 C0.33 0 0.66 0 1 0 C0.67 2.64 0.34 5.28 0 8 C0.66 8.33 1.32 8.66 2 9 C0.35 8.67 -1.3 8.34 -3 8 C-3 6.02 -3 4.04 -3 2 C-2.01 2 -1.02 2 0 2 C0 1.34 0 0.68 0 0 Z " fill="#FAE7E7" transform="translate(195,200)"/>
<path d="M0 0 C0.66 0 1.32 0 2 0 C1.62671065 5.35048061 0.0042343 7.50912907 -4 11 C-3.39301257 6.87248551 -1.96189209 3.6678852 0 0 Z " fill="#454545" transform="translate(201,163)"/>
<path d="M0 0 C0.99 1.32 1.98 2.64 3 4 C2.34 5.32 1.68 6.64 1 8 C-0.32 8 -1.64 8 -3 8 C-1.125 2.25 -1.125 2.25 0 0 Z " fill="#484848" transform="translate(233,162)"/>
<path d="M0 0 C-0.74250597 4.08378283 -1.82923301 8.01939223 -3 12 C-3.33 12 -3.66 12 -4 12 C-4 8.37 -4 4.74 -4 1 C-2 0 -2 0 0 0 Z " fill="#323232" transform="translate(113,161)"/>
<path d="M0 0 C1.32 0 2.64 0 4 0 C3.6875 2.875 3.6875 2.875 3 6 C2.01 6.66 1.02 7.32 0 8 C0 5.36 0 2.72 0 0 Z " fill="#3C3A3B" transform="translate(128,157)"/>
<path d="M0 0 C1.65 0 3.3 0 5 0 C4.67 1.65 4.34 3.3 4 5 C2.68 5 1.36 5 0 5 C0 3.35 0 1.7 0 0 Z " fill="#3A3A3A" transform="translate(226,157)"/>
<path d="M0 0 C1.32 0.33 2.64 0.66 4 1 C-0.455 3.97 -0.455 3.97 -5 7 C-5.33 5.68 -5.66 4.36 -6 3 C-4.02 2.67 -2.04 2.34 0 2 C0 1.34 0 0.68 0 0 Z " fill="#CA343D" transform="translate(197,137)"/>
<path d="M0 0 C2.475 0.495 2.475 0.495 5 1 C5.33 1.99 5.66 2.98 6 4 C4.35 4.33 2.7 4.66 1 5 C0.67 3.35 0.34 1.7 0 0 Z " fill="#E1696A" transform="translate(157,255)"/>
<path d="M0 0 C0.66 0.33 1.32 0.66 2 1 C0.84826645 3.46800047 -0.04783565 5.04783565 -2 7 C-3.32 6.67 -4.64 6.34 -6 6 C-4.02 4.02 -2.04 2.04 0 0 Z " fill="#C54046" transform="translate(249,246)"/>
<path d="M0 0 C1.65 0 3.3 0 5 0 C4.875 1.875 4.875 1.875 4 4 C0.9375 5.25 0.9375 5.25 -2 6 C-1.34 4.02 -0.68 2.04 0 0 Z " fill="#5F5F5F" transform="translate(214,146)"/>
<path d="M0 0 C1.33804688 0.04060547 1.33804688 0.04060547 2.703125 0.08203125 C3.37859375 0.11683594 4.0540625 0.15164062 4.75 0.1875 C4.75 0.5175 4.75 0.8475 4.75 1.1875 C3.17085985 1.72091184 1.58645613 2.23875763 0 2.75 C-0.88171875 3.04003906 -1.7634375 3.33007812 -2.671875 3.62890625 C-5.32834316 4.20447435 -6.72031106 4.07998371 -9.25 3.1875 C-6.10408067 0.38704377 -4.182936 -0.16511589 0 0 Z " fill="#555555" transform="translate(72.25,145.8125)"/>
<path d="M0 0 C0.66 0.99 1.32 1.98 2 3 C1.34 3.66 0.68 4.32 0 5 C-0.99 5 -1.98 5 -3 5 C-3 5.66 -3 6.32 -3 7 C-3.66 7 -4.32 7 -5 7 C-5.33 7.66 -5.66 8.32 -6 9 C-6.33 8.01 -6.66 7.02 -7 6 C-4.69 4.02 -2.38 2.04 0 0 Z " fill="#FDE8E8" transform="translate(207,132)"/>
<path d="M0 0 C0.99 0.99 1.98 1.98 3 3 C2.01 4.98 1.02 6.96 0 9 C-0.99 8.34 -1.98 7.68 -3 7 C-1.125 2.25 -1.125 2.25 0 0 Z " fill="#CE575F" transform="translate(48,99)"/>
<path d="M0 0 C2.78211944 0.37596209 4.5879284 0.67318459 6.8125 2.4375 C8 4 8 4 8 6 C4.65750371 5.40312566 2.53563658 4.26396123 0 2 C0 1.34 0 0.68 0 0 Z " fill="#C9434D" transform="translate(244,68)"/>
<path d="M0 0 C5.625 -0.25 5.625 -0.25 9 2 C9 2.66 9 3.32 9 4 C5.87709365 3.51421457 3.00419641 3.0013988 0 2 C0 1.34 0 0.68 0 0 Z " fill="#C8434C" transform="translate(197,40)"/>
<path d="M0 0 C0 0.66 0 1.32 0 2 C-2.64 2.66 -5.28 3.32 -8 4 C-8 3.01 -8 2.02 -8 1 C-4.93251126 -0.86240388 -3.40254489 -1.2151946 0 0 Z " fill="#EBEBEB" transform="translate(120,27)"/>
<path d="M0 0 C1.65 0 3.3 0 5 0 C-3.44827586 7 -3.44827586 7 -7 7 C-7 6.34 -7 5.68 -7 5 C-5.5459375 4.5978125 -5.5459375 4.5978125 -4.0625 4.1875 C-3.051875 3.795625 -2.04125 3.40375 -1 3 C-0.67 2.01 -0.34 1.02 0 0 Z " fill="#FCE1DF" transform="translate(225,262)"/>
<path d="M0 0 C0.99 0.33 1.98 0.66 3 1 C3 3.64 3 6.28 3 9 C2.34 8.01 1.68 7.02 1 6 C0.34 6.99 -0.32 7.98 -1 9 C-1.09765625 2.84765625 -1.09765625 2.84765625 -1 1 C-0.67 0.67 -0.34 0.34 0 0 Z " fill="#D35758" transform="translate(152,252)"/>
<path d="M0 0 C2.31 0 4.62 0 7 0 C6.01 0.33 5.02 0.66 4 1 C4 3.31 4 5.62 4 8 C3.34 8 2.68 8 2 8 C2 6.02 2 4.04 2 2 C1.34 2 0.68 2 0 2 C0 1.34 0 0.68 0 0 Z " fill="#AE6365" transform="translate(235,200)"/>
<path d="M0 0 C0.804375 0.4640625 0.804375 0.4640625 1.625 0.9375 C4.3984957 2.17827439 7.00042837 2.5909675 10 3 C9.67 3.66 9.34 4.32 9 5 C6.69 5 4.38 5 2 5 C1.34 3.35 0.68 1.7 0 0 Z " fill="#3F3F3F" transform="translate(214,176)"/>
<path d="M0 0 C0.99 0.33 1.98 0.66 3 1 C2.67 2.98 2.34 4.96 2 7 C1.01 7 0.02 7 -1 7 C-1.99 7.495 -1.99 7.495 -3 8 C-1.125 2.25 -1.125 2.25 0 0 Z " fill="#E3E3E3" transform="translate(249,156)"/>
<path d="M0 0 C-0.33 2.31 -0.66 4.62 -1 7 C-1.61875 6.360625 -2.2375 5.72125 -2.875 5.0625 C-4.82597612 2.96116416 -4.82597612 2.96116416 -7 2 C-4 0 -4 0 0 0 Z " fill="#403F3F" transform="translate(223,157)"/>
<path d="M0 0 C1.12588014 0.95729916 2.2506715 1.91587895 3.375 2.875 C4.00148437 3.40867188 4.62796875 3.94234375 5.2734375 4.4921875 C6.55836651 5.61432007 7.79371975 6.79371975 9 8 C7.25 8.75 7.25 8.75 5 9 C2.23733334 6.94773334 1.1594602 5.58468741 0.25 2.25 C0.1675 1.5075 0.085 0.765 0 0 Z " fill="#FBE7E4" transform="translate(134,137)"/>
<path d="M0 0 C0 0.33 0 0.66 0 1 C-0.59167969 1.12117188 -1.18335938 1.24234375 -1.79296875 1.3671875 C-6.03803585 2.26744643 -10.02439661 3.20456621 -14 5 C-13 2 -13 2 -10.9375 0.25 C-6.85452513 -1.48743611 -4.3268089 -0.80669319 0 0 Z " fill="#F2E8E2" transform="translate(206,114)"/>
<path d="M0 0 C1.32 0 2.64 0 4 0 C4 0.99 4 1.98 4 3 C0.535 4.485 0.535 4.485 -3 6 C-2.42655063 3.13275314 -2.1385485 2.1385485 0 0 Z " fill="#D7363B" transform="translate(181,248)"/>
<path d="M0 0 C0.66 0.33 1.32 0.66 2 1 C1.01 2.98 0.02 4.96 -1 7 C-1.99 7 -2.98 7 -4 7 C-4 4 -4 4 -2 1.8125 C-1.34 1.214375 -0.68 0.61625 0 0 Z " fill="#CE565B" transform="translate(254,240)"/>
<path d="M0 0 C1.65 0 3.3 0 5 0 C4.25 4.75 4.25 4.75 2 7 C0 1.125 0 1.125 0 0 Z " fill="#454545" transform="translate(101,157)"/>
<path d="M0 0 C1.32 0 2.64 0 4 0 C3.67 1.65 3.34 3.3 3 5 C1.35 5 -0.3 5 -2 5 C-1.34 3.35 -0.68 1.7 0 0 Z " fill="#454545" transform="translate(263,157)"/>
<path d="M0 0 C3.14624993 -0.26218749 4.61837017 -0.24754367 7.3125 1.5 C8.1478125 2.2425 8.1478125 2.2425 9 3 C8.67 3.99 8.34 4.98 8 6 C6 6 6 6 4 4.125 C3.34 3.42375 2.68 2.7225 2 2 C1.34 1.34 0.68 0.68 0 0 Z " fill="#EBECEB" transform="translate(240,48)"/>
<path d="M0 0 C0.33 0 0.66 0 1 0 C1.33 3.3 1.66 6.6 2 10 C0.35 10.33 -1.3 10.66 -3 11 C-2.34 10.01 -1.68 9.02 -1 8 C-0.54860541 5.9507906 -0.54860541 5.9507906 -0.375 3.8125 C-0.25125 2.554375 -0.1275 1.29625 0 0 Z " fill="#FDDBD9" transform="translate(169,254)"/>
<path d="M0 0 C0.66 0.66 1.32 1.32 2 2 C1.67028521 5.29714793 1.3773161 6.6226839 -1 9 C-1.625 6.1875 -1.625 6.1875 -2 3 C-1.34 2.01 -0.68 1.02 0 0 Z " fill="#313131" transform="translate(167,168)"/>
<path d="M0 0 C0.66 0.33 1.32 0.66 2 1 C1.67 3.31 1.34 5.62 1 8 C0.01 8.33 -0.98 8.66 -2 9 C-1.125 2.25 -1.125 2.25 0 0 Z " fill="#4C4C4C" transform="translate(248,167)"/>
<path d="M0 0 C0.99 1.32 1.98 2.64 3 4 C1.625 6 1.625 6 0 8 C-0.66 8 -1.32 8 -2 8 C-1.125 2.25 -1.125 2.25 0 0 Z " fill="#E1E1E1" transform="translate(254,164)"/>
<path d="M0 0 C0.99 0 1.98 0 3 0 C2.67 1.65 2.34 3.3 2 5 C0.68 5 -0.64 5 -2 5 C-1.125 1.125 -1.125 1.125 0 0 Z " fill="#484848" transform="translate(231,149)"/>
<path d="M0 0 C-2.41698499 1.94918144 -4.18746401 3.00815254 -7.3359375 2.9765625 C-9.57364473 2.71537901 -11.78327805 2.40084514 -14 2 C-14 1.67 -14 1.34 -14 1 C-12.41913952 0.63495397 -10.83516093 0.28339494 -9.25 -0.0625 C-8.36828125 -0.25972656 -7.4865625 -0.45695313 -6.578125 -0.66015625 C-4.01320972 -0.99825872 -2.42908361 -0.81158635 0 0 Z " fill="#FACDCC" transform="translate(185,148)"/>
<path d="M0 0 C1.15518918 0.90484792 2.29885406 1.8244206 3.4375 2.75 C4.07558594 3.26046875 4.71367187 3.7709375 5.37109375 4.296875 C7.18810554 6.19667629 7.60423197 7.43586908 8 10 C4.82537057 7.59757773 2.14248259 5.38286724 0 2 C0 1.34 0 0.68 0 0 Z " fill="#AB525B" transform="translate(129,129)"/>
<path d="M0 0 C0.99 0.33 1.98 0.66 3 1 C0.36 3.64 -2.28 6.28 -5 9 C-5.33 8.01 -5.66 7.02 -6 6 C-5.01 5.67 -4.02 5.34 -3 5 C-3 4.34 -3 3.68 -3 3 C-1.5 1.375 -1.5 1.375 0 0 Z " fill="#FEEEEC" transform="translate(183,126)"/>
<path d="M0 0 C0.33 0.99 0.66 1.98 1 3 C-5.625 5 -5.625 5 -9 5 C-7.87926138 4.16094435 -6.75325453 3.32892169 -5.625 2.5 C-4.99851562 2.0359375 -4.37203125 1.571875 -3.7265625 1.09375 C-2 0 -2 0 0 0 Z " fill="#F9DDDA" transform="translate(100,52)"/>
<path d="M0 0 C-1.1875 1.5 -1.1875 1.5 -3 3 C-5.6875 3.1875 -5.6875 3.1875 -8 3 C-8.33 2.01 -8.66 1.02 -9 0 C-5.62182575 -0.84454356 -3.32534757 -1.10844919 0 0 Z " fill="#CB5154" transform="translate(182,283)"/>
<path d="M0 0 C-2.57642867 2.11635213 -4.62505968 3.67339287 -8 4 C-8.99 3.34 -9.98 2.68 -11 2 C-9.54494642 1.47007308 -8.08581873 0.9513211 -6.625 0.4375 C-5.81289062 0.14746094 -5.00078125 -0.14257812 -4.1640625 -0.44140625 C-2 -1 -2 -1 0 0 Z " fill="#FBDFDF" transform="translate(205,280)"/>
<path d="M0 0 C0.99 0.33 1.98 0.66 3 1 C2.67 3.31 2.34 5.62 2 8 C1.34 7.67 0.68 7.34 0 7 C0 4.69 0 2.38 0 0 Z " fill="#C6464A" transform="translate(283,173)"/>
<path d="M0 0 C0.66 0.33 1.32 0.66 2 1 C1.34 2.98 0.68 4.96 0 7 C-0.99 6.34 -1.98 5.68 -3 5 C-2.625 3.0625 -2.625 3.0625 -2 1 C-1.34 0.67 -0.68 0.34 0 0 Z " fill="#EFEFEF" transform="translate(237,167)"/>
<path d="M0 0 C1.5625 1.1875 1.5625 1.1875 3 3 C2.6875 5.6875 2.6875 5.6875 2 8 C0.68 7.01 -0.64 6.02 -2 5 C-1.34 3.35 -0.68 1.7 0 0 Z " fill="#424242" transform="translate(251,160)"/>
<path d="M0 0 C0.625 1.8125 0.625 1.8125 1 4 C0.01 5.485 0.01 5.485 -1 7 C-1.66 7 -2.32 7 -3 7 C-3 5.02 -3 3.04 -3 1 C-2.01 0.67 -1.02 0.34 0 0 Z " fill="#4D4D4D" transform="translate(207,147)"/>
<path d="M0 0 C1.65 1.65 3.3 3.3 5 5 C3.68 5.33 2.36 5.66 1 6 C0.01 4.35 -0.98 2.7 -2 1 C-1.34 0.67 -0.68 0.34 0 0 Z " fill="#C8535C" transform="translate(252,73)"/>
<path d="M0 0 C2.64 0.33 5.28 0.66 8 1 C7.67 1.66 7.34 2.32 7 3 C4.69 3 2.38 3 0 3 C0 2.01 0 1.02 0 0 Z " fill="#C44449" transform="translate(173,34)"/>
<path d="M0 0 C2 3 2 3 2 6 C1.34 6 0.68 6 0 6 C0.33 6.99 0.66 7.98 1 9 C0.34 9 -0.32 9 -1 9 C-1.625 5.625 -1.625 5.625 -2 2 C-1.34 1.34 -0.68 0.68 0 0 Z " fill="#DF5058" transform="translate(134,249)"/>
<path d="M0 0 C0.66 0 1.32 0 2 0 C2.99 2.31 3.98 4.62 5 7 C4.01 7.33 3.02 7.66 2 8 C0.23537317 4.91190305 0 3.76687864 0 0 Z " fill="#EDEEEE" transform="translate(32,213)"/>
<path d="M0 0 C0.99 0 1.98 0 3 0 C2.67 2.64 2.34 5.28 2 8 C1.34 8 0.68 8 0 8 C0 5.36 0 2.72 0 0 Z " fill="#BC5459" transform="translate(78,200)"/>
<path d="M0 0 C-0.25 1.875 -0.25 1.875 -1 4 C-3.0625 5.25 -3.0625 5.25 -5 6 C-5 4.68 -5 3.36 -5 2 C-2 0 -2 0 0 0 Z " fill="#F4F2F3" transform="translate(213,170)"/>
<path d="M0 0 C0.66 0.66 1.32 1.32 2 2 C1.8125 5 1.8125 5 1 8 C0.01 8.66 -0.98 9.32 -2 10 C-2 8.68 -2 7.36 -2 6 C-1.34 6 -0.68 6 0 6 C0 4.02 0 2.04 0 0 Z " fill="#363636" transform="translate(119,163)"/>
<path d="M0 0 C1.125 1.5 1.125 1.5 2 4 C1.57598348 6.7773082 0.81108065 9.29639783 0 12 C-0.33 12 -0.66 12 -1 12 C-1.02712066 10.56260487 -1.04645067 9.12506137 -1.0625 7.6875 C-1.07410156 6.88699219 -1.08570313 6.08648437 -1.09765625 5.26171875 C-1 3 -1 3 0 0 Z " fill="#464646" transform="translate(184,160)"/>
<path d="M0 0 C1.65 0 3.3 0 5 0 C3.02 2.31 1.04 4.62 -1 7 C-1.33 6.34 -1.66 5.68 -2 5 C-1.0625 2.375 -1.0625 2.375 0 0 Z " fill="#D4D2D3" transform="translate(132,158)"/>
<path d="M0 0 C0.33 0 0.66 0 1 0 C1 3.63 1 7.26 1 11 C-0.98 11.99 -0.98 11.99 -3 13 C-2.690625 12.34 -2.38125 11.68 -2.0625 11 C-0.75039745 7.29523985 -0.39735865 3.90736009 0 0 Z " fill="#BAE7D5" transform="translate(216,99)"/>
<path d="M0 0 C0.99 0.33 1.98 0.66 3 1 C1.02 3.97 1.02 3.97 -1 7 C-1.66 6.01 -2.32 5.02 -3 4 C-2.01 2.68 -1.02 1.36 0 0 Z " fill="#FBEAE6" transform="translate(62,74)"/>
<path d="M0 0 C2.31 1.65 4.62 3.3 7 5 C6.34 5.66 5.68 6.32 5 7 C2.5 5.75 2.5 5.75 0 4 C0 2.68 0 1.36 0 0 Z " fill="#E89498" transform="translate(181,255)"/>
<path d="M0 0 C1.65 0 3.3 0 5 0 C4.67 2.31 4.34 4.62 4 7 C3.34 7 2.68 7 2 7 C1.34 4.69 0.68 2.38 0 0 Z " fill="#FADCD5" transform="translate(134,256)"/>
<path d="M0 0 C0.99 0 1.98 0 3 0 C3 1.98 3 3.96 3 6 C2.01 6 1.02 6 0 6 C0 4.02 0 2.04 0 0 Z " fill="#FEEEEE" transform="translate(106,202)"/>
<path d="M0 0 C1.10844919 3.32534757 0.84454356 5.62182575 0 9 C-0.66 9 -1.32 9 -2 9 C-1.125 2.25 -1.125 2.25 0 0 Z " fill="#4C4C4C" transform="translate(156,167)"/>
<path d="M0 0 C1.32 0.66 2.64 1.32 4 2 C1.525 3.485 1.525 3.485 -1 5 C-1.99 4.34 -2.98 3.68 -4 3 C-2.68 2.01 -1.36 1.02 0 0 Z " fill="#474848" transform="translate(195,147)"/>
<path d="M0 0 C-2.62198774 2.15377564 -4.64404172 3.40072174 -8 4 C-8 3.01 -8 2.02 -8 1 C-5.29120665 -0.35439668 -2.99066732 -0.06501451 0 0 Z " fill="#FDEAE1" transform="translate(175,136)"/>
<path d="M0 0 C1.32 0 2.64 0 4 0 C4.66 1.65 5.32 3.3 6 5 C4.68 5 3.36 5 2 5 C1.34 3.35 0.68 1.7 0 0 Z " fill="#CA5559" transform="translate(269,101)"/>
<path d="M0 0 C0.99 0.33 1.98 0.66 3 1 C1.25 4.875 1.25 4.875 -1 6 C-1 5.34 -1 4.68 -1 4 C-1.66 3.67 -2.32 3.34 -3 3 C-2.01 2.01 -1.02 1.02 0 0 Z " fill="#CB585C" transform="translate(77,63)"/>
<path d="M0 0 C0.66 0.33 1.32 0.66 2 1 C0.02 3.31 -1.96 5.62 -4 8 C-4.66 7.34 -5.32 6.68 -6 6 C-4 4 -2 2 0 0 Z " fill="#F1F4F0" transform="translate(70,50)"/>
<path d="M0 0 C1.98 0 3.96 0 6 0 C6.33 0.99 6.66 1.98 7 3 C6.01 4.485 6.01 4.485 5 6 C3.35 4.02 1.7 2.04 0 0 Z " fill="#F29392" transform="translate(157,252)"/>
<path d="M0 0 C3.875 4.75 3.875 4.75 5 7 C3.68 7.33 2.36 7.66 1 8 C-0.35439668 5.29120665 -0.06501451 2.99066732 0 0 Z " fill="#CA5057" transform="translate(53,223)"/>
<path d="M0 0 C0.33 0 0.66 0 1 0 C1.25 2.8125 1.25 2.8125 1 6 C-1 7.875 -1 7.875 -3 9 C-2.01 6.03 -1.02 3.06 0 0 Z " fill="#FCDEDB" transform="translate(278,206)"/>
<path d="M0 0 C0 0.99 0 1.98 0 3 C-0.99 3.33 -1.98 3.66 -3 4 C-3 3.34 -3 2.68 -3 2 C-3.99 2 -4.98 2 -6 2 C-6 1.34 -6 0.68 -6 0 C-2.25 -1.125 -2.25 -1.125 0 0 Z " fill="#EDB7B8" transform="translate(181,201)"/>
<path d="M0 0 C0.99 1.32 1.98 2.64 3 4 C2.01 5.485 2.01 5.485 1 7 C0.34 7 -0.32 7 -1 7 C-2 4 -2 4 -1.0625 1.8125 C-0.5365625 0.9153125 -0.5365625 0.9153125 0 0 Z " fill="#454545" transform="translate(162,177)"/>
<path d="M0 0 C0.33 0.66 0.66 1.32 1 2 C-4.2734375 5.22265625 -4.2734375 5.22265625 -6 6 C-6.66 5.67 -7.32 5.34 -8 5 C-5.47211993 2.20127563 -3.79588866 0.54226981 0 0 Z " fill="#D9D9D9" transform="translate(121,157)"/>
<path d="M0 0 C0 0.99 0 1.98 0 3 C-2.31 3.66 -4.62 4.32 -7 5 C-5.22678182 1.07358831 -4.52021524 0 0 0 Z " fill="#5A5859" transform="translate(143,156)"/>
<path d="M0 0 C0.88492145 2.47778006 1.11637742 3.66056586 0.25 6.1875 C-1 8 -1 8 -4 9 C-2.94124926 5.59687262 -1.99097846 2.98646769 0 0 Z " fill="#FDDEDA" transform="translate(53,97)"/>
<path d="M0 0 C0.33 0 0.66 0 1 0 C3 5.625 3 5.625 3 9 C1.68 8.34 0.36 7.68 -1 7 C-0.67 4.69 -0.34 2.38 0 0 Z " fill="#D2F4E1" transform="translate(153,63)"/>
</svg>
