<?xml version="1.0" encoding="UTF-8"?>
<svg version="1.1" xmlns="http://www.w3.org/2000/svg" width="1598" height="357">
<path d="M0 0 C3.5625 0.375 3.5625 0.375 5.5 1.875 C8.25261832 8.35174899 6.05858873 15.79423133 4.5625 22.375 C4.27632812 23.68017578 4.27632812 23.68017578 3.984375 25.01171875 C3.51783903 27.1344574 3.04121537 29.25497481 2.5625 31.375 C7.52366762 32.66259186 12.46234436 32.54599708 17.55078125 32.5859375 C19.55795036 32.61404224 21.56511169 32.64270686 23.57226562 32.671875 C26.70710727 32.71279919 29.8418095 32.74971786 32.97680664 32.77636719 C64.01461936 33.06249818 89.3977859 40.43662011 112.0625 62.5625 C113.58062789 64.14952186 115.08310405 65.7518123 116.5625 67.375 C117.09746094 67.95636719 117.63242188 68.53773437 118.18359375 69.13671875 C124.66234395 77.07655209 125.51416393 88.53667147 124.5625 98.375 C122.1216413 112.75627557 112.66130334 124.55510288 101.11328125 132.9375 C97.35247622 135.56452191 93.48545613 137.99872908 89.5625 140.375 C88.44617188 141.05304688 87.32984375 141.73109375 86.1796875 142.4296875 C58.40447937 158.18373494 26.32749502 165.34271063 -4.58666992 172.14282227 C-13.03323121 174.01665414 -21.30432869 176.11164071 -29.52740479 178.8165741 C-34.26615549 180.375 -34.26615549 180.375 -36.4375 180.375 C-36.4375 181.035 -36.4375 181.695 -36.4375 182.375 C-35.41415558 182.42312332 -34.39081116 182.47124664 -33.3364563 182.52082825 C-22.77544034 183.05647952 -12.35252471 184.10211437 -1.8671875 185.44921875 C-0.2137576 185.65795911 1.43971652 185.86634941 3.0932312 186.07441711 C6.54765521 186.51039791 10.00154154 186.95035663 13.45507812 187.39331055 C17.75032836 187.94394777 22.04671651 188.48500506 26.34354019 189.02320671 C44.5504363 191.30753754 62.72510049 193.76516174 80.8671875 196.51953125 C81.67976139 196.64123877 82.49233528 196.76294628 83.32953262 196.8883419 C92.54504639 198.27474917 101.56698136 199.8784835 110.5625 202.375 C110.624375 201.3025 110.68625 200.23 110.75 199.125 C113.24903478 179.94321951 128.85268473 163.17154524 143.56640625 151.80078125 C147.72991281 148.82684799 151.55509378 148.72637225 156.5625 149.375 C159.43279869 151.16893668 161.05381638 152.35763276 162.5625 155.375 C162.90234375 158.22265625 162.90234375 158.22265625 162.5625 161.375 C160.69140625 163.68359375 160.69140625 163.68359375 158.125 165.8125 C157.21234375 166.5859375 156.2996875 167.359375 155.359375 168.15625 C152.90340031 170.10456511 150.40517583 171.96285422 147.875 173.8125 C137.2728499 182.0109992 129.72610821 197.6381394 127.7109375 210.87109375 C127.33643853 217.18830007 126.94332748 224.46090828 130.3125 230.0625 C133.63753765 233.47989981 136.01275105 234.18903013 140.6875 234.75 C150.60573987 233.79017034 158.55470474 229.39650914 165.5625 222.375 C166.83104526 220.24915172 166.83104526 220.24915172 167.5625 218.375 C166.716875 218.16875 165.87125 217.9625 165 217.75 C157.90302987 214.91121195 153.82589423 210.15281879 150.5625 203.375 C147.83882304 194.13658221 150.2465985 186.75561297 154.5625 178.375 C158.14636645 172.09805471 162.56198134 167.60012857 169.5625 165.375 C175.88264044 164.42661696 182.40321893 163.98295664 188 167.5 C195.71568918 174.50065764 198.45715388 184.42688494 199.5625 194.375 C210.4525 192.395 210.4525 192.395 221.5625 190.375 C222.408125 187.36375 223.25375 184.3525 224.125 181.25 C231.74344267 155.42223733 231.74344267 155.42223733 242.5625 149.375 C246.82375032 148.65139145 247.95001859 148.96667906 251.5625 151.375 C252.78319686 158.47276159 249.37689888 164.82212214 246.8125 171.3125 C238.63238822 191.21947684 238.63238822 191.21947684 237.5625 212.375 C239.46577998 214.6955257 239.46577998 214.6955257 242.69921875 214.71875 C247.27711608 214.31141434 250.35775749 212.99302328 254.375 210.875 C255.07931152 210.51116211 255.78362305 210.14732422 256.50927734 209.77246094 C262.46467527 206.60408536 267.50565433 202.83692265 272.5625 198.375 C273.58085937 197.53710938 274.59921875 196.69921875 275.6484375 195.8359375 C281.10788644 191.3221573 286.31475307 186.69153826 291.25 181.6015625 C292.04857422 180.77962402 292.84714844 179.95768555 293.66992188 179.11083984 C295.24294838 177.47649741 296.80207654 175.82864245 298.34570312 174.16650391 C303.76933745 168.51870239 303.76933745 168.51870239 307.8828125 167.7734375 C311.74971046 168.64151663 313.73122393 169.54372393 316.5625 172.375 C317.62253775 179.15579359 316.071675 186.04927456 314.59375 192.65234375 C314.3939856 193.58550919 314.19422119 194.51867462 313.98840332 195.4801178 C313.35601891 198.42641356 312.70995873 201.36948382 312.0625 204.3125 C311.41758272 207.28099509 310.7755684 210.25008342 310.13659668 213.21986389 C309.73997746 215.05930649 309.3394838 216.89791894 308.93469238 218.73558044 C308.75450562 219.56396927 308.57431885 220.39235809 308.38867188 221.24584961 C308.22878784 221.97291611 308.06890381 222.6999826 307.9041748 223.44908142 C307.47515945 225.54131389 307.47515945 225.54131389 307.5625 228.375 C308.57449463 227.6951001 309.58648926 227.0152002 310.62915039 226.31469727 C314.45675274 223.74458703 318.28761708 221.17937361 322.11938477 218.61547852 C323.76380522 217.51423114 325.40738877 216.41173285 327.05004883 215.30786133 C337.38752388 208.36251833 347.80057933 201.64520501 358.5625 195.375 C359.38057129 194.89023193 360.19864258 194.40546387 361.04150391 193.90600586 C364.21495301 192.14525105 366.21217595 191.35517034 369.875 191.5625 C371.77963461 192.13831976 373.67483444 192.74577815 375.5625 193.375 C377.9660593 192.15482576 380.24584008 190.86925957 382.5625 189.5 C390.29703571 185.15440534 398.27300845 182.15146451 406.6875 179.375 C407.84894531 178.98973145 409.01039063 178.60446289 410.20703125 178.20751953 C420.55938913 174.87546706 430.0391213 174.14438321 440.875 174.0625 C442.14279297 174.03349609 443.41058594 174.00449219 444.71679688 173.97460938 C455.61595278 173.90123339 463.77494411 175.87069627 471.8046875 183.4453125 C475.24733608 187.22457561 477.56897674 191.28337208 479.75 195.875 C479.47812662 199.49997845 477.43988491 201.30243282 475.1953125 204.07421875 C470.51535457 210.66870493 469.08147958 218.46056142 468.5625 226.375 C474.34115174 224.34272106 478.27484283 220.86798932 482.81005859 216.83886719 C484.73359051 215.23208293 486.7507309 213.82403225 488.80078125 212.3828125 C494.78302429 207.80979678 499.70315693 203.41584662 501.32177734 195.8046875 C502.06174251 188.03936096 501.88953578 180.29612712 501.65875244 172.50735474 C500.79278584 140.1948689 511.53947454 106.12783141 525.5625 77.375 C525.95727539 76.55563965 526.35205078 75.7362793 526.75878906 74.89208984 C537.24700525 53.3293342 537.24700525 53.3293342 546.109375 49.18359375 C549.38188539 48.10491596 551.25725054 48.43064301 554.5625 49.375 C559.44755266 52.0569897 562.40483576 54.74819176 564.12109375 60.125 C572.2544067 101.58330318 544.3137694 151.70536963 527.09375 187.19921875 C526.65240723 188.1113916 526.21106445 189.02356445 525.75634766 189.96337891 C524.79913991 191.8969777 523.78032929 193.80002776 522.7421875 195.69140625 C519.54186623 202.97160727 521.16630892 211.99415557 523.71875 219.28515625 C525.34474102 223.31249512 526.6241898 225.66554595 530.125 228.3125 C536.24980588 230.20562182 540.97645661 228.68296033 546.60546875 225.8359375 C558.60896297 218.73033678 569.30401265 209.7919837 579.453125 200.2734375 C583.01891248 197.06422877 585.7040166 197.02647607 590.359375 197.1015625 C592.5625 197.375 592.5625 197.375 595.1875 198.9375 C596.5625 201.375 596.5625 201.375 596.6875 204.625 C592.5687674 218.35410865 577.75366984 228.34031396 566.5625 236.375 C565.93053711 236.83003906 565.29857422 237.28507813 564.64746094 237.75390625 C562.69387285 239.14614074 560.72587529 240.51461817 558.75 241.875 C558.15227783 242.29652344 557.55455566 242.71804687 556.9387207 243.15234375 C550.24550159 247.65570915 543.52496388 248.75412746 535.5625 248.6875 C534.86334473 248.68258545 534.16418945 248.6776709 533.44384766 248.67260742 C526.15104025 248.5066684 520.57807984 247.03563719 515.00390625 242.0234375 C510.50211766 236.87505055 507.56641341 230.46257673 504.5625 224.375 C503.67949219 225.1484375 502.79648437 225.921875 501.88671875 226.71875 C478.64467769 246.94534361 478.64467769 246.94534361 463.87890625 246.68359375 C457.88823356 246.12615777 455.16801351 243.14558422 451.375 238.875 C449.3593611 236.43180133 447.45203501 233.91667542 445.5625 231.375 C444.58152344 231.88289062 443.60054687 232.39078125 442.58984375 232.9140625 C422.66983164 243.12306871 400.43798596 253.63763595 377.484375 248.71484375 C370.2959135 246.16801153 364.01716028 241.36248735 360.125 234.75 C357.68072274 229.30152293 357.74182575 223.25688466 357.5625 217.375 C341.95403177 228.34044287 326.42178928 239.39279163 311.1875 250.875 C310.2893457 251.54563477 309.39119141 252.21626953 308.46582031 252.90722656 C307.62374023 253.5462793 306.78166016 254.18533203 305.9140625 254.84375 C305.16979004 255.40513672 304.42551758 255.96652344 303.65869141 256.54492188 C299.03024909 260.58577951 296.6428735 264.98234179 294.50390625 270.66015625 C294.23287582 271.35709091 293.9618454 272.05402557 293.68260193 272.77207947 C292.82166001 274.99074453 291.97292862 277.21383319 291.125 279.4375 C290.00407172 282.34612394 288.87894366 285.25311956 287.75390625 288.16015625 C287.48057465 288.86749908 287.20724304 289.57484192 286.92562866 290.30361938 C279.99975068 308.19024858 279.99975068 308.19024858 275.3125 316.375 C274.92827881 317.04942139 274.54405762 317.72384277 274.14819336 318.41870117 C265.34753711 333.55238922 252.25204393 352.27801277 234.5625 357.375 C222.20819086 358.46463472 222.20819086 358.46463472 216.5625 354.375 C212.51658666 349.75109904 212.2147025 345.47675554 212.28515625 339.53515625 C213.57497055 324.83853977 221.67729424 311.71468249 230.5625 300.375 C231.59697266 299.05048828 231.59697266 299.05048828 232.65234375 297.69921875 C244.24610455 283.21225906 257.61517792 267.65379394 272.75366211 256.8046875 C280.17268434 251.11993043 281.91740112 244.93952128 284 236.0625 C284.32419922 234.80759766 284.64839844 233.55269531 284.98242188 232.25976562 C286.82059296 225.01654117 288.34443501 217.74719786 289.5625 210.375 C288.74910156 210.99246094 287.93570312 211.60992187 287.09765625 212.24609375 C280.56830821 217.10759293 273.9445771 221.49075735 266.75 225.3125 C266.0701001 225.67722412 265.3902002 226.04194824 264.68969727 226.41772461 C254.4044294 231.74480031 243.58212283 234.80494405 231.99609375 231.68359375 C226.74116703 229.30042964 222.77431143 225.56829148 220.69262695 220.08276367 C220.43956787 219.28588135 220.18650879 218.48899902 219.92578125 217.66796875 C219.66708252 216.86254639 219.40838379 216.05712402 219.1418457 215.22729492 C218.95066162 214.6160376 218.75947754 214.00478027 218.5625 213.375 C214.99325558 214.07339878 211.43405622 214.81404813 207.875 215.5625 C206.86759766 215.75908203 205.86019531 215.95566406 204.82226562 216.15820312 C198.93700121 217.42071859 195.39885123 218.46251381 191.5625 223.375 C190.65629484 224.45535254 189.74727269 225.53334638 188.8359375 226.609375 C188.36728271 227.17914063 187.89862793 227.74890625 187.41577148 228.3359375 C176.9558249 240.99497773 163.51256289 253.22942242 146.5625 255.375 C138.2405685 255.91189881 130.66384462 256.17600187 123.76953125 251.0390625 C115.64688079 243.68743625 110.01922198 233.04014322 109.00854492 222.17163086 C108.92352219 221.27286728 108.83849945 220.3741037 108.75090027 219.44810486 C108.65764214 218.42191795 108.65764214 218.42191795 108.5625 217.375 C108.0207183 217.33032907 107.4789366 217.28565815 106.92073727 217.23963356 C90.58778452 215.88186882 74.28886457 214.25619722 57.98930287 212.54713392 C54.54757863 212.18669405 51.10561583 211.82854584 47.66368103 211.47012329 C41.18670218 210.79531348 34.70993099 210.11853248 28.23323768 209.44098818 C20.84244076 208.66791825 13.45140644 207.89712959 6.06035435 207.12650371 C-9.10585688 205.54515299 -24.27177745 203.96103112 -39.4375 202.375 C-39.65634354 203.48254135 -39.87518707 204.5900827 -40.10066223 205.73118591 C-42.16860453 216.19277841 -44.2427125 226.6531322 -46.32278919 237.11231899 C-47.39185719 242.48890703 -48.45878438 247.8659011 -49.52075195 253.24389648 C-50.54659473 258.43852871 -51.57814849 263.63199751 -52.61359215 268.8247242 C-53.00670652 270.80134154 -53.39779701 272.77836255 -53.78678322 274.75579643 C-54.33395175 277.53549307 -54.88844352 280.31363843 -55.44458008 283.09155273 C-55.60210754 283.90076172 -55.75963501 284.7099707 -55.92193604 285.54370117 C-58.82205262 299.89053484 -58.82205262 299.89053484 -62.75 303.5 C-66.12053152 304.59738236 -68.05872747 304.40332207 -71.4375 303.375 C-73.67188699 301.70285106 -74.36327547 300.86651806 -74.78457642 298.0766449 C-74.62348672 291.27446372 -73.95861614 284.69141089 -72.8984375 277.97265625 C-72.73691193 276.90786041 -72.57538635 275.84306458 -72.40896606 274.7460022 C-71.88504853 271.30851287 -71.34914445 267.87302337 -70.8125 264.4375 C-70.4481132 262.06688297 -70.08418405 259.69619555 -69.72070312 257.32543945 C-66.79288727 238.31435314 -63.6986997 219.33166254 -60.4375 200.375 C-61.63246094 200.01148438 -62.82742187 199.64796875 -64.05859375 199.2734375 C-81.38479872 193.85046819 -81.38479872 193.85046819 -87.4375 188.375 C-88.81976016 185.61047967 -88.53275387 183.3288637 -88.5 180.25 C-88.49097656 179.15429688 -88.48195313 178.05859375 -88.47265625 176.9296875 C-88.46105469 176.08664063 -88.44945313 175.24359375 -88.4375 174.375 C-78.77044591 168.00889121 -63.03775417 162.375 -51.4375 162.375 C-51.20027725 161.2112233 -50.9630545 160.04744659 -50.71864319 158.84840393 C-48.41183136 147.6454403 -45.82458908 136.54643958 -42.99609375 125.46484375 C-42.5827408 123.83450602 -42.16966626 122.20409767 -41.7568512 120.57362366 C-40.90124152 117.19764071 -40.04309199 113.82231813 -39.18286133 110.44750977 C-38.08723777 106.14880574 -36.99701059 101.84875542 -35.90852261 97.54823971 C-35.06003009 94.19758166 -34.20929357 90.84749664 -33.35783577 87.49759102 C-32.95505366 85.91228629 -32.55281152 84.32684425 -32.15115166 82.74125481 C-30.0788621 74.56775237 -27.97563332 66.41951922 -25.4375 58.375 C-33.13294204 60.77141127 -39.60970258 64.04051467 -46.30883789 68.46459961 C-50.87577312 71.38765589 -50.87577312 71.38765589 -53.69140625 71.32421875 C-55.77325711 70.19247432 -57.02345108 69.29345052 -58.4375 67.375 C-59.45217143 62.46229915 -59.06435748 58.46155296 -56.5625 54.125 C-48.87814876 46.58842475 -38.65095597 43.38513532 -28.73046875 39.890625 C-27.98023438 39.61766602 -27.23 39.34470703 -26.45703125 39.06347656 C-24.4375 38.375 -24.4375 38.375 -21.57421875 37.75 C-17.85787239 35.35849375 -17.28702529 31.20625366 -16.0625 27.125 C-7.5582579 0.82453723 -7.5582579 0.82453723 0 0 Z M-1.4375 51.375 C-2.0898613 51.55304672 -2.7422226 51.73109344 -3.41435242 51.91453552 C-6.63623139 54.24033707 -7.0075136 57.68791529 -7.90161133 61.37524414 C-8.11033025 62.18011041 -8.31904917 62.98497667 -8.5340929 63.81423283 C-9.18330297 66.33098826 -9.81070943 68.85258096 -10.4375 71.375 C-10.82082408 72.86737505 -11.20579924 74.35932724 -11.59262085 75.85079956 C-12.75512481 80.35192102 -13.88529032 84.86083075 -15.01171875 89.37109375 C-15.42566622 91.02297931 -15.83971574 92.6748393 -16.25386047 94.32667542 C-17.11166271 97.75051087 -17.96769557 101.1747826 -18.82250977 104.59936523 C-19.91108323 108.95949075 -21.00504671 113.31824407 -22.10042095 117.67666531 C-22.9531107 121.07262287 -23.80250454 124.46939851 -24.65098 127.86641121 C-25.05291414 129.4736394 -25.45593938 131.08059518 -25.86014366 132.68725395 C-28.00124748 141.2043395 -30.04084757 149.69678198 -31.4375 158.375 C-20.74639201 156.90304554 -10.31801365 154.69194664 0.1875 152.25 C1.46758438 151.95370697 1.46758438 151.95370697 2.77352905 151.65142822 C51.5986744 140.54143022 51.5986744 140.54143022 93.5625 114.375 C94.29984375 113.71757813 95.0371875 113.06015625 95.796875 112.3828125 C101.89645484 106.66167375 105.67827323 101.53703856 106.0625 93 C105.59758629 83.08639873 101.78898238 76.48948941 94.5859375 69.76171875 C71.25210371 51.34185771 27.21932746 42.71379469 -1.4375 51.375 Z M545.5625 79.375 C546.5625 81.375 546.5625 81.375 546.5625 81.375 Z M544.5625 81.375 C543.36027674 83.63892693 542.17654787 85.91024068 541 88.1875 C540.67708984 88.79142578 540.35417969 89.39535156 540.02148438 90.01757812 C532.79163541 104.13299753 528.46699995 119.29975305 525.13427734 134.73339844 C524.54995874 137.43294041 523.94231781 140.12653374 523.33203125 142.8203125 C522.94917978 144.54657813 522.56761709 146.27313021 522.1875 148 C521.91740112 149.19979492 521.91740112 149.19979492 521.6418457 150.42382812 C520.66468749 154.92088383 520.66468749 154.92088383 521.5625 159.375 C527.4613821 144.85962116 533.0937458 130.29834695 538.0625 115.4375 C538.47097168 114.22626465 538.87944336 113.0150293 539.30029297 111.76708984 C544.3976271 96.89296753 544.3976271 96.89296753 545.5625 81.375 C545.2325 81.375 544.9025 81.375 544.5625 81.375 Z M171.125 188.5 C169.18525618 191.32790067 169.18525618 191.32790067 170.25 194.625 C171.30491323 197.22860611 171.30491323 197.22860611 172.5625 198.375 C174.56208364 198.41580783 176.56295254 198.41754356 178.5625 198.375 C180.51393115 195.50524831 180.55180952 194.24885237 180.25 190.6875 C179.91330266 187.54291717 179.91330266 187.54291717 178.5625 186.375 C174.96752262 185.7920307 173.91685239 186.0660774 171.125 188.5 Z M379.5625 215.375 C377.32129067 219.10379974 377.16774295 222.03267242 377.5625 226.375 C380.38887494 230.1860475 384.01813139 230.46250424 388.484375 231.140625 C399.82213138 232.00390594 409.64011333 227.23223071 419.5625 222.375 C420.17996094 222.07319824 420.79742187 221.77139648 421.43359375 221.46044922 C430.3062945 217.0551056 438.66568203 211.9164681 446.9543457 206.49926758 C451.37748514 203.63314096 455.64826456 201.28972205 460.5625 199.375 C459.18971909 195.99965725 457.9848063 194.7117265 454.6875 193.1875 C454.00945312 192.86394531 453.33140625 192.54039062 452.6328125 192.20703125 C429.42255094 182.87913368 395.76294775 198.95896233 379.5625 215.375 Z M260.6875 292.9375 C250.822599 302.81293668 231.5625 322.50837935 231.5625 337.375 C248.2889345 330.2178259 259.79432442 309.25222391 266.5625 293.375 C267.31473763 291.0538736 267.95021819 288.73883424 268.5625 286.375 C265.83644275 286.375 262.51861306 291.12393612 260.6875 292.9375 Z " fill="#D2AB67" transform="translate(88.4375,-0.375)"/>
<path d="M0 0 C2.75569447 2.18159145 4.43588747 3.87177494 6 7 C7.18601058 21.36954056 6.18954825 35.23827197 2 49 C1.67209473 50.07991211 1.34418945 51.15982422 1.00634766 52.27246094 C-6.38926424 76.18396502 -16.02368605 98.95931166 -26.64819336 121.61474609 C-27.30766968 123.02747803 -27.30766968 123.02747803 -27.98046875 124.46875 C-28.37129639 125.29826172 -28.76212402 126.12777344 -29.16479492 126.98242188 C-30.12749558 128.9440506 -30.12749558 128.9440506 -30 131 C-29.33355469 130.35933594 -28.66710938 129.71867188 -27.98046875 129.05859375 C-11.03322838 113.15426048 -11.03322838 113.15426048 2.0546875 113.36328125 C5.65313295 114.14119452 7.3808182 115.44514899 10 118 C14.97027302 127.7630363 14.37508342 137.16683066 13.125 147.75390625 C13.03621582 148.54022934 12.94743164 149.32655243 12.85595703 150.13670349 C12.5753321 152.61253116 12.28779668 155.08749685 12 157.5625 C11.8068311 159.2558069 11.61411872 160.94916594 11.421875 162.64257812 C10.95318384 166.76233946 10.47829968 170.88134361 10 175 C13.14123479 176.00432755 13.14123479 176.00432755 16.234375 174.98828125 C22.87934963 170.56173759 29.28275536 165.87893203 35.60449219 161.0012207 C36.26094727 160.4980835 36.91740234 159.99494629 37.59375 159.4765625 C38.17833984 159.02361816 38.76292969 158.57067383 39.36523438 158.10400391 C41 157 41 157 44 156 C44.2475 155.319375 44.495 154.63875 44.75 153.9375 C50.11453298 141.3308475 64.63996275 132.45156061 76 126 C76.69738281 125.58878906 77.39476562 125.17757812 78.11328125 124.75390625 C89.92125491 118.25572803 106.576359 114.38100005 119.8125 118.125 C124.32891245 119.81166022 126.3782089 121.98538238 129 126 C130.85916899 130.43340298 130.52524777 135.45708466 129 139.9375 C120.45771587 153.01787258 104.52433195 160.92603461 89.64453125 164.578125 C79.84350182 166.14165702 70.32884732 165.25830842 61 162 C60.1362743 165.37638228 59.73660461 167.34925845 61.0625 170.625 C64.28170714 174.57112488 67.99133261 177.07061457 73 178 C77.30899589 178.25467335 81.62175572 178.23138763 85.9375 178.25 C87.09830078 178.270625 88.25910156 178.29125 89.45507812 178.3125 C100.64550475 178.36231826 111.15653387 176.62211455 121.125 171.375 C121.7953125 171.03017578 122.465625 170.68535156 123.15625 170.33007812 C132.79997758 165.18490929 140.48463413 157.83441442 148 150 C148.49967285 149.58403564 148.9993457 149.16807129 149.51416016 148.73950195 C151.50218889 146.41207758 151.8184356 144.43170852 152.4296875 141.44140625 C152.66816406 140.33216797 152.90664062 139.22292969 153.15234375 138.08007812 C153.62686816 135.77029851 154.10084408 133.46040614 154.57421875 131.15039062 C158.89246755 111.0716883 158.89246755 111.0716883 165 107 C167.04296875 106.8046875 167.04296875 106.8046875 169.1875 106.875 C170.445625 106.91625 171.70375 106.9575 173 107 C178.737791 116.86900052 174.79830298 129.33239687 173 140 C173.71542969 139.31035156 174.43085937 138.62070313 175.16796875 137.91015625 C197.65376533 116.57649923 197.65376533 116.57649923 211.625 116.5625 C213.56246094 116.53349609 213.56246094 116.53349609 215.5390625 116.50390625 C219 117 219 117 221.3359375 118.65234375 C225.15008896 124.03334147 225.18344607 129.08650674 224.57421875 135.44140625 C224.50717239 136.24553452 224.44012604 137.04966278 224.37104797 137.87815857 C224.15479659 140.44075835 223.92155049 143.00147078 223.6875 145.5625 C223.54116885 147.25576048 223.39597637 148.94911978 223.25195312 150.64257812 C222.97228447 153.91605129 222.68666229 157.18891162 222.39599609 160.46142578 C221.88058225 166.30386125 221.43163483 172.15078626 221 178 C225.86325157 177.22480346 228.76070876 175.20293781 232.5 172.125 C233.10948486 171.63467285 233.71896973 171.1443457 234.34692383 170.63916016 C238.5073521 167.27408419 242.60484372 163.83376346 246.6875 160.375 C247.22004395 159.92487549 247.75258789 159.47475098 248.30126953 159.01098633 C250.90039 156.80734956 253.47362512 154.58231995 256.01171875 152.30859375 C256.95660156 151.48488281 257.90148438 150.66117188 258.875 149.8125 C259.69742188 149.07644531 260.51984375 148.34039062 261.3671875 147.58203125 C264.76832036 145.53832382 267.09777035 145.64441221 271 146 C272.9375 147 272.9375 147 274 149 C274.49631415 153.6584734 274.70578762 156.63373219 271.796875 160.421875 C270.80279313 161.55059475 269.7857353 162.65937659 268.75 163.75 C268.20786865 164.34707764 267.6657373 164.94415527 267.10717773 165.55932617 C265.42579014 167.39381019 263.71587923 169.19780594 262 171 C261.49291504 171.5480127 260.98583008 172.09602539 260.46337891 172.66064453 C249.56884042 184.4279001 236.2472367 196.01872321 219.625 197.25 C214.49086685 196.89592185 210.73448432 195.35946069 206.6875 192.1875 C202.80225576 187.15107228 202.64759586 181.51774343 202.6875 175.375 C202.68878906 174.53485352 202.69007813 173.69470703 202.69140625 172.82910156 C202.86804502 160.49529911 204.50502215 148.23019111 206 136 C188.45642595 146.74601977 177.3415856 161.25573237 167.07958984 178.83544922 C164.1700638 183.80705363 161.10181986 188.89818014 157 193 C150.87066808 193.46259109 150.87066808 193.46259109 147.81640625 191.83984375 C145.37769269 189.36966291 145.4110513 187.73484006 145.25 184.3125 C145.19328125 183.31863281 145.1365625 182.32476562 145.078125 181.30078125 C145.05234375 180.54152344 145.0265625 179.78226563 145 179 C144.09121094 179.58007812 143.18242188 180.16015625 142.24609375 180.7578125 C124.16015 192.08917519 106.84385487 197.5653474 85.25 197.375 C83.90493966 197.38572927 82.55988683 197.39744564 81.21484375 197.41015625 C69.50231934 197.37540098 60.14574888 195.61020801 51 188 C48.50900287 185.44925571 46.20841958 182.79780487 44 180 C39.3160861 182.44840954 35.33504072 185.27657742 31.1875 188.5625 C22.73666482 194.95318133 14.59866903 197.23679768 4 196 C-1.19533373 193.96704332 -4.58010487 189.86709593 -7.015625 184.94921875 C-12.58557959 169.88502339 -6.50845739 150.22855024 -4 135 C-6.67600637 135 -7.22299457 135.90433032 -9.16015625 137.7109375 C-9.7843042 138.29085449 -10.40845215 138.87077148 -11.05151367 139.46826172 C-11.71513916 140.09748535 -12.37876465 140.72670898 -13.0625 141.375 C-13.74352783 142.01840332 -14.42455566 142.66180664 -15.1262207 143.32470703 C-28.45744649 156.02669769 -40.10114157 170.0329758 -48.0859375 186.6953125 C-50.98540259 191.70132774 -53.95374743 195.4104018 -59.6875 197.0625 C-63 197 -63 197 -64.875 195.75 C-67.28517477 192.00083925 -67.1053758 188.64295627 -67.0625 184.3125 C-67.04896484 182.54326172 -67.04896484 182.54326172 -67.03515625 180.73828125 C-67.01775391 179.38283203 -67.01775391 179.38283203 -67 178 C-67.79019531 178.49628906 -68.58039063 178.99257812 -69.39453125 179.50390625 C-93.21958442 193.85339541 -122.48025334 201.66670191 -149.99658203 194.84936523 C-156.43391115 193.0824786 -162.19837749 190.28040045 -168 187 C-169.3292877 186.32530271 -170.66109623 185.65540744 -172 185 C-172.70125 185.71285156 -173.4025 186.42570313 -174.125 187.16015625 C-197.40781054 210.71906383 -197.40781054 210.71906383 -210.875 211.375 C-217.9322099 211.19513108 -222.64736042 208.48429617 -227.75 203.75 C-237.93976165 192.77105407 -237.53935421 178.00399825 -237.12695312 163.85546875 C-236.71335178 154.55262002 -235.8538733 145.27111106 -235 136 C-235.7734375 136.92941406 -236.546875 137.85882813 -237.34375 138.81640625 C-250.13918264 154.06141496 -250.13918264 154.06141496 -255 157 C-256.32 157 -257.64 157 -259 157 C-259.226875 157.721875 -259.45375 158.44375 -259.6875 159.1875 C-261.29089425 162.62334482 -263.19701405 164.44616836 -266 167 C-266.73077759 167.67240723 -266.73077759 167.67240723 -267.47631836 168.35839844 C-272.101786 172.48205638 -277.04065813 175.68017611 -282.375 178.8125 C-283.67642944 179.58364136 -283.67642944 179.58364136 -285.00415039 180.37036133 C-290.75622749 183.75137722 -296.55900188 187.03139448 -302.4375 190.1875 C-303.12827637 190.56173096 -303.81905273 190.93596191 -304.53076172 191.3215332 C-311.21971444 194.84050398 -317.50429699 195.83155455 -325 195 C-330.33587163 193.23148194 -333.44374155 189.92992701 -336 185 C-344.16529815 167.85626197 -336.79720554 139.55886364 -331.0078125 122.44140625 C-329.29077919 118.28192633 -327.19400051 115.19400051 -324 112 C-317.75414784 111.43219526 -317.75414784 111.43219526 -315.30053711 113.27954102 C-312.91062769 116.44111257 -313.60574091 120.25287092 -314 124 C-314.82129491 128.55915677 -315.87603499 133.05408141 -316.9375 137.5625 C-319.9243462 150.85858797 -322.18789791 163.38641301 -320 177 C-308.36063501 173.88231295 -298.28451118 167.21375422 -288.32421875 160.62890625 C-287.74265518 160.24492676 -287.16109161 159.86094727 -286.56190491 159.46533203 C-283.62546027 157.52242586 -280.69934128 155.5658523 -277.78540039 153.58935547 C-276.70637451 152.8676416 -275.62734863 152.14592773 -274.515625 151.40234375 C-273.54915039 150.74741943 -272.58267578 150.09249512 -271.58691406 149.41772461 C-269 148 -269 148 -265 148 C-264.94457031 147.34515625 -264.88914062 146.6903125 -264.83203125 146.015625 C-263.63416768 141.67407254 -261.22584703 138.43365048 -258.6875 134.75 C-258.15785645 133.96657227 -257.62821289 133.18314453 -257.08251953 132.37597656 C-254.31000899 128.29524634 -251.48217597 124.25788418 -248.60546875 120.25 C-248.0638208 119.49364258 -247.52217285 118.73728516 -246.96411133 117.95800781 C-245.92876276 116.51943161 -244.88596843 115.08617589 -243.8347168 113.65917969 C-241.10395392 109.88076565 -239.20827801 106.57724139 -238 102 C-238.86882812 101.96261719 -239.73765625 101.92523438 -240.6328125 101.88671875 C-253.8683274 101.1316726 -253.8683274 101.1316726 -259 96 C-259.1953125 93.6171875 -259.1953125 93.6171875 -259.125 90.875 C-259.10695313 89.96492188 -259.08890625 89.05484375 -259.0703125 88.1171875 C-259.04710937 87.41851562 -259.02390625 86.71984375 -259 86 C-249.39671842 79.36916272 -237.35875099 78.66850798 -226 78 C-225.90493164 77.40316406 -225.80986328 76.80632812 -225.71191406 76.19140625 C-224.20889681 67.33774661 -222.0034441 58.68462425 -219.75 50 C-219.550578 49.22841553 -219.35115601 48.45683105 -219.14569092 47.66186523 C-216.78923699 38.5647582 -214.40372099 29.47908272 -211.625 20.5 C-211.2861377 19.38238281 -211.2861377 19.38238281 -210.94042969 18.2421875 C-208.89494884 11.88801011 -208.89494884 11.88801011 -206 10 C-203.84375 9.6015625 -203.84375 9.6015625 -201.5 9.625 C-200.7265625 9.61726563 -199.953125 9.60953125 -199.15625 9.6015625 C-196.46177938 10.09945381 -195.70385425 10.88881997 -194 13 C-193.40808428 20.64038585 -194.66683691 28.13129042 -195.75 35.6875 C-195.92756836 36.9559375 -196.10513672 38.224375 -196.28808594 39.53125 C-197.56560942 48.46717876 -199.04667224 57.35095081 -200.78027344 66.2097168 C-200.94043945 67.03769775 -201.10060547 67.86567871 -201.265625 68.71875 C-201.47880371 69.78512695 -201.47880371 69.78512695 -201.69628906 70.87304688 C-202.03871132 73.27110369 -202.04973815 75.58082113 -202 78 C-201.18321777 77.97905273 -200.36643555 77.95810547 -199.52490234 77.93652344 C-195.80839445 77.8531487 -192.09208367 77.80127012 -188.375 77.75 C-187.08980469 77.71648437 -185.80460937 77.68296875 -184.48046875 77.6484375 C-172.58748087 77.5251941 -172.58748087 77.5251941 -168 82 C-165.55460961 85.66808558 -165.17314366 88.73652202 -166 93 C-170.05206437 97.66601352 -175.56340916 98.78106724 -181.54858398 99.31884766 C-182.76876221 99.35026855 -183.98894043 99.38168945 -185.24609375 99.4140625 C-185.90207047 99.43342865 -186.55804718 99.4527948 -187.23390198 99.4727478 C-189.30164128 99.53188909 -191.36943829 99.57866229 -193.4375 99.625 C-194.85093394 99.66324033 -196.26434609 99.70229545 -197.67773438 99.7421875 C-201.11828852 99.83753452 -204.55900839 99.92180287 -208 100 C-213.46904132 129.24043824 -213.46904132 129.24043824 -218.0625 158.625 C-218.24292847 159.86842163 -218.24292847 159.86842163 -218.42700195 161.13696289 C-219.43585826 169.12034028 -219.48430497 177.52776812 -215.4375 184.6875 C-214.75494141 185.93080078 -214.75494141 185.93080078 -214.05859375 187.19921875 C-213.70925781 187.79347656 -213.35992188 188.38773438 -213 189 C-208.21633789 188.52874704 -205.23869148 186.25856686 -201.625 183.3125 C-201.02284668 182.82483154 -200.42069336 182.33716309 -199.80029297 181.8347168 C-197.85380861 180.23823833 -195.92640571 178.62062702 -194 177 C-193.34515625 176.46117187 -192.6903125 175.92234375 -192.015625 175.3671875 C-183.83795773 168.57392847 -178.13682664 162.41820243 -173.76171875 152.69189453 C-166.08874031 135.89905656 -145.77949239 126.18310583 -129.34765625 119.47265625 C-122.17472085 116.83505308 -114.03182035 115.42720051 -106.765625 118.26171875 C-103.98184904 120.01140844 -102.54468463 121.1200795 -101 124 C-100.12872582 129.19624779 -100.36235724 133.70109807 -102.6875 138.4375 C-106.91762564 143.12493652 -110.97303759 145.95513776 -117 148 C-119.75 148 -119.75 148 -122 147 C-123.6875 144.625 -123.6875 144.625 -125 142 C-125.66 141.01 -126.32 140.02 -127 139 C-144.19367579 147.00590057 -144.19367579 147.00590057 -155.0625 161.1875 C-155.41566923 162.78320625 -155.7291876 164.38827186 -156 166 C-156.33243915 167.66684525 -156.66552831 169.33356141 -157 171 C-149.17349083 175.1130471 -141.52416176 176.49346965 -132.75 176.3125 C-131.83323486 176.30049561 -130.91646973 176.28849121 -129.97192383 176.27612305 C-106.07686283 175.78307367 -85.0116446 168.66586844 -67.13671875 152.65234375 C-65 151 -65 151 -62 151 C-61.89260498 149.9896167 -61.78520996 148.9792334 -61.67456055 147.93823242 C-60.47050063 136.97920454 -58.78479414 126.15768748 -56.8125 115.3125 C-56.58481934 114.05315643 -56.58481934 114.05315643 -56.35253906 112.76837158 C-40.15388597 23.58106289 -40.15388597 23.58106289 -14.390625 2.6953125 C-9.92256595 -0.27656164 -5.27056536 -1.17452674 0 0 Z M-14 32 C-18.87420366 41.95215216 -22.48913203 52.1632909 -25.75 62.75 C-26.31448853 64.57760864 -26.31448853 64.57760864 -26.89038086 66.44213867 C-31.80172345 79.14331073 -31.80172345 79.14331073 -32 92 C-27.29657453 79.74219004 -22.71944656 67.45524139 -18.5625 55 C-18.23314453 54.01708984 -17.90378906 53.03417969 -17.56445312 52.02148438 C-13.72749664 42.147224 -13.72749664 42.147224 -14 32 Z M-34 93 C-33 95 -33 95 -33 95 Z M77 147 C77 147.66 77 148.32 77 149 C87.88660905 149.96769858 98.32845314 144.10219964 107 138 C108.80817277 135.91232418 108.80817277 135.91232418 110 134 C98.20099266 134 85.89962264 139.29840349 77 147 Z " fill="#D2AB67" transform="translate(1324,53)"/>
<path d="M0 0 C1.91015625 0.23046875 1.91015625 0.23046875 3.91015625 2.23046875 C5.67759467 12.51607194 2.21759205 24.07507234 0.34765625 34.16796875 C-0.01429243 36.16118299 -0.37561348 38.15451129 -0.73632812 40.14794922 C-3.36560979 54.60572108 -6.12711339 69.03885811 -9.00610352 83.44897461 C-9.14742203 84.16060257 -9.28874054 84.87223053 -9.43434143 85.60542297 C-9.8118719 87.50387203 -10.19290545 89.40162353 -10.57421875 91.29931641 C-11.17646966 94.22688101 -11.17646966 94.22688101 -11.08984375 97.23046875 C-10.28691895 96.93390381 -9.48399414 96.63733887 -8.65673828 96.33178711 C32.29144912 81.28989288 73.75663924 71.08835395 117.66015625 70.91796875 C118.85560059 70.91240967 120.05104492 70.90685059 121.28271484 70.90112305 C136.60789364 71.02896034 136.60789364 71.02896034 142.91015625 75.23046875 C143.34375 77.69140625 143.34375 77.69140625 143.34765625 80.60546875 C143.36699219 81.56195313 143.38632812 82.5184375 143.40625 83.50390625 C142.91015625 86.23046875 142.91015625 86.23046875 141.3359375 88.62890625 C137.83053701 90.94326084 135.7426031 90.21238153 131.66015625 89.48046875 C85.49472261 82.26728404 34.08909678 99.61974094 -7.58374023 117.89428711 C-12.91237532 120.23046875 -12.91237532 120.23046875 -15.08984375 120.23046875 C-15.35925781 121.44863281 -15.62867188 122.66679687 -15.90625 123.921875 C-16.75513959 127.74523789 -17.6207325 131.5645333 -18.4921875 135.3828125 C-21.42050214 148.28765092 -24.09185459 161.14960036 -26.08984375 174.23046875 C-15.70886837 178.29617196 -5.30894695 181.80920567 5.47265625 184.66796875 C6.21286011 184.86690735 6.95306396 185.06584595 7.71569824 185.27081299 C30.2708812 191.31884545 53.04207743 196.55539596 75.76953125 201.91015625 C77.02277191 202.20582993 78.27601257 202.5015036 79.56723022 202.80613708 C84.84127899 204.04813916 90.11608756 205.28319578 95.40258789 206.47119141 C96.19518005 206.65118683 96.98777222 206.83118225 97.80438232 207.01663208 C99.79256696 207.46654587 101.7825436 207.90852225 103.77270508 208.34960938 C109.08421521 209.84084963 113.00045564 212.32076814 116.91015625 216.23046875 C116.78038307 219.79923117 116.63195432 222.29814624 114.41015625 225.16796875 C105.86656001 228.79899715 94.58762915 224.84067786 85.84765625 223.04296875 C85.00167877 222.87151337 84.15570129 222.70005798 83.28408813 222.52340698 C50.68539132 215.90396431 18.24697343 208.27572086 -13.96484375 199.98046875 C-14.6978067 199.7917923 -15.43076965 199.60311584 -16.1859436 199.40872192 C-27.67158264 196.4395993 -27.67158264 196.4395993 -30.08984375 195.23046875 C-30.13542923 195.9465329 -30.18101471 196.66259705 -30.22798157 197.40036011 C-30.7860621 205.11467501 -31.9214487 212.58535829 -33.3828125 220.17578125 C-33.72557976 221.98887283 -33.72557976 221.98887283 -34.07527161 223.83859253 C-34.55898796 226.38889556 -35.0457467 228.93862324 -35.53540039 231.48779297 C-36.26574474 235.29500428 -36.98421914 239.10430954 -37.70117188 242.9140625 C-40.01949382 255.14046621 -42.4644475 267.33292422 -45.203125 279.47265625 C-45.43323776 280.51358429 -45.66335052 281.55451233 -45.9004364 282.62698364 C-47.3977807 289.10895837 -49.43106472 295.1322651 -52.08984375 301.23046875 C-55.33984375 301.98046875 -55.33984375 301.98046875 -59.08984375 302.23046875 C-61.92933512 300.16375767 -62.96428426 298.95161544 -63.57151794 295.46398926 C-63.34918115 285.07213745 -62.02654691 274.96917232 -60.5 264.69921875 C-60.23250891 262.85042299 -59.9658775 261.00150266 -59.70005798 259.15246582 C-59.0039269 254.32689992 -58.29593019 249.50314951 -57.58538818 244.6796875 C-56.86380849 239.76541957 -56.15427845 234.84941299 -55.44335938 229.93359375 C-54.40315903 222.75498658 -53.35924328 215.57693997 -52.30493164 208.40039062 C-52.19631805 207.65849487 -52.08770447 206.91659912 -51.97579956 206.15222168 C-51.27868342 201.41958338 -50.54600691 196.69633189 -49.67578125 191.9921875 C-49.2798743 188.09910253 -49.49982982 186.00415439 -51.921875 182.828125 C-54.23528977 180.52238325 -56.60582275 178.35066849 -59.08984375 176.23046875 C-64.90245449 171.19287278 -67.55257262 165.65888534 -68.4765625 158.04296875 C-68.90634729 145.4754688 -64.13697847 136.64561638 -56.08984375 127.23046875 C-50.56704194 121.66005658 -44.71130298 116.45693209 -38.08984375 112.23046875 C-37.42984375 112.23046875 -36.76984375 112.23046875 -36.08984375 112.23046875 C-33.86101236 105.84154106 -31.9839361 99.41825529 -30.33984375 92.85546875 C-30.08452881 91.8387207 -29.82921387 90.82197266 -29.56616211 89.77441406 C-27.31078676 80.56218327 -25.46658576 71.28662664 -23.65234375 61.98046875 C-11.57457573 0.23107138 -11.57457573 0.23107138 0 0 Z M-40.08984375 137.23046875 C-41.43605368 138.61514182 -42.74186178 140.03924122 -44.02734375 141.48046875 C-44.73761719 142.269375 -45.44789063 143.05828125 -46.1796875 143.87109375 C-49.76201475 148.29589059 -50.47692377 151.43439232 -50.34765625 157.0390625 C-49.99316579 160.0522314 -49.03687533 161.92287577 -47.08984375 164.23046875 C-46.09984375 164.56046875 -45.10984375 164.89046875 -44.08984375 165.23046875 C-43.24568613 161.69129301 -42.41646681 158.14877734 -41.58984375 154.60546875 C-41.35136719 153.60644531 -41.11289062 152.60742188 -40.8671875 151.578125 C-39.74091258 146.71905321 -38.74672044 142.25722531 -39.08984375 137.23046875 C-39.41984375 137.23046875 -39.74984375 137.23046875 -40.08984375 137.23046875 Z " fill="#D2AB67" transform="translate(854.08984375,6.76953125)"/>
<path d="M0 0 C1.051875 -0.02126953 1.051875 -0.02126953 2.125 -0.04296875 C4 0.1875 4 0.1875 6 2.1875 C7.1519761 5.99788248 7.06555492 7.97626747 5.875 11.8125 C3.3054874 16.43762268 0.97513892 18.48797163 -4 20.25 C-7 20.1875 -7 20.1875 -9.9375 18.25 C-12.18704899 14.9097606 -12.49352812 13.13915384 -11.72265625 9.1875 C-9.70472837 3.60274825 -5.99865144 0.05513466 0 0 Z " fill="#D2AB67" transform="translate(1012,133.8125)"/>
</svg>
