<?xml version="1.0" encoding="UTF-8"?>
<!DOCTYPE svg PUBLIC "-//W3C//DTD SVG 1.1//EN" "http://www.w3.org/Graphics/SVG/1.1/DTD/svg11.dtd">
<!-- Creator: CorelDRAW 2021 (64-Bit) -->
<svg xmlns="http://www.w3.org/2000/svg" xml:space="preserve" width="1826.14mm" height="1826.14mm" version="1.1" style="shape-rendering:geometricPrecision; text-rendering:geometricPrecision; image-rendering:optimizeQuality; fill-rule:evenodd; clip-rule:evenodd"
viewBox="0 0 182613.62 182613.62"
 xmlns:xlink="http://www.w3.org/1999/xlink"
 xmlns:xodm="http://www.corel.com/coreldraw/odm/2003">
 <defs>
  <style type="text/css">
   <![CDATA[
    .str2 {stroke:#422921;stroke-width:1083.21;stroke-miterlimit:22.9256}
    .str0 {stroke:#FEFEFE;stroke-width:264.54;stroke-linecap:round;stroke-linejoin:round;stroke-miterlimit:22.9256}
    .str1 {stroke:#E4BF81;stroke-width:867.14;stroke-linecap:round;stroke-linejoin:round;stroke-miterlimit:22.9256}
    .fil0 {fill:#422921}
    .fil7 {fill:#422921}
    .fil6 {fill:#181818}
    .fil1 {fill:#E4BF81}
    .fil4 {fill:#FEFEFE;fill-rule:nonzero}
    .fil2 {fill:#422921;fill-rule:nonzero}
    .fil3 {fill:#422921;fill-rule:nonzero}
    .fil5 {fill:#E4BF81;fill-rule:nonzero}
   ]]>
  </style>
 </defs>
 <g id="Layer_x0020_1">
  <metadata id="CorelCorpID_0Corel-Layer"/>
  <rect class="fil0" width="182613.62" height="182613.62"/>
  <g id="_2170423661520">
   <path class="fil1" d="M91005.35 44224.88c29068.76,0 52634.98,23565.23 52634.98,52634.25 0,29068.76 -23566.22,52633.85 -52634.98,52633.85 -29068.88,0 -52634.11,-23565.09 -52634.11,-52633.85 0,-29069.02 23565.23,-52634.25 52634.11,-52634.25l0 0z"/>
   <path class="fil2" d="M126106.4 61758.5c-8982.8,-8982.94 -21392.82,-14539.28 -35101.07,-14539.28 -13707.81,0 -26117.81,5556.34 -35100.77,14539.28 -8982.94,8982.96 -14539.14,21393.4 -14539.14,35100.63 0,13708.27 5556.2,26118.27 14539.14,35101.24 8982.96,8982.79 21392.96,14538.69 35100.77,14538.69 13708.25,0 26118.27,-5555.9 35101.07,-14538.69 8982.53,-8982.97 14538.84,-21392.97 14538.84,-35101.24 0,-13707.23 -5556.31,-26117.67 -14538.84,-35100.63l0 0zm-35101.07 -15968.31c14102.43,0 26869.81,5716 36111.73,14957.64 9241.78,9241.78 14957.96,22008.87 14957.96,36111.3 0,14102.57 -5716.18,26869.83 -14957.96,36111.76 -9241.92,9241.92 -22009.3,14957.49 -36111.73,14957.49 -14102.14,0 -26869.66,-5715.57 -36111.3,-14957.49 -9241.78,-9241.93 -14957.96,-22009.19 -14957.96,-36111.76 0,-14102.43 5716.18,-26869.52 14957.96,-36111.3 9241.64,-9241.64 22009.16,-14957.64 36111.3,-14957.64l0 0z"/>
   <path class="fil0" d="M91005.35 47937.68c27018.94,0 48921.58,21902.97 48921.58,48921.44 0,27018.94 -21902.64,48921.91 -48921.58,48921.91 -27018.77,0 -48921.59,-21902.97 -48921.59,-48921.91 0,-27018.47 21902.82,-48921.44 48921.59,-48921.44l0 0z"/>
   <path class="fil3" d="M72109.34 95263.73l100.25 112.61c361.81,-299.5 720.42,-582.67 1067.2,-845.26 1202.8,-972.42 2785.68,-2049.79 4397.84,-2809.84 1714.76,-808.34 3610.71,-1367.45 5589.21,-1447.37 840.95,-55.15 1703.42,2.67 2568.47,186.04 1700.84,364.57 3184.95,1059.63 4434.63,2002.12 805.28,254.13 1577.69,606.69 2298.28,1055.23 936.88,-655.93 1987,-1294.96 3049.83,-1796.02 1714.67,-808.34 3610.71,-1367.4 5589.17,-1447.37 840.99,-55.15 1703.46,2.62 2568.52,186.04 1700.83,364.57 3185.03,1059.68 4434.71,2002.12 826.09,260.71 1617.4,625.24 2353.88,1090.36 229.76,-134.85 470.28,-272.63 722.77,-413.26 1152.63,-641.97 2330.93,-1207.07 3481.6,-1598.68 217.44,-419.54 448,-837.92 691.69,-1253.86 573.51,-1107.76 1315.1,-2233.61 2196.47,-3244.55 1069.64,-1226.95 2390.88,-2338.22 3955.71,-3172.67l1.56 2.89c72.32,-38.56 145.35,-76.32 219.09,-113.19 2299.21,-1149.69 4596.56,-1487.13 6816.16,-1170.11 2572.56,367.33 4737.11,1517.42 6465.79,3246.1 1323.68,1323.69 2253.09,2904.71 2852.36,4576.99 466.01,-71.78 938.26,-118.88 1415.21,-138.18 840.99,-55.11 1703.47,2.62 2568.52,186.04 1700.48,364.48 3184.41,1059.37 4433.91,2001.5 1396.94,440.35 2692.65,1176.69 3788.53,2194.47 128.58,115.28 254.98,234.39 378.58,357.98l-6.36 6.45c70.58,72.85 140.05,147.08 208.68,222.52 86.19,92.59 170.96,187.02 253.86,283.75 952.41,1063.1 1621.94,2273.91 2026.36,3554.19 3715.45,400.14 6987.35,3012.87 8043.47,6833.55 1381.01,4996.09 -1549.58,10165.85 -6545.66,11546.86 -1246.26,343.8 -2582.39,705.39 -3758.95,955.48 -1251.59,266.09 -2579.02,477.93 -3976.75,577.87 -151.98,19.92 -305.15,36.56 -459.57,49.28 -1602.55,133.47 -3422.36,106.83 -5352.25,-333.66 -756.13,-172.56 -1497.27,-399.92 -2215.55,-691.24 -359.1,130.54 -738.21,257.6 -1138.45,381.25 -477.31,180.03 -975.39,324.05 -1492.2,427.01 -1439.68,287.89 -3009.31,412.6 -4711.67,160.46 -296.74,-43.98 -590.63,-97.49 -881.41,-161.13 -976.6,168.34 -1940.83,293.54 -2852.23,356.38l-0.49 -7.42c-36.6,2.44 -73.07,5.42 -109.81,7.42 -1065.77,59.2 -2194.16,85.13 -3430.72,-54.12 -1423.71,-160.47 -2859.25,-511.52 -4283.5,-1171.8 -597.13,174.83 -1192.61,333.65 -1771.55,475.31 -2120.29,518.76 -4093.72,787.39 -5284.07,787.39l0 -22.99c-522.05,8.01 -1063.59,-12.99 -1617.8,-65.73 -511.21,-48.71 -1021.16,-125.74 -1525.92,-232.92 -344.91,38.73 -694.4,71.2 -1048.42,96.51 -151.93,19.97 -305.11,36.56 -459.48,49.28 -792.47,66 -1638.04,92.82 -2523.77,49.81 43.09,3971.06 -2460.35,7685.58 -6432.39,8998.63 -564.08,188 -1294.06,417.05 -2120.87,642.54 -1141.24,311.24 -2212.88,584.86 -2945.93,731.45l-0.71 -3.56c-145.53,28.86 -292.3,54.84 -440.58,77.12 -1670.55,256.98 -3537.19,405.31 -5574.85,422.43 -1961.02,16.5 -3813.79,-94.33 -5494.75,-352.87l2.1 -13.83c-49.73,-7.52 -99.45,-14.68 -149.22,-22.95 -2111.62,-351.98 -4091.23,-887.25 -5952,-1618.74 -1820.93,-715.74 -3537.11,-1623.67 -5159.85,-2734.63 -73.25,-47.05 -146.1,-95.09 -218.46,-144.46 -2539.34,-1742.73 -4618.09,-3761.08 -6454.23,-5905.21 -1281.16,-1496.07 -2516.83,-3196.24 -3734.75,-4909.54 -204.5,-239.05 -399.08,-490.47 -582.5,-754.3l-143.21 -205.53c-535.27,-768.31 -1062.88,-1525.6 -1564.57,-2211.95l-8.18 53.33c-285.8,1714.22 -961.96,3163.73 -1777.2,4359.32 -559.33,820.36 -1093.04,1428.74 -1529.08,1864.78l-7.38 -7.38c-128.09,127.91 -260.18,253.2 -397.12,375.11 -1608.33,1429.53 -3533.69,2289.69 -5525.04,2574.43 -1642.22,234.34 -3287.73,75.16 -4842.65,-477.89 -1615.89,-574.54 -3059.97,-1521.34 -4229.59,-2837.38 -1025.7,-1153.78 -1816.16,-2554.72 -2264.34,-4176.71 -261.97,-864.65 -403.22,-1781.83 -403.22,-2732.05 0,-1359.66 25.17,3.47 61.15,-1414.55 -1325.91,-488.25 -2518.21,-1261.11 -3534.39,-2229.7 -1045.98,-997.5 -1864.38,-2197.23 -2398.62,-3481.15 -441.29,-1060.12 -704.14,-2227.88 -756.84,-3436.1 -1002.39,-326.9 -2263.37,-843.31 -3535.33,-1591.57 -1364.02,-802.29 -2762.07,-1889.32 -3970.61,-3339.63l1.2 -0.98c-50.03,-60.22 -99.49,-121.11 -148.28,-182.88 -1895.64,-2401.2 -2838.26,-5145.22 -2796.14,-8065.31l0.13 -52.08c42.43,-2708.04 903.13,-5314.71 2608.1,-7659.16l9.03 6.54c147.21,-202.68 303.32,-401.26 469,-594.91 1768.57,-2076.17 4053.91,-3589.94 6370.6,-4717.76 1544.69,-751.99 3367.39,-1406.32 4907.09,-1922.19 84.91,-29.58 170.35,-58.31 256.63,-85.66 2756.56,-878.93 5677.32,-1537.57 8583.72,-2006.79 2993.34,-483.23 6028.27,-778.5 8879.92,-915.09 95,-8.85 190.27,-16.72 286.16,-22.72 1950.83,-124.49 4235.91,-178.66 6631.81,-99.85 2127.81,69.96 4216.96,242.39 6070.62,557.86 1104.91,184.13 2378.03,423.27 3789.02,839.79 1658.67,489.72 3342.97,1188.57 4913.36,2233.43 88.46,56.18 176.52,113.42 263.69,172.92 2885.81,1967.56 4694.37,4698.68 5319.92,7930.73 592.41,3060.99 25.22,6182.12 -1801,9104.13l-11.56 -7.21c-1100.91,1787.79 -2611.22,3360.85 -4223.41,4716.91 -645.79,543.19 -1253.73,1020.85 -1820.13,1442.93z"/>
   <path class="fil3" d="M101837.11 124165.39c-394.71,550.56 -1040.02,909.34 -1769.15,909.34l-535.2 0c-1201.42,0 -2175.41,-973.99 -2175.41,-2175.41l0 -6481.89c0,-1201.42 973.99,-2175.41 2175.41,-2175.41l2160.67 0c545.52,0 1050.96,66.29 1516.12,199.17 548.45,156.73 1035.39,409.87 1460.05,759.81 466.8,382.63 815.61,850.09 1046.24,1402.55 20.91,50.16 40.8,100.72 59.61,151.7 274.51,-230.22 571.68,-419.47 891.35,-567.52 537.36,-248.87 1108.06,-373.53 1711.8,-373.53 575.9,0 1112.68,103.9 1610.67,311.2 470.6,195.94 881.96,476.2 1234.47,840.74 91.83,-91.88 190.18,-180.98 295.12,-267.42 373.47,-307.6 797.98,-535.71 1272.18,-684.16l-0.77 -2.42c424.04,-131.96 870.08,-197.94 1336.78,-197.94 473.99,0 933.9,71.17 1379.79,212.95 328.77,104.47 630.26,243.42 904.56,416.69 50.26,-44.09 102.57,-85.86 156.73,-125.28 235.81,-946.44 1091.35,-1647.77 2110.82,-1647.77l539.77 0c957.02,0 1769.71,618.03 2060.76,1476.76 226.62,117.67 429.91,274.04 601.13,460.32 233.96,-172.4 484.63,-317.72 752.04,-435.81 539.82,-238.49 1120.91,-357.86 1743.1,-357.86 622.6,0 1204.81,119.47 1746.23,357.7 556.88,245.17 1041.4,608.63 1453.22,1089.82 376.25,441.1 657.9,940.74 844.44,1499.26 176.36,528.1 264.79,1080.31 264.79,1656.92l0 13.15c28.93,-127.49 64.7,-255.03 107.3,-382.47 130.32,-390.13 318.29,-748.81 564.48,-1074.65l28.37 -36.59c-28.62,-92.6 -53.75,-186.02 -75.44,-280.32 -68.55,-298.19 -102.82,-587.09 -102.82,-866.63 0,-479.55 78.47,-933.91 235.2,-1363.25 181.65,-497.63 459.45,-926.76 832.98,-1287.5l13.46 -12.64c357.6,-341.41 770.55,-594.49 1237.5,-758.93 422.55,-148.87 869.62,-223.38 1340.27,-223.38 455.19,0 887.61,72.51 1297.11,217.57 461.45,163.52 869.62,415.11 1224.24,754.62 344.6,330.06 606.26,710.12 783.96,1138.73 176.05,424.46 264.44,869.57 264.44,1334.06 0,135.66 -8.54,271.94 -25.54,408.93 693.56,296.56 1201.78,943.06 1302.65,1717.56 38.18,-313.36 103.24,-618.6 195.22,-915.66 167.63,-540.8 424.97,-1031.49 772.09,-1471.31l-5.24 -4.11c396.4,-503.23 882.16,-885.4 1456.92,-1145.83 536.68,-243.21 1119.15,-365.05 1747.25,-365.05 501.69,0 984.99,84.58 1449.94,253.23 476.1,172.66 907.9,434.28 1295.56,784.43 59.05,53.54 115.93,108.22 170.71,164.02 91.01,-93.42 188.38,-183.86 292.19,-271.22l9.25 -7.6 -0.78 -0.93c382.48,-318.65 813,-555.13 1291.2,-708.37 443.73,-142.13 904,-213.56 1380.3,-213.56 468.91,0 925.59,70.71 1369.31,212.07 388.79,123.9 741.1,296.87 1056.46,518.96 89.26,-89.72 186.33,-171.68 290.08,-244.86 145.84,-578.31 417.93,-1084.06 816.23,-1517.25 63.46,-68.96 130.37,-132.88 200.15,-191.72 308.32,-285.3 659.5,-504.78 1053.95,-658.32 431.9,-168.19 886.32,-252.21 1363.75,-252.21 82.33,0 184.38,4.78 306.68,14.24 115.57,8.94 219.17,20.35 311.25,34.17 71.02,10.69 152.21,24.87 246.45,43.53 80.78,15.98 169.89,36.07 269.17,61.2 692.85,173.22 1223.98,661.29 1479.01,1273.47l314.03 -404.98c426.97,-552.87 1068.18,-842.7 1716.53,-843.16l0 -6.63 655.33 0c1013.76,0 1865.55,693.42 2106.97,1631.84 163.15,597.58 58.42,1224.45 -259.87,1729.12 324.56,397.48 565.98,846.65 723.89,1346.8 147.84,468.44 221.79,972.19 221.79,1510.72l0 413.61c0,395.84 -105.76,767 -290.54,1086.73 332.31,834.01 112.69,1792.94 -547.53,2399.46 -166.65,162.18 -352.98,312.07 -558.78,449.33l-3.96 2.57 3.96 5.96c-207.19,138.13 -450.15,266.9 -728.62,385.35 -299.02,127.18 -608.57,218.96 -928.81,276 -256.89,45.68 -556.83,68.96 -899.27,70.3l-8.48 -0.06c-618.24,-1.43 -1189.66,-116.44 -1714.06,-345.06 -498.46,-217.37 -939.61,-528.77 -1323.47,-934.16 -358.79,708.11 -1093.46,1193.51 -1941.6,1193.51l-535.25 0c-555.75,0 -1062.78,-208.53 -1447.31,-551.48 -239.72,212.69 -530.47,375.33 -860.22,466.49 -192.9,53.34 -386.94,78.72 -577.84,78.77l0 6.22 -556.47 0c-207.4,0 -408.06,-29.03 -598.09,-83.3 -54.32,15.88 -109.15,30.73 -164.44,44.45 -328.93,81.71 -682.06,123.13 -1059.75,124.62l-8.48 -0.06c-487.61,-1.49 -929.8,-69.78 -1326.3,-205.44 -489.3,-167.52 -914.94,-425.48 -1277.11,-774.91l-43.12 -42.55 -88.02 74.97 4.21 5.09c-375.74,310.94 -792.08,547.73 -1249.16,710.68 -430.42,153.44 -895.93,230.62 -1396.49,232.22 -641.41,-1.49 -1223.88,-120.4 -1747.88,-357.25 -569.72,-257.55 -1053.17,-636.22 -1450.85,-1136.67 -44.76,-56.27 -86.13,-114.13 -124.41,-173.23 -286.59,-397.89 -504.11,-835.6 -651.95,-1312.78 -141.31,-456.01 -219.32,-931.95 -233.81,-1427.32l-18.19 124.05c-39.72,256.37 -92.75,495.37 -158.89,716.84 465.16,633.5 538.44,1449.52 244.25,2137.29 -345.53,832.52 -1151.89,1337.8 -2003.63,1338.06l0 5.24 -609.7 0c-289.42,0 -565.57,-56.63 -818.13,-159.25 -198.82,67.73 -403.39,122 -613.36,162.75 -275.28,53.49 -576.66,80.83 -903.17,82.27l-8.48 -0.06c-543.83,-1.28 -1043.62,-75.23 -1498.39,-222.4 -531.19,-171.94 -999.63,-435.09 -1404.1,-790.28 -431.75,-379.28 -757.34,-824.91 -976.5,-1337.34 -175.49,-410.48 -277.44,-843 -305.86,-1297.67 -43.26,238.54 -103.23,473.27 -179.9,704.2 -188.64,568.14 -469.78,1070.7 -843.67,1507.64 -411.51,480.88 -894.7,843 -1449.73,1086.94 -526.3,231.5 -1107.03,347.48 -1742.12,348.97 -630.05,-1.49 -1210.67,-117.42 -1741.39,-348.97 -268.65,-117.16 -520.09,-260.84 -754.31,-431.09 -210.28,217.47 -467.37,392.7 -759.91,508.01 -76.52,32.27 -155.65,61.98 -237.46,89.16 -161.97,53.8 -282.42,88.85 -365.77,106.94 -83.15,17.93 -166.19,30.73 -248.87,38.84 -52.46,8.17 -101.28,14.6 -146.5,19.33 -94.45,9.86 -212.74,15.72 -352.77,17.78l-63.72 -0.26c-447.02,-5.24 -857.14,-82.99 -1229.38,-234.07 -438.28,-177.8 -820.86,-450.15 -1146.08,-817.26l-3.65 -4.26 -4.83 4.26c-45.94,-52.26 -89.98,-106.11 -132.12,-161.61 -129.49,136.74 -272.4,265.31 -428.67,385.76 -377.74,291.26 -807.08,506.83 -1288.32,647.43 -407.19,118.8 -849.22,178.67 -1326.7,180.01 -507.91,-1.34 -978.67,-67.32 -1412.47,-198.92 -519.37,-157.71 -972.76,-397.99 -1360.27,-722.04l-64.23 -54.88c-105.24,88.44 -213.62,169.88 -325.07,244.19 -207.14,138.08 -450,266.85 -728.57,385.35 -299.02,127.18 -608.57,218.96 -928.81,276 -256.89,45.68 -556.83,68.96 -899.33,70.3l-8.47 -0.06c-618.24,-1.43 -1189.66,-116.44 -1714.07,-345.06 -317.87,-138.64 -612.48,-315.57 -883.8,-530.72 -399.02,482.57 -1002.25,790.07 -1677.32,790.07l-542.8 0c-706.87,0 -1334.87,-337.25 -1732.25,-859.5l-39.87 -49.84z"/>
   <path class="fil4 str0" d="M101298.68 119945.06l0 2809.73 -512.97 0 0 -6212.59 2070.87 0c665.99,0 1177.52,145.73 1533.1,438.64 355.59,291.47 533.38,717.02 533.38,1278.09 0,330.81 -94.72,625.19 -284.18,886.05 -189.45,260.87 -457.59,450.32 -804.44,569.82 384.73,96.18 661.63,269.6 830.68,518.8 169.05,249.22 253.57,561.08 253.57,937.08l0 584.38c0,193.83 23.33,367.25 68.5,521.73 45.18,153.02 120.96,278.34 225.88,375.99l0 102.01 -520.27 0c-104.92,-102.01 -179.24,-246.29 -222.97,-431.36 -42.26,-185.09 -62.67,-377.45 -62.67,-575.65l0 -568.36c0,-381.82 -123.86,-682.03 -370.15,-903.55 -246.3,-220.06 -590.22,-330.81 -1030.34,-330.81l-1707.99 0zm0 -435.74l1498.14 0c561.07,0 970.58,-112.21 1229.99,-338.1 257.94,-227.35 387.65,-531.93 387.65,-916.66 0,-409.51 -128.25,-724.29 -386.19,-945.81 -257.96,-220.06 -648.52,-330.82 -1171.69,-330.82l-1557.9 0 0 2531.39zm8011.87 3335.82c-597.51,-1.45 -1082.81,-212.77 -1455.88,-635.39 -373.08,-422.62 -559.62,-964.75 -559.62,-1627.84l0 -234.63c0,-666 189.46,-1215.41 565.45,-1648.24 377.45,-432.83 845.25,-649.97 1403.41,-649.97 561.07,0 993.9,180.72 1299.94,540.67 306.04,359.96 459.06,845.25 459.06,1454.42l0 396.39 -3214.88 0 0 141.36c0,526.1 132.62,963.29 399.31,1310.14 265.24,346.84 633.95,521.73 1103.21,521.73 281.25,0 540.65,-46.64 776.74,-139.91 236.1,-91.81 432.83,-217.14 588.77,-373.07l218.6 349.76c-161.76,170.5 -374.54,313.31 -638.31,425.53 -263.78,112.21 -578.57,167.6 -945.8,169.05zm-46.64 -4360.32c-393.48,0 -715.55,141.36 -969.13,422.62 -253.58,282.72 -402.22,639.77 -444.48,1072.59l13.11 24.77 2646.51 0 0 -106.38c0,-409.5 -106.38,-747.6 -322.07,-1014.3 -214.23,-265.23 -523.18,-399.3 -923.94,-399.3zm6730.85 3086.62c0,-215.69 -88.89,-403.69 -266.69,-565.45 -177.79,-160.31 -498.41,-291.46 -961.84,-394.94 -546.5,-113.66 -953.09,-269.6 -1219.78,-467.8 -265.24,-196.73 -399.3,-473.63 -399.3,-829.21 0,-354.14 148.65,-652.89 445.93,-897.72 297.3,-244.83 692.23,-367.25 1180.45,-367.25 515.88,0 926.86,131.16 1234.36,392.02 307.48,259.41 454.67,580.02 440.1,961.84l-8.74 26.23 -473.63 0c0,-253.57 -109.31,-473.63 -326.44,-661.62 -218.6,-188 -505.7,-282.72 -865.65,-282.72 -368.71,0 -648.52,81.6 -836.51,243.37 -188,163.22 -281.27,351.22 -281.27,568.35 0,209.86 80.15,384.74 240.46,523.19 161.76,138.45 482.37,259.41 963.3,364.33 540.67,119.5 950.17,287.1 1227.06,499.86 278.36,214.23 416.8,501.33 416.8,862.74 0,384.73 -155.93,696.6 -467.8,937.06 -311.87,240.47 -722.83,359.97 -1235.81,361.42 -561.07,-1.45 -1001.19,-134.06 -1321.8,-402.22 -319.16,-266.7 -470.72,-585.85 -454.69,-956l8.74 -26.24 469.26 0c20.4,333.73 155.94,575.65 408.05,725.75 252.13,151.57 549.41,227.35 890.44,227.35 370.16,0 661.63,-83.07 875.85,-247.76 212.77,-166.13 319.15,-362.86 319.15,-594.58zm3658.81 -4618.28l0 1181.89 1015.76 0 0 418.26 -1015.76 0 0 3010.85c0,301.65 53.92,515.88 164.68,642.67 109.3,125.34 255.04,189.45 437.2,189.45 62.67,0 122.42,-4.37 180.71,-10.2 58.29,-7.28 128.24,-20.4 206.94,-36.43l77.24 378.91c-68.5,34.97 -153.02,62.67 -253.57,84.53 -100.57,20.4 -201.12,30.6 -301.67,32.05 -323.53,-1.45 -577.11,-103.46 -757.82,-307.49 -180.7,-205.48 -271.07,-530.47 -271.07,-973.49l0 -3010.85 -798.61 0 0 -418.26 798.61 0 0 -1181.89 517.36 0zm2902.46 3423.26c0,-680.56 186.54,-1237.27 558.15,-1673 373.08,-435.75 867.12,-654.35 1482.12,-654.35 617.9,0 1113.39,218.6 1486.47,654.35 371.62,435.73 558.15,992.44 558.15,1673l0 141.37c0,683.49 -185.07,1241.64 -556.69,1675.93 -371.62,434.28 -864.2,649.97 -1479.19,651.42 -620.82,-1.45 -1117.78,-217.14 -1490.86,-651.42 -371.61,-434.29 -558.15,-992.44 -558.15,-1675.93l0 -141.37zm511.52 141.37c0,534.84 135.54,985.16 405.14,1349.49 271.07,364.33 648.52,546.5 1132.35,546.5 475.09,0 848.16,-182.17 1120.68,-546.5 271.07,-364.33 408.06,-814.65 408.06,-1349.49l0 -141.37c0,-526.08 -136.99,-973.49 -410.97,-1340.74 -272.52,-367.25 -648.51,-550.86 -1126.51,-550.86 -478.02,0 -852.54,183.61 -1123.61,550.86 -269.6,367.25 -405.14,814.66 -405.14,1340.74l0 141.37zm8922.69 -1157.12c-230.26,-284.19 -402.22,-545.04 -512.98,-779.67 -110.76,-234.63 -166.14,-475.09 -166.14,-722.84 0,-450.31 126.79,-797.15 380.37,-1041.99 252.11,-244.83 600.42,-367.24 1041.98,-367.24 409.52,0 734.5,115.12 974.96,345.38 240.46,230.26 361.42,521.73 361.42,871.48 0,256.5 -64.12,476.56 -192.37,661.63 -128.25,185.08 -313.33,370.17 -555.24,555.24l-679.12 520.27 1759 2053.38c139.91,-201.11 247.74,-428.45 324.98,-677.65 75.78,-250.67 115.14,-518.82 115.14,-803l469.26 0c0,364.34 -52.47,699.52 -155.94,1005.56 -103.48,306.04 -253.58,582.94 -450.32,830.68l789.88 921.03 -8.75 21.86 -584.39 0 -521.72 -601.88c-241.91,221.52 -505.7,392.02 -794.25,511.53 -287.09,119.49 -597.5,179.25 -929.78,180.7 -594.58,-1.45 -1066.75,-153.02 -1413.6,-457.6 -346.84,-304.58 -520.27,-709.72 -520.27,-1216.86 0,-341.02 102.02,-649.98 308.95,-923.95 206.94,-275.44 504.24,-555.24 894.81,-839.42l64.12 -46.64zm665.99 3053.11c260.87,0 517.36,-52.47 766.56,-154.48 249.2,-102.02 472.17,-249.21 671.83,-440.11l-1767.74 -2057.76c-14.57,-14.57 -26.23,-26.23 -36.43,-36.43 -10.21,-8.74 -17.48,-20.4 -23.32,-32.05l-199.65 154.46c-330.81,266.7 -552.33,508.61 -664.55,725.76 -112.21,215.69 -169.05,415.33 -169.05,597.51 0,352.67 122.41,648.51 365.8,886.05 243.37,237.54 594.58,357.05 1056.55,357.05zm-833.58 -4564.36c0,187.99 45.17,381.82 135.52,584.39 88.91,202.57 227.35,416.8 410.98,645.6l756.34 -563.99c164.69,-128.24 282.73,-262.32 352.68,-402.23 69.95,-138.44 103.47,-288.55 103.47,-447.4 0,-225.89 -74.33,-410.96 -222.96,-559.61 -150.12,-148.65 -358.51,-221.52 -625.21,-221.52 -291.47,0 -515.89,91.81 -673.28,276.9 -157.39,185.08 -237.54,413.88 -237.54,687.86zm9553.71 4564.36c327.9,0 616.45,-97.65 868.57,-291.47 252.11,-192.37 378.9,-461.97 378.9,-805.91l456.15 0 8.74 24.78c11.66,427 -157.39,784.04 -504.24,1072.6 -346.84,287.09 -749.06,429.91 -1208.12,431.36 -614.99,-1.45 -1093.01,-217.14 -1436.93,-649.96 -342.47,-432.83 -514.43,-986.62 -514.43,-1659.91l0 -180.7c0,-670.38 170.5,-1222.7 512.97,-1655.53 341.01,-432.83 819.03,-649.97 1434.02,-649.97 495.49,0 907.91,150.11 1238.73,448.86 329.35,298.75 489.66,692.23 478,1178.98l-8.74 24.78 -456.15 0c0,-370.17 -120.96,-664.55 -362.87,-886.06 -243.38,-220.06 -539.22,-330.81 -888.97,-330.81 -483.84,0 -843.8,177.79 -1079.88,533.38 -236.09,357.04 -354.14,801.53 -354.14,1336.37l0 180.7c0,543.59 118.05,992.45 354.14,1346.58 236.08,354.13 597.5,531.93 1084.25,531.93zm6907.19 341.01c-32.06,-161.76 -55.37,-301.67 -71.41,-418.25 -14.57,-116.59 -23.31,-236.1 -23.31,-358.51 -158.85,250.66 -381.83,457.61 -670.37,620.83 -287.1,163.22 -616.45,244.83 -989.53,246.28 -453.23,-1.45 -804.45,-120.95 -1053.65,-361.42 -247.75,-240.46 -373.08,-566.9 -373.08,-979.32 0,-413.89 180.72,-747.61 542.13,-1004.1 361.42,-256.5 832.13,-384.73 1409.23,-384.73l1135.27 0 0 -571.27c0,-330.82 -104.93,-588.77 -313.33,-776.76 -209.86,-188 -504.23,-282.72 -886.05,-282.72 -349.77,0 -632.48,85.98 -846.71,256.48 -215.69,170.52 -323.53,386.19 -323.53,644.15l-473.64 0 -8.74 -24.78c-16.03,-346.84 132.62,-652.88 445.94,-916.65 314.79,-262.33 725.75,-394.95 1232.91,-394.95 505.68,0 913.74,129.71 1221.24,389.11 306.04,259.41 460.52,631.03 460.52,1114.86l0 2270.52c0,163.22 8.74,320.61 27.68,475.08 18.95,153.02 49.56,304.59 91.81,456.15l-533.38 0zm-1699.25 -362.88c392.02,0 733.04,-93.27 1020.14,-279.8 287.09,-186.54 482.38,-425.54 584.39,-719.93l0 -883.14 -1139.64 0c-415.33,0 -757.8,99.1 -1028.87,297.3 -271.06,196.75 -405.14,435.75 -405.14,714.09 0,262.33 85.98,473.63 257.95,632.48 171.97,158.85 409.5,239 711.17,239zm4998.11 362.88l0 -4201.48 -763.64 0 0 -418.26 763.64 0 0 -674.74c0,-463.43 116.58,-821.93 349.75,-1075.51 234.63,-253.57 559.63,-380.36 977.88,-380.36 91.81,0 185.07,7.29 282.71,21.86 96.19,14.57 195.29,33.52 298.77,59.75l-68.51 422.62c-68.5,-17.48 -138.44,-30.6 -209.85,-40.8 -71.41,-10.2 -154.47,-14.57 -252.11,-14.57 -278.36,0 -492.59,87.44 -642.69,263.77 -148.65,177.79 -222.98,424.09 -222.98,743.24l0 674.74 1044.91 0 0 418.26 -1044.91 0 0 4201.48 -512.97 0zm5285.2 90.35c-597.51,-1.45 -1082.8,-212.77 -1455.88,-635.39 -373.08,-422.62 -559.61,-964.75 -559.61,-1627.84l0 -234.63c0,-666 189.45,-1215.41 565.44,-1648.24 377.45,-432.83 845.25,-649.97 1403.41,-649.97 561.07,0 993.9,180.72 1299.94,540.67 306.04,359.96 459.06,845.25 459.06,1454.42l0 396.39 -3214.88 0 0 141.36c0,526.1 132.62,963.29 399.32,1310.14 265.23,346.84 633.94,521.73 1103.2,521.73 281.25,0 540.66,-46.64 776.75,-139.91 236.09,-91.81 432.82,-217.14 588.76,-373.07l218.6 349.76c-161.76,170.5 -374.54,313.31 -638.31,425.53 -263.77,112.21 -578.57,167.6 -945.8,169.05zm-46.64 -4360.32c-393.48,0 -715.55,141.36 -969.12,422.62 -253.59,282.72 -402.22,639.77 -444.49,1072.59l13.11 24.77 2646.51 0 0 -106.38c0,-409.5 -106.38,-747.6 -322.07,-1014.3 -214.23,-265.23 -523.18,-399.3 -923.94,-399.3zm539.21 -2315.7l628.11 0 11.65 24.77 -1062.38 1110.49 -457.6 0 880.22 -1135.26z"/>
   <path class="fil5 str1" d="M92281.3 122043.68c-2849.12,308.01 -5852.24,231 -8778.36,-462.02 -2849.11,-616.03 -5544.22,-1617.07 -7854.32,-3465.13 -3696.15,-2695.12 -6083.24,-6391.27 -8547.34,-10087.41 -1694.07,-2387.1 -3465.14,-4928.21 -5621.23,-7161.29 -2310.09,-2310.1 -5005.2,-4004.17 -7854.32,-5082.21 -1848.06,-462.02 -3696.14,-770.03 -5775.22,-770.03 3234.13,-1386.06 6314.25,-2926.12 9471.37,-4543.19 1617.07,-924.03 3465.14,-1925.08 4928.21,-2849.12 2002.07,-1309.05 4543.18,-3157.12 5698.22,-5082.19 1155.05,-1848.08 770.04,-3619.16 -924.03,-4774.19 -1617.07,-1155.05 -3927.16,-1617.08 -5775.24,-1925.09 -3619.14,-616.03 -8085.33,-616.03 -11704.47,-385.02 -5544.23,231.01 -11858.48,1078.05 -17171.69,2772.13 -2541.11,847.03 -6237.26,2233.08 -8008.33,4312.17 -1232.05,1694.06 -1232.05,3465.14 -77,4928.19 1155.04,1386.06 3003.12,2079.09 3927.16,2310.1 -693.03,-770.04 -2002.08,-2079.09 -2695.11,-3080.12 -693.03,-1155.05 -693.03,-2079.1 231.01,-3003.14 1540.06,-1771.06 5005.2,-3003.11 7161.29,-3696.14 5082.21,-1617.06 11473.47,-2541.1 16786.68,-3003.12 3542.14,-231.01 7854.31,-385.01 11319.45,231.01 1617.07,231.01 3773.16,693.03 5159.22,1694.06 924.03,693.03 1078.04,1540.07 385.01,2772.12 -1078.04,1617.06 -3465.14,3465.14 -5082.21,4543.19 -3696.15,2387.09 -8547.35,4928.19 -12628.51,6776.27 -1232.04,616.02 -2772.11,1309.05 -4158.17,1848.07 231.01,-1694.07 462.02,-2541.1 -77,-2772.11 -1540.05,-693.03 -1540.05,1771.07 -1617.06,3465.14 -2926.13,616.02 -5698.23,1771.07 -7546.3,2772.11 -924.04,462.02 -308.02,1848.08 616.02,1540.06 693.02,-154 4004.15,-1771.07 6776.28,-2464.09 -77.01,1848.07 -231.01,3850.15 -308.02,5698.22 0,1232.06 -154,7931.32 -154,8162.33 154,1078.05 1078.04,1309.06 1771.07,693.03 308,-308.01 693.02,-770.03 770.02,-1232.05 -462.02,77 -693.03,231.01 -924.04,231.01 0,-231.01 154.02,-4543.19 231.01,-7854.32 154.02,-2002.07 231.01,-3927.16 231.01,-5929.23 2926.13,-462.02 5775.24,-462.02 8470.34,462.02 2618.11,924.03 5159.22,2541.1 7161.29,4543.18 2079.09,1925.08 3773.16,4389.18 5544.23,6930.28 2618.11,3696.15 5313.22,7469.3 9240.38,10164.4 2387.09,1694.07 5159.2,2772.12 8393.33,3311.14 3003.12,462.02 6160.25,385.01 9163.37,-77.01 1925.08,-385.01 3465.14,-847.03 4389.18,-1155.04 -1386.06,308.01 -3157.13,539.02 -4543.18,693.03zm-3003.12 -12243.49c-1309.05,0 -3157.13,-231.01 -3850.16,-1386.06 -308.01,-462.02 -462.02,-1771.08 231.01,-3157.12 847.03,-693.03 1386.06,-1386.06 1848.08,-2310.1 231.01,-308.01 231.01,-770.03 -77.01,-1001.04 -231.01,-385.01 -847.03,-462.02 -1309.05,-154.01 -462.02,385.02 -924.04,847.04 -1386.06,1540.06 -308.01,462.02 -693.02,1001.05 -924.03,1694.08 -924.04,1078.04 -2618.11,2233.08 -3773.16,2926.11 -1155.05,539.03 -2310.09,1001.05 -3619.14,1386.06 -308.02,0 -1232.06,76.99 -1463.07,-231.01 -154,-231.01 -231.01,-847.03 0,-1617.07 693.03,-1386.05 2541.11,-2926.11 3773.16,-3927.16 924.04,-693.03 2079.08,-1540.06 3157.12,-2002.07 231.01,0 1232.06,-308.02 1232.06,0 0,154 -77.01,462.01 -77.01,616.02 -462.02,539.02 308.02,1386.05 924.04,770.03 231.01,-77.01 539.02,-539.02 693.03,-1232.05 77,-924.04 -462.02,-1771.07 -1540.06,-2002.08 -1694.07,-77.01 -4004.17,1386.06 -5390.22,2541.1 -1540.06,1155.05 -3465.15,2926.12 -4312.18,4620.18 -308,1078.05 -462.02,2464.11 385.03,3234.13 693.01,847.04 1848.06,847.04 3003.11,616.03 1386.05,-385.02 2618.11,-924.03 3773.15,-1617.06 1078.04,-616.02 2079.09,-1309.05 2926.12,-2002.09 0,847.04 308.02,1617.08 770.03,2233.1 1078.05,1463.05 3157.13,1617.06 5005.21,1463.05 2310.09,-77 4928.19,-770.02 7161.29,-1386.06 -2079.09,231.01 -5082.21,462.02 -7161.29,385.03zm19866.8 0c-1309.05,0 -3157.13,-231.01 -3850.16,-1386.06 -308,-462.02 -462.02,-1771.08 231.01,-3157.12 847.03,-693.03 1386.06,-1386.06 1848.08,-2310.1 231.01,-308.01 231.01,-770.03 -77.01,-1001.04 -231.01,-385.01 -847.03,-462.02 -1309.05,-154.01 -462.02,385.02 -924.04,847.04 -1386.06,1540.06 -308,462.02 -693.02,1001.05 -924.03,1694.08 -924.04,1078.04 -2618.1,2233.08 -3773.15,2926.11 -1155.05,539.03 -2310.09,1001.05 -3619.14,1386.06 -308.02,0 -1232.06,76.99 -1463.07,-231.01 -154.01,-231.01 -231.01,-847.03 0,-1617.07 693.03,-1386.05 2541.11,-2926.11 3773.15,-3927.16 924.04,-693.03 2079.08,-1540.06 3157.12,-2002.07 231.01,0 1232.06,-308.02 1232.06,0 0,154 -77.01,462.01 -77.01,616.02 -462.02,539.02 308.02,1386.05 924.05,770.03 231.01,-77.01 539.01,-539.02 693.03,-1232.05 76.99,-924.04 -462.02,-1771.07 -1540.07,-2002.08 -1694.06,-77.01 -4004.16,1386.06 -5390.21,2541.1 -1540.06,1155.05 -3465.15,2926.12 -4312.19,4620.18 -308,1078.05 -462.02,2464.11 385.03,3234.13 693.02,847.04 1848.07,847.04 3003.12,616.03 1386.05,-385.02 2618.1,-924.03 3773.14,-1617.06 1078.04,-616.02 2079.09,-1309.05 2926.12,-2002.09 0,847.04 308.02,1617.08 770.03,2233.1 1078.06,1463.05 3157.13,1617.06 5005.21,1463.05 2310.09,-77 4928.2,-770.02 7161.29,-1386.06 -2079.09,231.01 -5082.21,462.02 -7161.29,385.03zm21791.88 -154.02c-1001.04,0 -2310.1,-76.99 -3080.12,-693.01 -693.03,-462.02 -924.04,-1232.06 -1155.05,-2079.1 1463.05,-924.04 2849.11,-2156.08 3773.15,-3465.13 1617.06,-2079.08 2772.11,-4466.18 3003.12,-7007.29 231.01,-1540.06 0,-3619.14 -1001.03,-4620.19 -693.03,-693.02 -1617.07,-924.03 -2695.12,-385.01 -1155.05,616.02 -2079.07,1848.08 -2618.1,3003.12 -1386.06,2310.1 -2233.1,4851.2 -2541.1,7161.3 -231.01,1617.06 -154.02,3388.13 231.01,5005.2 -924.04,462.01 -2002.08,924.03 -2926.12,1386.05 -2618.11,1001.05 -5621.23,1463.05 -6776.28,1463.05 -616.02,0 -1540.06,0 -1540.06,-539.01 0,-1386.06 2541.11,-3696.15 3696.15,-4620.19 1155.05,-847.03 2541.11,-1771.07 4081.16,-2079.08 462.02,-231.01 1232.06,-385.02 1694.08,0 1078.04,462.02 1617.05,-1078.04 693.03,-1540.06 -924.04,-462.02 -1925.09,-462.02 -3003.13,-77.01 -1463.06,462.02 -3080.13,1463.06 -4466.18,2387.1 -1617.07,1309.05 -4158.17,3850.15 -4158.17,5929.24 -154,1617.07 1386.06,2156.08 3003.12,2079.08 1232.05,0 4389.18,-616.03 7238.3,-1771.06 1078.04,-308.02 2002.08,-770.04 2772.1,-1232.06 385.02,924.04 924.04,1694.06 1771.08,2387.09 1155.05,693.03 2618.1,693.03 4004.16,616.03 2233.08,-154.01 5082.2,-847.04 7315.29,-1540.07 -2464.1,154.02 -5236.21,385.03 -7315.29,231.01zm-4620.19 -7931.31c385.02,-2233.09 1155.06,-4543.18 2233.1,-6468.27 462.02,-847.03 1232.04,-2079.08 1925.07,-2464.09 462.02,-231.01 616.03,-77.01 924.04,154 616.03,539.03 847.04,2156.09 693.02,3311.14 -76.99,2002.08 -1001.03,4312.17 -2541.1,6237.25 -924.04,1078.04 -1925.07,2079.09 -3080.12,3003.11 -231.01,-1232.04 -231.01,-2387.09 -154.01,-3773.14zm25103.02 8085.33c-1309.05,0 -3157.13,-231.01 -3850.16,-1386.06 -308.01,-462.02 -462.02,-1771.08 231.01,-3157.12 847.03,-693.03 1386.06,-1386.06 1848.08,-2310.1 231.01,-308.01 231.01,-770.03 -77.01,-1001.04 -231.01,-385.01 -847.03,-462.02 -1309.05,-154.01 -462.02,385.02 -924.04,847.04 -1386.06,1540.06 -308.01,462.02 -693.02,1001.05 -924.03,1694.08 -924.04,1078.04 -2618.11,2233.08 -3773.16,2926.11 -1155.05,539.03 -2310.09,1001.05 -3619.14,1386.06 -308.02,0 -1232.06,76.99 -1463.07,-231.01 -154,-231.01 -231.01,-847.03 0,-1617.07 693.03,-1386.05 2541.11,-2926.11 3773.16,-3927.16 924.04,-693.03 2079.08,-1540.06 3157.12,-2002.07 231.01,0 1232.06,-308.02 1232.06,0 0,154 -77.01,462.01 -77.01,616.02 -462.02,539.02 308.02,1386.05 924.04,770.03 231.01,-77.01 539.02,-539.02 693.03,-1232.05 77,-924.04 -462.02,-1771.07 -1540.06,-2002.08 -1694.07,-77.01 -4004.17,1386.06 -5390.22,2541.1 -1540.06,1155.05 -3465.15,2926.12 -4312.18,4620.18 -308,1078.05 -462.02,2464.11 385.03,3234.13 693.01,847.04 1848.06,847.04 3003.11,616.03 1386.05,-385.02 2618.11,-924.03 3773.15,-1617.06 1078.04,-616.02 2079.09,-1309.05 2926.12,-2002.09 0,847.04 308.02,1617.08 770.03,2233.1 1078.05,1463.05 3157.13,1617.06 5005.21,1463.05 2310.09,-77 4928.19,-770.02 7161.29,-1386.06 -2079.09,231.01 -5082.21,462.02 -7161.29,385.03z"/>
   <path class="fil6" d="M110825.31 76101.78c6914.2,733.95 14073.37,5466.3 22904.65,6111.74 99.88,7.24 183.52,90.63 187.28,193.62 3.73,102.87 -71.17,191.37 -171.04,207.11 -4708.64,747.44 -7298.48,266.3 -12523.35,-806.86 -15697.45,-3459.1 -15318.31,1542.32 -11199.54,3132.67 1496.73,577.88 3963.6,656.4 6581.27,490.75 3526.04,-211.73 3284.58,1264.88 11.37,1592.6 -1355.54,181.27 -2731.91,276.28 -4066.47,258.04 -3133.77,-43.56 -5979.91,-797.6 -7939.42,-2351 -2577.46,-2042.91 -2697.82,-5347.35 -645.06,-7093.87 1525.44,-1297.86 4025.52,-2035.54 6860.31,-1734.8l0 0zm-8062.28 -27538.54c13160.8,121.1 14212.83,-6093.53 22550.62,-8017.33 4486.3,-868.89 12117.87,-403.24 13794.5,7338.19 -686.63,1098.6 -1082.37,2056.14 -1280.89,3458.11 -13.74,93.62 37.46,181.02 123.6,215.96 88.63,34.96 186.01,6.25 239.71,-71.14 4986.17,-7036.07 18550.18,-4190.95 15926.01,6992.48 -1730.28,5921.11 -8497.96,10985.06 -17886.04,5575.05 0,0 2408.21,-1237.05 3153.49,-5339.59 17.5,-94.89 -32.44,-186.38 -122.33,-222.98 -88.64,-36.82 -189.77,-6.47 -243.44,73.54 -1199.72,1774.26 -4496.8,5711.39 -9349.64,4229.27 0,0 4113.78,-2748.63 2765.51,-9963.23 -17.5,-98.64 -102.38,-167.31 -202.25,-164.81 -101.14,2.52 -182.28,76.15 -196.02,174.79 -378.25,2842.26 -2019.93,9401.44 -9096.69,9457.75 250.18,-243.56 1612.56,-2189.24 1528.06,-5247.85 -2.62,-93 -65.28,-169.9 -156.04,-191.12 -90.64,-21.23 -181.3,20.33 -224.86,102.99 -4711.52,8988.09 -16666.7,8259.26 -21570,388.87 -52.28,-84.13 -156.04,-117.96 -247.54,-80.53 -90.63,37.09 -141.34,131.61 -122.11,227.85 518.72,2502.2 2604.57,5834.97 5755.82,7211.36 -6130.59,6677.75 -13992.47,1550.89 -15267.73,-5633.61 -1128.95,-6361.8 1805.32,-10647.6 8086.72,-12225.6 4349.73,-1093.62 9392.46,-1958.77 12387.66,-5714.01 62.67,-77.39 59.31,-188.51 -9.61,-262.17 -68.05,-73.63 -177.91,-86.14 -261.55,-29.95 -2200.94,1490.6 -6079.17,2882.58 -10995.53,3428.14 -20769.15,2575.49 -15518.43,28856.38 2574.1,27019.45 7255.91,-5888.51 31940.07,-8924.66 32207.23,-231.45l177.29 5484.16c-4450.62,-2035.66 -11488.29,-3163.47 -19384.03,-1970.75 -101.11,15.25 -177.91,107.73 -171.78,212.6 6.99,105.12 95.87,187.65 197.87,189.15 4635.62,70.77 14358.03,1475.63 22244.28,7855.39 61.15,49.32 144.79,59.82 217.22,23.47 72.39,-36.32 114.85,-107.36 111.09,-188.38l-550.55 -14135.3c8616.58,2751.75 18710,-3444.5 17903.53,-13920.2 -565.52,-7343.18 -8113.45,-12671.43 -15774.98,-8172.13 -1149.79,-10360.6 -14905.44,-13162.04 -22366.22,-7479.26 -1831.44,1395.74 -3498.93,2828.91 -5902.27,4560.45 -2319.55,1670.39 -5525.61,3358.24 -10610.14,4644.12 -99.39,24.96 -163.93,119.84 -150.81,220.96 12.23,101.13 97.63,176.03 198.74,177.29l0 0z"/>
   <rect class="fil7" x="136531.43" y="117712.86" width="1798.51" height="5363.4"/>
   <path class="fil0" d="M134396.63 88534c-5016.52,796.73 -8250.54,305.98 -13033.45,-717.34 237.95,360.9 396.61,799.35 447.16,1329.29 -5299.88,1619.58 -14472.75,1558.53 -19001.99,-2031.91 -3550.38,-2813.81 -4323.64,-8091.11 -721.84,-11155.57 1169.03,-994.63 2580.24,-1656.16 4074.34,-2035.3l-921.46 -129.72 -766.14 77.78c-5476.8,556.04 -10775.85,-1108.22 -14554.54,-5196.4 -3241.64,-3507.06 -4900.04,-8401.21 -4369.82,-13156.18 938.56,-8417.33 7792.84,-13120.1 15750.5,-14086.37 3046.63,-370.79 7396.36,-1290.87 9982.57,-3042.37 1119.34,-757.79 2616.93,-600.49 3553.99,363.27 925.72,-731.57 1847.03,-1468.13 2789.33,-2184.73 8221.82,-6263.28 22331.79,-3836.37 25960.92,6004.89 3575.48,-1131.07 7413.11,-797.74 10730.13,1362.01 3511.81,2285.85 5681.54,6150.95 6002.4,10309.43 448.18,5833.95 -2028.7,11272.68 -6885.02,14580.36 -3252.11,2213.82 -7209.61,3212.8 -11084.69,2853.5l556.8 14263.02c42.45,1092.23 -554.31,2104.2 -1530.55,2594.07 -976.27,490.75 -2151.03,363.55 -2998.69,-322.46l-3979.95 320.73 0 0z"/>
   <rect class="fil7" x="134396.68" y="86735.46" width="9122.39" height="5937.21"/>
   <rect class="fil7" x="119989.94" y="87131.27" width="2849.35" height="2824"/>
   <path class="fil1 str2" d="M110691.85 76168.05c6991,742.08 14228.67,5526.37 23156.72,6178.92 102.37,7.37 186.01,91.63 188.51,195.63 4.99,104.12 -71.17,193.62 -171.04,209.48 -4761.44,755.67 -7379.13,269.16 -12662.41,-815.83 -15869.11,-3496.96 -15485.59,1559.27 -11321.51,3166.84 1512.32,584.01 4007.16,663.28 6652.8,496.88 3565.11,-214.48 3321.03,1277.88 12.11,1609.08 -1370.26,184.01 -2761.5,279.89 -4110.91,261.53 -3168.59,-43.57 -6046.06,-806.35 -8026.55,-2376.21 -2606.33,-2065.89 -2727.55,-5406.78 -652.92,-7172.42 1542.91,-1312.07 4069.94,-2058 6935.2,-1753.9l0 0zm-8150.29 -27840.77c13305.48,122.34 14369.02,-6160.93 22798.18,-8105.96 4536.36,-878.89 12250.34,-408.22 13945.68,7419.34 -692.88,1109.82 -1094.85,2078.61 -1294.61,3495.55 -13.73,94.88 37.46,183.51 126.1,218.48 88.63,36.2 187.24,6.25 242.17,-71.17 5039.87,-7113.45 18752.46,-4238.36 16099.58,7068.79 -1749.04,5986.01 -8590.35,11105.64 -18082.04,5636.35 0,0 2434.4,-1250.67 3188.43,-5398.28 17.5,-96.02 -33.7,-188.5 -123.59,-225.47 -89.87,-37.19 -191.01,-6.62 -245.94,74.28 -1213.45,1793.73 -4546.71,5774.05 -9453,4275.7 0,0 4158.48,-2778.73 2796.47,-10073.09 -18.73,-98.61 -104.86,-168.54 -204.74,-166.04 -102.37,2.49 -184.78,76.15 -197.26,176.03 -383.26,2874.1 -2042.4,9505.18 -9196.95,9562.11 252.8,-246.05 1629.19,-2213.2 1544.66,-5305.39 -2.62,-94 -66.27,-171.78 -157.8,-193.25 -92.39,-21.48 -183.88,20.73 -227.45,104.25 -4762.97,9086.58 -16849.87,8350.01 -21807.21,393 -53.17,-85.03 -157.79,-119.22 -250.16,-81.39 -92.38,37.43 -142.94,133.18 -122.85,230.19 522.95,2529.78 2633.29,5899.26 5817.62,7290.75 -6196.89,6751.17 -14145.8,1567.89 -15434.17,-5695.53 -1141.8,-6432.07 1824.44,-10764.08 8174.75,-12360.81 4397.67,-1104.83 9496.19,-1979.97 12524.49,-5775.17 62.78,-79.88 59.3,-191 -9.62,-265.9 -68.91,-74.92 -180.4,-87.39 -264.17,-29.97 -2226.29,1506.83 -6147.07,2913.81 -11117.52,3465.6 -20996.84,2604.2 -15688.58,29173.35 2602.84,27316.21 7335.3,-5952.95 32290.5,-9022.56 32561.41,-234.07l178.53 5544.58c-4499.3,-2057.91 -11614.51,-3198.2 -19596.51,-1992.35 -102.86,15.47 -180.4,108.74 -173.53,214.97 6.99,106.25 96.76,189.65 199.63,191.13 4686.29,71.66 14516.8,1491.86 22489.19,7941.67 61.18,49.81 146.06,60.56 219.71,23.84 72.43,-36.81 116.11,-108.6 112.38,-190.51l-558.06 -14290.47c8712.7,2781.97 18917.24,-3482.45 18100.79,-14073.27 -571.78,-7424.33 -8203.34,-12811.24 -15948.52,-8262 -1161.03,-10474.22 -15068.25,-13306.86 -22611.04,-7561.66 -1852.39,1411.97 -3537.38,2861.38 -5967.68,4610.41 -2344.78,1689.09 -5585.77,3395.67 -10726.99,4696.53 -100.25,24.98 -164.81,119.84 -152.56,223.47 13.1,102.37 99.36,177.26 201.36,178.52l0 0z"/>
  </g>
 </g>
</svg>
