<?xml version="1.0" encoding="UTF-8"?>
<!DOCTYPE svg PUBLIC "-//W3C//DTD SVG 1.1//EN" "http://www.w3.org/Graphics/SVG/1.1/DTD/svg11.dtd">
<!-- Creator: CorelDRAW 2021 (64-Bit) -->
<svg xmlns="http://www.w3.org/2000/svg" xml:space="preserve" width="2336.26mm" height="1587.23mm" version="1.1" style="shape-rendering:geometricPrecision; text-rendering:geometricPrecision; image-rendering:optimizeQuality; fill-rule:evenodd; clip-rule:evenodd"
viewBox="0 0 233625.86 158722.77"
 xmlns:xlink="http://www.w3.org/1999/xlink"
 xmlns:xodm="http://www.corel.com/coreldraw/odm/2003">
 <defs>
  <style type="text/css">
   <![CDATA[
    .fil0 {fill:#D7BA92}
   ]]>
  </style>
 </defs>
 <g id="Layer_x0020_1">
  <metadata id="CorelCorpID_0Corel-Layer"/>
  <path class="fil0" d="M73409.06 85047.35c-1277.01,13039.24 -339.67,28668.91 -509.75,41940.29 -100.92,7865.87 231.87,13776.77 -1965.94,21326.21 -640.72,2200.99 -1187.67,3466.24 -2578.59,5241.81 -1642.02,2498.2 -4783.91,3876.89 -9009.82,3713.02 -3872.48,-619.1 -5748.01,-3506.95 -5806.81,-7860.32 -62.92,-4658.83 3480.13,-10762.91 7917.56,-12603.67 3629.95,-1505.89 6759.89,-919.27 9933.85,1164.97 -1640.91,-4616.03 -6558.23,-8807.36 -11706.25,-8922.89 -6677.75,309.27 -13014.3,3476.31 -15720.06,9799.36 -1976.7,4619.43 -1433.88,10912.4 2207.27,14913.39 3640.5,4000.3 9638.57,5420.71 16889.01,4837.75 8763.7,-1757.67 14313.99,-4655.52 17110.63,-13987.24 1796.45,-5994.15 1986.22,-15791.9 1872.76,-22229.06 59.17,-10953.91 -124.23,-21324.25 -76.73,-33124.33 2603.38,204.31 5164.76,560.04 5891.62,3324.59 235.6,-2796.59 1787.83,-5375.45 2931.68,-6470.71 -2574.27,894.95 -5612.66,1180.55 -8676.68,1048.49 0,-3455.47 -1300.02,-15513.24 2816.52,-15700.43 439.33,-19.98 758.62,3.87 895.83,479.31 256.26,887.71 -1041.75,2064.94 -1250.04,3705.04 -217.85,1715.28 952.77,3678.23 2643.81,4407.25 3239.15,1396.46 6450.59,-184.08 7251.83,-3550.97 607.64,-2553.39 -673.48,-4951.13 -2968.02,-6331.93 -4023.3,-2113.53 -9056.72,-1216.55 -12409.01,1339.07 -4046.12,3084.61 -5217.16,8767.27 -5684.67,13541zm118534.28 -2905.14c-3600.42,0 -6519.13,-2918.71 -6519.13,-6519.14 0,-3600.42 2918.71,-6519.13 6519.13,-6519.13 3600.43,0 6519.14,2918.71 6519.14,6519.13 0,3600.43 -2918.71,6519.14 -6519.14,6519.14zm27927.85 15935.44c-33.35,3857.03 262.54,8157.72 -898.64,11803.03 -1019.89,3201.74 -4266.04,5728.64 -7153.74,2668.81 -3364.63,-3565.2 -814.39,-13068.87 8052.38,-14471.84zm-8494.83 -2465.98c1063.61,-4007.22 -1713.64,-4790.85 -2185.56,-6252.67 42.86,-2919.41 11688.53,-3578.16 10733.45,7157.45 -5608.61,1190.48 -8044.86,1854.76 -12157.51,4614.04 -8522.14,5717.66 -8623.85,19922.82 2567.95,19170.13 4832.68,-324.93 7800.22,-3760.68 9131.81,-7563.35 203,1921.47 793.83,5849.1 5233.13,7059.19 4330.33,1180.37 6211.71,-722.09 8926.23,-1913.17 -1954.92,-264.35 -2888.74,-558.68 -3673.14,-2122.48 -2879.92,-5741 1476.94,-19783.77 -3119.29,-25539.81 -4124.58,-5165.46 -16801.02,-5647.75 -22124.71,-1804.37 -2271.72,1347.14 -3936.97,6746.45 -1723.06,9199.9 2463.82,2730.25 7462.58,1492.07 8390.7,-2004.86zm-69204.83 9951.31c-1071.87,-2146.41 -1691.51,-6526.18 -1094.75,-10629.56 551.36,-3791.14 2171.19,-6822.45 5222.6,-7493.57 455.31,-100.11 474.96,-87.74 908.48,87.16 3750.94,1513.57 4508.53,6369.65 1226.55,11673.95 -1448.64,1707.72 -3887.35,4318.04 -6262.88,6362.02zm-9995.01 2028c858.11,5965.03 4864.47,10691.06 11886.11,12911.77 4512.92,377.91 6153.72,662.68 10142.35,-2067.57 3473.74,-2377.78 4983.56,-5457.74 6250.48,-9297.73 -868.17,645.32 -806.92,1057.7 -2100.25,1920.32 -2988.79,1993.82 -5729.78,2538.53 -9128.31,1734.38 -3102.64,-894.23 -6061.36,-3433.72 -6726.31,-6205.2 6343.76,-5281.98 12316.37,-9342.26 18169.48,-8736.3 -1468.8,-6676.54 -3184.95,-10259.83 -10567.92,-11648.5 -4703.03,-476.47 -8674.21,422.5 -11716.85,2820.43 -5069.3,3995.19 -7221.4,12454.42 -6208.78,18568.4zm-34181.17 -2028c-1071.88,-2146.41 -1691.52,-6526.18 -1094.76,-10629.56 577.37,-3969.98 2326.38,-7106.75 5664.03,-7572.63 4150.53,1289.87 5107.58,6322.52 1693.6,11840.17 -1448.64,1707.72 -3887.35,4318.04 -6262.87,6362.02zm-9995.01 2028c535.56,3722.98 2297.54,6963.31 5253.53,9413.12 5008.41,4150.75 11220.86,5232.87 16774.92,1431.08 3473.74,-2377.78 4983.56,-5457.74 6250.48,-9297.73 -868.17,645.32 -806.92,1057.7 -2100.25,1920.32 -2988.79,1993.82 -5729.78,2538.53 -9128.31,1734.38 -3102.64,-894.23 -6061.36,-3433.72 -6726.31,-6205.2 6343.76,-5281.98 12316.37,-9342.26 18169.48,-8736.3 -1468.8,-6676.54 -3184.95,-10259.83 -10567.92,-11648.5 -4703.03,-476.47 -8674.2,422.5 -11716.85,2820.43 -5069.3,3995.19 -7221.4,12454.42 -6208.77,18568.4zm71979.97 -80928.69c1442.63,-8293.3 -7202.86,-7644.56 -8881.85,-13479.24 1170.18,-326.69 9566.51,1592.57 11754.32,3455.55 3620.97,3286.06 -1049.07,8885.76 -2872.47,10023.69zm-12009.81 -15917.66c-3936.92,762.69 -6724.92,2145.85 -7631.53,5908.23 -908.32,7973.04 9782.27,7385.06 10349.64,8665.93 483.08,3066.31 -5475.73,8785.82 269.76,9661.96 -3921.36,-3753.17 5173.32,-8134.8 1829.26,-11155.25 -1823.96,-2020.51 -6591.66,-2189.35 -9064.21,-4358.82 -1260.67,-1106.24 -1416.07,-2113.2 -879.4,-3608.19 620.8,-1729.49 3171.13,-3331.27 5339.71,-2917.91 448.62,2281.46 754.06,3050.67 2633.82,4736.91 2279.18,2236.91 6609.5,3814.5 7198.05,7307.03 290.53,3775.73 -5452.11,8506.12 -2083.14,10246.53 -2116.04,-3359.2 4765.26,-5216.97 7572.97,-8716.67 5853.41,-6753.76 2288.55,-13226.42 -6196.97,-14679.23 -2315.59,-503.6 -4300.51,-907.51 -6809.54,-1040.84 371,-7023.75 4534.67,-9628.57 7443.87,-9077.89 4006.06,758.29 2383.03,5074.43 2477.67,5344.76 1446.05,-2335.63 1180.12,-4340.09 -742.16,-5931.36 -2355.42,-1705.05 -5409.68,-1440.51 -7529.63,525.26 -2860.9,2640.26 -3743.32,4996 -4178.17,9089.55zm37229.51 78111.12c678.63,1060.31 2359.43,3195.11 2741.34,6130.43 236.56,5763.26 663.74,16273.04 -1227.77,21678.87 -500.02,1428.94 -825.31,2158.94 -1577.18,3249.17 5424.88,-165.95 10176.57,16.27 15841.35,780.43 -1126.07,-1089.24 -1474.67,-1747.06 -2090.17,-3305.9 -1287.42,-3260.6 -1070.44,-7688.8 -1325,-11342.77 20.29,-1922.26 40.57,-3844.5 60.85,-5766.75 -1.37,-5078.56 -191.03,-10035.41 723.76,-15392.24 -4377.85,1943.52 -8056.4,3383.49 -13147.18,3968.76zm-5549.04 56060.72c3657.39,1839.78 5944.82,3123.68 6226.21,8402.42 4074.66,-4014.54 3793.57,-10140.71 -487.4,-14692.25 -6383.69,-8258.37 -32169.47,-10165.93 -48359.14,-10338.32 -16145.32,-171.9 -33133.53,1170.69 -46992.52,9578.47 -1476.15,1330.18 -10062.63,7005.35 -8190.19,14923.16 2799.51,-7186.9 5969.06,-9580.53 13884.77,-11893.1 10682,-3119.79 26455.37,-4638.5 36652.86,-4213.85 11977.51,-484.36 34196.73,1659.17 47265.41,8233.47zm-6602.17 -45192.73c58.08,-3069.73 370.6,-6252.43 3151.59,-7175.74 -893.74,6628.97 6955.42,6719.06 8654.36,1849.55 430.95,-1235.34 470.13,-2662.98 29.81,-3962.42 -1320.45,-3895.86 -6029.26,-4509.99 -8926.72,-1837.81 -1258.72,1160.89 -1702.86,3244.28 -2592.44,3465.9l-42.03 -6954.52c-3608.6,1100.78 -7312,1545.74 -11792.76,1805.31 2870.92,4714.11 3040.9,9505.75 2978.43,16512.24 178.54,5765.04 -1416.64,13618.43 -2422.62,16580.32 4472.77,-402.03 9485.14,343.31 13839.73,1833.83 -1581.98,-2676.09 -2341.41,-4689.02 -2720.39,-7665.49 -602.24,-4729.26 -511.75,-9715.4 -156.96,-14451.17zm10957.91 -51465.58c-1594.2,4785.78 -7764.7,3850.75 -7622.33,3485.45 1574.41,-3669.69 1811.43,-4765.99 2406.9,-9518.05 1050.45,-305.35 6112.59,521.6 5215.43,6032.6zm-10171.03 2944.14c-3161.77,6103.3 -7314.04,10804.69 -14019.57,13299.72 -10451.78,3888.78 -20237.14,-895.37 -26226.49,-9698.94 -2576.48,-3786.73 -4552.43,-9405.49 -4381.22,-14948.34l47058.05 -50.58c-122.34,3839.83 -330.77,7548.45 -2430.77,11398.14zm1065.6 3495.95c4941.75,678.63 7302.47,89.76 10053.33,-2714.94 1733.07,-1766.95 2314.94,-4203.66 1919.92,-6461.59 -771.16,-4406.88 -3856.04,-5993.59 -7905.69,-6131.64l-8.31 -2358.52 -52554.55 54.24c-899.6,5837.45 1566.51,13987.24 4128.65,18189.84 4869.84,7987.62 12603.42,12948.11 20879.69,13361.46 5414.41,270.42 11061.18,-1405.15 16290.21,-5452.44 3723.6,-2881.99 5332.38,-5336.29 7196.75,-8486.41zm-114276.84 -980.73c-303.48,7574.92 -303.4,12701.73 -3405.22,19524.79 4594.94,-1045.07 10811.62,-855.46 15598.05,-219.34 -4075.87,-5697.52 -3360.99,-10863.99 -3408.15,-17633.22 -86.17,-12382.04 -796.25,-22399.77 1162.52,-35502.96 -4590.14,1674.83 -6891.15,3274.9 -12960,4148.28 559.47,876.31 1347.33,1788.37 1789.68,3263.74 1130.51,7553.82 1328.59,19489.36 1223.12,26418.71zm29610.45 -8447.89c-31.44,3635.32 247.44,7688.79 -846.99,11124.55 -961.26,3017.69 -4020.81,5399.34 -6742.51,2515.39 -3171.21,-3360.26 -767.57,-12317.61 7589.5,-13639.94zm-8006.51 -2324.22c1002.47,-3776.88 -1615.14,-4515.45 -2059.93,-5893.25 40.4,-2751.59 11016.63,-3372.47 10116.45,6746.02 -5286.2,1122.04 -7582.41,1748.14 -11458.65,4348.8 -8032.25,5388.99 -8128.12,18777.58 2420.34,18068.16 4554.87,-306.25 7351.83,-3544.5 8606.88,-7128.58 191.32,1811.02 748.19,5512.87 4932.3,6653.4 4081.41,1112.52 5854.64,-680.58 8413.11,-1803.2 -1842.54,-249.15 -2722.67,-526.56 -3461.99,-2000.46 -2714.36,-5410.99 1392.05,-18646.53 -2939.98,-24071.68 -3887.48,-4868.53 -15835.23,-5323.1 -20852.89,-1700.66 -2141.14,1269.71 -3710.66,6358.64 -1624.02,8671.06 2322.2,2573.3 7033.61,1406.3 7908.38,-1889.61zm-25248.21 55701.66c135.53,3007.91 258.92,9048.33 -643.29,11773.77 -1031.31,3115.35 -4669.55,5291.34 -7157.16,2647.34 -4043.7,-4195.93 485.27,-13644.33 7800.45,-14421.11zm14102.32 19890.49c-1558.85,-783.7 -3723.44,-28.67 -4544.37,-4709.46 -1347.73,-7685.2 1093.62,-17016.65 -1686.23,-21884.69 -1403.86,-2458.38 -4662.39,-4206.44 -7350.37,-4975.07 -4109.59,-1175.31 -9268.81,-1091.34 -13243.93,465.48 -7382.7,2891.36 -6371.1,13137.32 871.18,11728.41 3585.63,-697.53 4478.06,-4310.2 3200.13,-7094.78 -959.06,-1788.86 -1188.42,-993.67 -1807.19,-2433.2 -144.25,-2028.65 4685.84,-3012.39 7571.09,-939.84 2476.7,1558.77 2961.97,3598.25 3173.9,8123.15 -166.97,84.14 -12149.82,1067.63 -16604.92,9128.31 -3996.46,7231.13 -2071.25,15079.55 6943.61,14595.34 6284.19,-337.53 8296.72,-6004.42 9458.99,-7724.46 -255.09,1331.2 -4.72,3102.8 629.69,4377.31 2508.22,5038.43 9330.14,3506.87 13388.42,1343.5zm-33679.08 -12206.84c-1146.8,1023.89 -3834.78,7030.59 -12926.2,5298.26 -16472.08,-3138.72 -18633.65,-29469.14 -13450.89,-37604.02 3460.2,-5997.34 15409.91,-6617.17 16654.93,1805.56 610.22,4128.48 -1172.7,4697.24 -1257.57,8119.48 -814.98,5579.67 8086.01,6283.96 10953.1,2342.07 5774.81,-7939.81 -948.39,-19948.65 -14192.08,-19159.08 -5637.41,336.05 -10146.51,2156.44 -13375.39,5095.85 -9905.42,7332.53 -11864.43,24598.25 -7866.26,35425.26 2255.24,6107.21 6624.49,11107.04 13826.37,12964.24 10703.38,2760.22 21934.95,-6087.99 21633.99,-14287.62zm81145.27 -18495.92c451.73,147.91 312.39,493.35 321.38,1533.5 55.77,6446.43 -189.74,13102.6 -205.24,19551.12l107.26 6306.02c485.78,3174.04 2594.67,5415.06 5265.52,5466.04 4405.83,347.54 7509.62,-2890.78 8439.71,-3556.9 -1043.38,251.05 -4445.94,-241.18 -4462.12,-3933.98l-82.98 -18916.64c-25.12,-5730.21 193.52,-11503.9 144.05,-15922.57 14037.75,1520.02 28408.53,6254.3 42085.34,1084.73 5300,-2003.41 9355.16,-7196.3 7892.33,-13071.26 -1347.98,3261.17 -2685.78,3985.86 -8252.41,5266.41 -9822.67,2259.56 -26725.3,-310.4 -36490.13,-1849.54 -11592.72,-1827.22 -23374.64,-5535.12 -31669.81,3759.6 -1693.9,2016.84 -3862.8,7377.57 -1433.18,10128.92 -273.28,-2911.67 781.17,-5527.63 3222.24,-6928.79 5285.16,-3542.17 18584.32,601.32 22798.43,1200.32 -2892.5,7407.45 -8357.61,8117.04 -11859.78,9866.73l4179.39 16.29z"/>
 </g>
</svg>
